<mxfile host="app.diagrams.net" modified="2023-11-06T16:28:58.195Z" agent="Mozilla/5.0 (Macintosh; Intel Mac OS X 10_15_7) AppleWebKit/537.36 (KHTML, like Gecko) Chrome/119.0.0.0 Safari/537.36" etag="O5HWQKUHgbmj8xmvpAAn" version="22.0.8" type="google" pages="9">
  <diagram id="i6q59GsHNpsEzyON76i2" name="uc1">
    <mxGraphModel dx="940" dy="1004" grid="1" gridSize="10" guides="1" tooltips="1" connect="1" arrows="1" fold="1" page="0" pageScale="1" pageWidth="850" pageHeight="1100" math="0" shadow="0">
      <root>
        <mxCell id="0" />
        <mxCell id="1" parent="0" />
        <UserObject label="" plantUmlData="{&quot;data&quot;:&quot;@startuml\nskinparam monochrome true\nskinparam defaultFontName Sarabun\nautonumber\n\ntitle Use Case 1: ยืนยันตัวตน\nmainframe **sd** AuthenticateUser\n\nparticipant \&quot;user:User\&quot; as User\nparticipant \&quot;:WebBrowser\&quot; as Browser\nparticipant \&quot;:WebServer\&quot; as Server\nparticipant \&quot;:Database\&quot; as Database\n\nUser -&gt; Browser: กดลงทะเบียนบัญชีผู้ใช้\n\nactivate User\n\nactivate Browser\nBrowser -&gt; Server: ขอเข้าถึงหน้าลงทะเบียนบัญชีผู้ใช้\n\nactivate Server\nServer --&gt; Browser: หน้าฟอร์มลงทะเบียนบัญชีผู้ใช้ระบบ\ndeactivate Server\n\nBrowser --&gt; User: แสดงหน้าฟอร์มลงทะเบียนบัญชีผู้ใช้ระบบ\n\n&#39; loop 1\nloop ข้อมูลที่กรอกไม่ถูกต้อง\n\nUser -&gt; Browser: กรอกข้อมูล\nUser -&gt; Browser: กดปุ่ม \&quot;Create Account\&quot;\nBrowser -&gt; Server: ส่งข้อมูลส่วนตัวที่ผู้ใช้กรอก\n\nactivate Server\nServer -&gt; Database: ขอข้อมูลผู้ใช้\n\nactivate Database\nDatabase --&gt; Server: ข้อมูลผู้ใช้\ndeactivate Database\n\nServer -&gt; Server: ตรวจสอบข้อมูลที่ผู้ใช้กรอก\n\nactivate Server\ndeactivate Server\n\nbreak ข้อมูลที่กรอกถูกต้อง\n\nServer -&gt;&gt; Database: เขียนข้อมูลผู้ใช้\n\nactivate Database\ndeactivate Database\n\nServer --&gt; Browser: หน้าฟอร์มลงชื่อเข้าใช้ระบบ\ndeactivate Server\n\n&#39; break 1.1\nend\n\nServer --&gt; Browser: สั่งให้แจ้งเตือนผู้ใช้ให้ตรวจสอบข้อมูลที่กรอก\nBrowser --&gt; User: แจ้งเตือนผู้ใช้ให้ตรวจสอบข้อมูลที่กรอก\n\n&#39; loop 1\nend\n\nBrowser --&gt; User: แสดงฟอร์มลงชื่อเข้าใช้ระบบ\n\n&#39; loop 2\nloop ยืนยันตัวตนไม่สำเร็จ\n\nUser -&gt; Browser: กรอกข้อมูล\nUser -&gt; Browser: กดปุ่ม \&quot;Sign In\&quot;\nBrowser -&gt; Server: ส่งข้อมูลการเข้าสู่ระบบ\n\nactivate Server\nServer -&gt; Database: ขอข้อมูลการเข้าสู่ระบบของผู้ใช้\n\nactivate Database\nDatabase --&gt; Server: ข้อมูลการเข้าสู่ระบบของผู้ใช้\ndeactivate Database\n\nServer -&gt; Server: ตรวจสอบข้อมูลที่ผู้ใช้กรอก\n\nactivate Server\ndeactivate Server\n\n&#39; break 2.1\nbreak ยืนยันตัวตนสำเร็จ\n\nServer --&gt; Browser: หน้าหลัก\ndeactivate Server\n\n&#39; break 2.1\nend\n\nServer --&gt; Browser: สั่งให้แจ้งเตือนผู้ใช้ให้ตรวจสอบข้อมูลที่กรอก\nBrowser --&gt; User: แจ้งเตือนผู้ใช้ให้ตรวจสอบข้อมูลที่กรอก\n\n&#39; loop 2\nend\n\nBrowser --&gt; User: แสดงหน้าหลัก\n\ndeactivate Browser\n\ndeactivate User\n@enduml\n&quot;,&quot;format&quot;:&quot;svg&quot;}" id="NETSGS0Upac13pP_UZJ6-1">
          <mxCell style="shape=image;noLabel=1;verticalAlign=top;aspect=fixed;imageAspect=0;image=data:image/svg+xml,PD94bWwgdmVyc2lvbj0iMS4wIiBlbmNvZGluZz0idXMtYXNjaWkiIHN0YW5kYWxvbmU9Im5vIj8+PHN2ZyB4bWxucz0iaHR0cDovL3d3dy53My5vcmcvMjAwMC9zdmciIHhtbG5zOnhsaW5rPSJodHRwOi8vd3d3LnczLm9yZy8xOTk5L3hsaW5rIiBjb250ZW50U3R5bGVUeXBlPSJ0ZXh0L2NzcyIgaGVpZ2h0PSIxMTEwcHgiIHByZXNlcnZlQXNwZWN0UmF0aW89Im5vbmUiIHN0eWxlPSJ3aWR0aDo4NzFweDtoZWlnaHQ6MTExMHB4O2JhY2tncm91bmQ6I0ZGRkZGRjsiIHZlcnNpb249IjEuMSIgdmlld0JveD0iMCAwIDg3MSAxMTEwIiB3aWR0aD0iODcxcHgiIHpvb21BbmRQYW49Im1hZ25pZnkiPjxkZWZzLz48Zz48dGV4dCBmaWxsPSIjMDAwMDAwIiBmb250LWZhbWlseT0iU2FyYWJ1biIgZm9udC1zaXplPSIxNCIgZm9udC13ZWlnaHQ9ImJvbGQiIGxlbmd0aEFkanVzdD0ic3BhY2luZyIgdGV4dExlbmd0aD0iMTQwIiB4PSIzNTQiIHk9IjI4LjIzNDQiPlVzZSBDYXNlIDE6ICYjMzYxODsmIzM2Mzk7JiMzNjA5OyYjMzYxODsmIzM2MzM7JiMzNjA5OyYjMzYwNTsmIzM2MzM7JiMzNjIzOyYjMzYwNTsmIzM2MDk7PC90ZXh0PjxyZWN0IGZpbGw9IiNGRkZGRkYiIGhlaWdodD0iMTA1My40NDUzIiBzdHlsZT0ic3Ryb2tlOiMxODE4MTg7c3Ryb2tlLXdpZHRoOjEuNTsiIHdpZHRoPSI4NjAiIHg9IjUiIHk9IjUwLjk4NDQiLz48cGF0aCBkPSJNMTQ4LDUwLjk4NDQgTDE0OCw1OC45Njg4IEwxMzgsNjguOTY4OCBMNSw2OC45Njg4ICIgZmlsbD0ibm9uZSIgc3R5bGU9InN0cm9rZTojMTgxODE4O3N0cm9rZS13aWR0aDoxLjU7Ii8+PHRleHQgZmlsbD0iIzAwMDAwMCIgZm9udC1mYW1pbHk9IlNhcmFidW4iIGZvbnQtc2l6ZT0iMTQiIGZvbnQtd2VpZ2h0PSJib2xkIiBsZW5ndGhBZGp1c3Q9InNwYWNpbmciIHRleHRMZW5ndGg9IjE0IiB4PSI4IiB5PSI2NS4yMTg4Ij5zZDwvdGV4dD48dGV4dCBmaWxsPSIjMDAwMDAwIiBmb250LWZhbWlseT0iU2FyYWJ1biIgZm9udC1zaXplPSIxNCIgbGVuZ3RoQWRqdXN0PSJzcGFjaW5nIiB0ZXh0TGVuZ3RoPSIxMTIiIHg9IjI5IiB5PSI2NS4yMTg4Ij5BdXRoZW50aWNhdGVVc2VyPC90ZXh0PjxyZWN0IGZpbGw9IiNGRkZGRkYiIGhlaWdodD0iOTA1LjU5MzgiIHN0eWxlPSJzdHJva2U6IzE4MTgxODtzdHJva2Utd2lkdGg6MS4wOyIgd2lkdGg9IjEwIiB4PSI2My41IiB5PSIxMzcuODY3MiIvPjxyZWN0IGZpbGw9IiNGRkZGRkYiIGhlaWdodD0iOTA1LjU5MzgiIHN0eWxlPSJzdHJva2U6IzE4MTgxODtzdHJva2Utd2lkdGg6MS4wOyIgd2lkdGg9IjEwIiB4PSIzMDkuNSIgeT0iMTM3Ljg2NzIiLz48cmVjdCBmaWxsPSIjRkZGRkZGIiBoZWlnaHQ9IjI3LjkxNDEiIHN0eWxlPSJzdHJva2U6IzE4MTgxODtzdHJva2Utd2lkdGg6MS4wOyIgd2lkdGg9IjEwIiB4PSI1NzguNSIgeT0iMTY1Ljc4MTMiLz48cmVjdCBmaWxsPSIjRkZGRkZGIiBoZWlnaHQ9IjIzNS40ODQ0IiBzdHlsZT0ic3Ryb2tlOiMxODE4MTg7c3Ryb2tlLXdpZHRoOjEuMDsiIHdpZHRoPSIxMCIgeD0iNTc4LjUiIHk9IjMyOC4yNjU2Ii8+PHJlY3QgZmlsbD0iI0ZGRkZGRiIgaGVpZ2h0PSIyOCIgc3R5bGU9InN0cm9rZTojMTgxODE4O3N0cm9rZS13aWR0aDoxLjA7IiB3aWR0aD0iMTAiIHg9IjU4My41IiB5PSI0MjAuMDA3OCIvPjxyZWN0IGZpbGw9IiNGRkZGRkYiIGhlaWdodD0iMTc3LjU3MDMiIHN0eWxlPSJzdHJva2U6IzE4MTgxODtzdHJva2Utd2lkdGg6MS4wOyIgd2lkdGg9IjEwIiB4PSI1NzguNSIgeT0iNzY4LjE0ODQiLz48cmVjdCBmaWxsPSIjRkZGRkZGIiBoZWlnaHQ9IjI4IiBzdHlsZT0ic3Ryb2tlOiMxODE4MTg7c3Ryb2tlLXdpZHRoOjEuMDsiIHdpZHRoPSIxMCIgeD0iNTgzLjUiIHk9Ijg1OS44OTA2Ii8+PHJlY3QgZmlsbD0iI0ZGRkZGRiIgaGVpZ2h0PSIyNy45MTQxIiBzdHlsZT0ic3Ryb2tlOiMxODE4MTg7c3Ryb2tlLXdpZHRoOjEuMDsiIHdpZHRoPSIxMCIgeD0iNzg1LjUiIHk9IjM1Ni4xNzk3Ii8+PHJlY3QgZmlsbD0iI0ZGRkZGRiIgaGVpZ2h0PSIzMCIgc3R5bGU9InN0cm9rZTojMTgxODE4O3N0cm9rZS13aWR0aDoxLjA7IiB3aWR0aD0iMTAiIHg9Ijc4NS41IiB5PSI1MDUuODM1OSIvPjxyZWN0IGZpbGw9IiNGRkZGRkYiIGhlaWdodD0iMjcuOTE0MSIgc3R5bGU9InN0cm9rZTojMTgxODE4O3N0cm9rZS13aWR0aDoxLjA7IiB3aWR0aD0iMTAiIHg9Ijc4NS41IiB5PSI3OTYuMDYyNSIvPjxyZWN0IGZpbGw9Im5vbmUiIGhlaWdodD0iMzk3Ljk2ODgiIHN0eWxlPSJzdHJva2U6IzAwMDAwMDtzdHJva2Utd2lkdGg6MS41OyIgd2lkdGg9IjgyOSIgeD0iMjAiIHk9IjIzNi42MDk0Ii8+PHJlY3QgZmlsbD0ibm9uZSIgaGVpZ2h0PSIxMDEuNzQyMiIgc3R5bGU9InN0cm9rZTojMDAwMDAwO3N0cm9rZS13aWR0aDoxLjU7IiB3aWR0aD0iNTgwLjUiIHg9IjI1OC41IiB5PSI0NzAuMDA3OCIvPjxyZWN0IGZpbGw9Im5vbmUiIGhlaWdodD0iMzQwLjA1NDciIHN0eWxlPSJzdHJva2U6IzAwMDAwMDtzdHJva2Utd2lkdGg6MS41OyIgd2lkdGg9IjgxOSIgeD0iMjAiIHk9IjY3Ni40OTIyIi8+PHJlY3QgZmlsbD0ibm9uZSIgaGVpZ2h0PSI0My44MjgxIiBzdHlsZT0ic3Ryb2tlOiMwMDAwMDA7c3Ryb2tlLXdpZHRoOjEuNTsiIHdpZHRoPSIzNzciIHg9IjI1OC41IiB5PSI5MDkuODkwNiIvPjxsaW5lIHN0eWxlPSJzdHJva2U6IzE4MTgxODtzdHJva2Utd2lkdGg6MC41O3N0cm9rZS1kYXNoYXJyYXk6NS4wLDUuMDsiIHgxPSI2OCIgeDI9IjY4IiB5MT0iMTA3Ljk1MzEiIHkyPSIxMDYxLjQ2MDkiLz48bGluZSBzdHlsZT0ic3Ryb2tlOiMxODE4MTg7c3Ryb2tlLXdpZHRoOjAuNTtzdHJva2UtZGFzaGFycmF5OjUuMCw1LjA7IiB4MT0iMzE0LjUiIHgyPSIzMTQuNSIgeTE9IjEwNy45NTMxIiB5Mj0iMTA2MS40NjA5Ii8+PGxpbmUgc3R5bGU9InN0cm9rZTojMTgxODE4O3N0cm9rZS13aWR0aDowLjU7c3Ryb2tlLWRhc2hhcnJheTo1LjAsNS4wOyIgeDE9IjU4My41IiB4Mj0iNTgzLjUiIHkxPSIxMDcuOTUzMSIgeTI9IjEwNjEuNDYwOSIvPjxsaW5lIHN0eWxlPSJzdHJva2U6IzE4MTgxODtzdHJva2Utd2lkdGg6MC41O3N0cm9rZS1kYXNoYXJyYXk6NS4wLDUuMDsiIHgxPSI3OTAiIHgyPSI3OTAiIHkxPSIxMDcuOTUzMSIgeTI9IjEwNjEuNDYwOSIvPjxyZWN0IGZpbGw9IiNFM0UzRTMiIGhlaWdodD0iMjguOTg0NCIgcng9IjIuNSIgcnk9IjIuNSIgc3R5bGU9InN0cm9rZTojMTgxODE4O3N0cm9rZS13aWR0aDowLjU7IiB3aWR0aD0iNzciIHg9IjMwIiB5PSI3Ny45Njg4Ii8+PHRleHQgZmlsbD0iIzAwMDAwMCIgZm9udC1mYW1pbHk9IlNhcmFidW4iIGZvbnQtc2l6ZT0iMTQiIGxlbmd0aEFkanVzdD0ic3BhY2luZyIgdGV4dExlbmd0aD0iNjMiIHg9IjM3IiB5PSI5OC4yMDMxIj51c2VyOlVzZXI8L3RleHQ+PHJlY3QgZmlsbD0iI0UzRTNFMyIgaGVpZ2h0PSIyOC45ODQ0IiByeD0iMi41IiByeT0iMi41IiBzdHlsZT0ic3Ryb2tlOiMxODE4MTg7c3Ryb2tlLXdpZHRoOjAuNTsiIHdpZHRoPSI3NyIgeD0iMzAiIHk9IjEwNjAuNDYwOSIvPjx0ZXh0IGZpbGw9IiMwMDAwMDAiIGZvbnQtZmFtaWx5PSJTYXJhYnVuIiBmb250LXNpemU9IjE0IiBsZW5ndGhBZGp1c3Q9InNwYWNpbmciIHRleHRMZW5ndGg9IjYzIiB4PSIzNyIgeT0iMTA4MC42OTUzIj51c2VyOlVzZXI8L3RleHQ+PHJlY3QgZmlsbD0iI0UzRTNFMyIgaGVpZ2h0PSIyOC45ODQ0IiByeD0iMi41IiByeT0iMi41IiBzdHlsZT0ic3Ryb2tlOiMxODE4MTg7c3Ryb2tlLXdpZHRoOjAuNTsiIHdpZHRoPSI5MiIgeD0iMjY4LjUiIHk9Ijc3Ljk2ODgiLz48dGV4dCBmaWxsPSIjMDAwMDAwIiBmb250LWZhbWlseT0iU2FyYWJ1biIgZm9udC1zaXplPSIxNCIgbGVuZ3RoQWRqdXN0PSJzcGFjaW5nIiB0ZXh0TGVuZ3RoPSI3OCIgeD0iMjc1LjUiIHk9Ijk4LjIwMzEiPjpXZWJCcm93c2VyPC90ZXh0PjxyZWN0IGZpbGw9IiNFM0UzRTMiIGhlaWdodD0iMjguOTg0NCIgcng9IjIuNSIgcnk9IjIuNSIgc3R5bGU9InN0cm9rZTojMTgxODE4O3N0cm9rZS13aWR0aDowLjU7IiB3aWR0aD0iOTIiIHg9IjI2OC41IiB5PSIxMDYwLjQ2MDkiLz48dGV4dCBmaWxsPSIjMDAwMDAwIiBmb250LWZhbWlseT0iU2FyYWJ1biIgZm9udC1zaXplPSIxNCIgbGVuZ3RoQWRqdXN0PSJzcGFjaW5nIiB0ZXh0TGVuZ3RoPSI3OCIgeD0iMjc1LjUiIHk9IjEwODAuNjk1MyI+OldlYkJyb3dzZXI8L3RleHQ+PHJlY3QgZmlsbD0iI0UzRTNFMyIgaGVpZ2h0PSIyOC45ODQ0IiByeD0iMi41IiByeT0iMi41IiBzdHlsZT0ic3Ryb2tlOiMxODE4MTg7c3Ryb2tlLXdpZHRoOjAuNTsiIHdpZHRoPSI4NCIgeD0iNTQxLjUiIHk9Ijc3Ljk2ODgiLz48dGV4dCBmaWxsPSIjMDAwMDAwIiBmb250LWZhbWlseT0iU2FyYWJ1biIgZm9udC1zaXplPSIxNCIgbGVuZ3RoQWRqdXN0PSJzcGFjaW5nIiB0ZXh0TGVuZ3RoPSI3MCIgeD0iNTQ4LjUiIHk9Ijk4LjIwMzEiPjpXZWJTZXJ2ZXI8L3RleHQ+PHJlY3QgZmlsbD0iI0UzRTNFMyIgaGVpZ2h0PSIyOC45ODQ0IiByeD0iMi41IiByeT0iMi41IiBzdHlsZT0ic3Ryb2tlOiMxODE4MTg7c3Ryb2tlLXdpZHRoOjAuNTsiIHdpZHRoPSI4NCIgeD0iNTQxLjUiIHk9IjEwNjAuNDYwOSIvPjx0ZXh0IGZpbGw9IiMwMDAwMDAiIGZvbnQtZmFtaWx5PSJTYXJhYnVuIiBmb250LXNpemU9IjE0IiBsZW5ndGhBZGp1c3Q9InNwYWNpbmciIHRleHRMZW5ndGg9IjcwIiB4PSI1NDguNSIgeT0iMTA4MC42OTUzIj46V2ViU2VydmVyPC90ZXh0PjxyZWN0IGZpbGw9IiNFM0UzRTMiIGhlaWdodD0iMjguOTg0NCIgcng9IjIuNSIgcnk9IjIuNSIgc3R5bGU9InN0cm9rZTojMTgxODE4O3N0cm9rZS13aWR0aDowLjU7IiB3aWR0aD0iNzciIHg9Ijc1MiIgeT0iNzcuOTY4OCIvPjx0ZXh0IGZpbGw9IiMwMDAwMDAiIGZvbnQtZmFtaWx5PSJTYXJhYnVuIiBmb250LXNpemU9IjE0IiBsZW5ndGhBZGp1c3Q9InNwYWNpbmciIHRleHRMZW5ndGg9IjYzIiB4PSI3NTkiIHk9Ijk4LjIwMzEiPjpEYXRhYmFzZTwvdGV4dD48cmVjdCBmaWxsPSIjRTNFM0UzIiBoZWlnaHQ9IjI4Ljk4NDQiIHJ4PSIyLjUiIHJ5PSIyLjUiIHN0eWxlPSJzdHJva2U6IzE4MTgxODtzdHJva2Utd2lkdGg6MC41OyIgd2lkdGg9Ijc3IiB4PSI3NTIiIHk9IjEwNjAuNDYwOSIvPjx0ZXh0IGZpbGw9IiMwMDAwMDAiIGZvbnQtZmFtaWx5PSJTYXJhYnVuIiBmb250LXNpemU9IjE0IiBsZW5ndGhBZGp1c3Q9InNwYWNpbmciIHRleHRMZW5ndGg9IjYzIiB4PSI3NTkiIHk9IjEwODAuNjk1MyI+OkRhdGFiYXNlPC90ZXh0PjxyZWN0IGZpbGw9IiNGRkZGRkYiIGhlaWdodD0iOTA1LjU5MzgiIHN0eWxlPSJzdHJva2U6IzE4MTgxODtzdHJva2Utd2lkdGg6MS4wOyIgd2lkdGg9IjEwIiB4PSI2My41IiB5PSIxMzcuODY3MiIvPjxyZWN0IGZpbGw9IiNGRkZGRkYiIGhlaWdodD0iOTA1LjU5MzgiIHN0eWxlPSJzdHJva2U6IzE4MTgxODtzdHJva2Utd2lkdGg6MS4wOyIgd2lkdGg9IjEwIiB4PSIzMDkuNSIgeT0iMTM3Ljg2NzIiLz48cmVjdCBmaWxsPSIjRkZGRkZGIiBoZWlnaHQ9IjI3LjkxNDEiIHN0eWxlPSJzdHJva2U6IzE4MTgxODtzdHJva2Utd2lkdGg6MS4wOyIgd2lkdGg9IjEwIiB4PSI1NzguNSIgeT0iMTY1Ljc4MTMiLz48cmVjdCBmaWxsPSIjRkZGRkZGIiBoZWlnaHQ9IjIzNS40ODQ0IiBzdHlsZT0ic3Ryb2tlOiMxODE4MTg7c3Ryb2tlLXdpZHRoOjEuMDsiIHdpZHRoPSIxMCIgeD0iNTc4LjUiIHk9IjMyOC4yNjU2Ii8+PHJlY3QgZmlsbD0iI0ZGRkZGRiIgaGVpZ2h0PSIyOCIgc3R5bGU9InN0cm9rZTojMTgxODE4O3N0cm9rZS13aWR0aDoxLjA7IiB3aWR0aD0iMTAiIHg9IjU4My41IiB5PSI0MjAuMDA3OCIvPjxyZWN0IGZpbGw9IiNGRkZGRkYiIGhlaWdodD0iMTc3LjU3MDMiIHN0eWxlPSJzdHJva2U6IzE4MTgxODtzdHJva2Utd2lkdGg6MS4wOyIgd2lkdGg9IjEwIiB4PSI1NzguNSIgeT0iNzY4LjE0ODQiLz48cmVjdCBmaWxsPSIjRkZGRkZGIiBoZWlnaHQ9IjI4IiBzdHlsZT0ic3Ryb2tlOiMxODE4MTg7c3Ryb2tlLXdpZHRoOjEuMDsiIHdpZHRoPSIxMCIgeD0iNTgzLjUiIHk9Ijg1OS44OTA2Ii8+PHJlY3QgZmlsbD0iI0ZGRkZGRiIgaGVpZ2h0PSIyNy45MTQxIiBzdHlsZT0ic3Ryb2tlOiMxODE4MTg7c3Ryb2tlLXdpZHRoOjEuMDsiIHdpZHRoPSIxMCIgeD0iNzg1LjUiIHk9IjM1Ni4xNzk3Ii8+PHJlY3QgZmlsbD0iI0ZGRkZGRiIgaGVpZ2h0PSIzMCIgc3R5bGU9InN0cm9rZTojMTgxODE4O3N0cm9rZS13aWR0aDoxLjA7IiB3aWR0aD0iMTAiIHg9Ijc4NS41IiB5PSI1MDUuODM1OSIvPjxyZWN0IGZpbGw9IiNGRkZGRkYiIGhlaWdodD0iMjcuOTE0MSIgc3R5bGU9InN0cm9rZTojMTgxODE4O3N0cm9rZS13aWR0aDoxLjA7IiB3aWR0aD0iMTAiIHg9Ijc4NS41IiB5PSI3OTYuMDYyNSIvPjxwb2x5Z29uIGZpbGw9IiMxODE4MTgiIHBvaW50cz0iMjk3LjUsMTMzLjg2NzIsMzA3LjUsMTM3Ljg2NzIsMjk3LjUsMTQxLjg2NzIsMzAxLjUsMTM3Ljg2NzIiIHN0eWxlPSJzdHJva2U6IzE4MTgxODtzdHJva2Utd2lkdGg6MS4wOyIvPjxsaW5lIHN0eWxlPSJzdHJva2U6IzE4MTgxODtzdHJva2Utd2lkdGg6MS4wOyIgeDE9IjczLjUiIHgyPSIzMDMuNSIgeTE9IjEzNy44NjcyIiB5Mj0iMTM3Ljg2NzIiLz48dGV4dCBmaWxsPSIjMDAwMDAwIiBmb250LWZhbWlseT0iU2FyYWJ1biIgZm9udC1zaXplPSIxMyIgZm9udC13ZWlnaHQ9ImJvbGQiIGxlbmd0aEFkanVzdD0ic3BhY2luZyIgdGV4dExlbmd0aD0iNyIgeD0iODAuNSIgeT0iMTM0LjI0MjIiPjE8L3RleHQ+PHRleHQgZmlsbD0iIzAwMDAwMCIgZm9udC1mYW1pbHk9IlNhcmFidW4iIGZvbnQtc2l6ZT0iMTMiIGxlbmd0aEFkanVzdD0ic3BhY2luZyIgdGV4dExlbmd0aD0iMTExIiB4PSI5MS41IiB5PSIxMzQuMjQyMiI+JiMzNTg1OyYjMzYwNDsmIzM2MjE7JiMzNTkxOyYjMzYwNzsmIzM2MzI7JiMzNjQ4OyYjMzYxMDsmIzM2Mzc7JiMzNjE4OyYjMzYwOTsmIzM2MTA7JiMzNjMzOyYjMzU5NzsmIzM1OTQ7JiMzNjM3OyYjMzYxMjsmIzM2NDE7JiMzNjU3OyYjMzY1MTsmIzM1OTQ7JiMzNjU3OzwvdGV4dD48cG9seWdvbiBmaWxsPSIjMTgxODE4IiBwb2ludHM9IjU2Ni41LDE2MS43ODEzLDU3Ni41LDE2NS43ODEzLDU2Ni41LDE2OS43ODEzLDU3MC41LDE2NS43ODEzIiBzdHlsZT0ic3Ryb2tlOiMxODE4MTg7c3Ryb2tlLXdpZHRoOjEuMDsiLz48bGluZSBzdHlsZT0ic3Ryb2tlOiMxODE4MTg7c3Ryb2tlLXdpZHRoOjEuMDsiIHgxPSIzMTkuNSIgeDI9IjU3Mi41IiB5MT0iMTY1Ljc4MTMiIHkyPSIxNjUuNzgxMyIvPjx0ZXh0IGZpbGw9IiMwMDAwMDAiIGZvbnQtZmFtaWx5PSJTYXJhYnVuIiBmb250LXNpemU9IjEzIiBmb250LXdlaWdodD0iYm9sZCIgbGVuZ3RoQWRqdXN0PSJzcGFjaW5nIiB0ZXh0TGVuZ3RoPSI3IiB4PSIzMjYuNSIgeT0iMTYyLjE1NjMiPjI8L3RleHQ+PHRleHQgZmlsbD0iIzAwMDAwMCIgZm9udC1mYW1pbHk9IlNhcmFidW4iIGZvbnQtc2l6ZT0iMTMiIGxlbmd0aEFkanVzdD0ic3BhY2luZyIgdGV4dExlbmd0aD0iMTY2IiB4PSIzMzcuNSIgeT0iMTYyLjE1NjMiPiYjMzU4NjsmIzM2Mjk7JiMzNjQ4OyYjMzU4NjsmIzM2NTc7JiMzNjM0OyYjMzYwNjsmIzM2Mzg7JiMzNTkxOyYjMzYyNzsmIzM2MDk7JiMzNjU3OyYjMzYzNDsmIzM2MjE7JiMzNTkxOyYjMzYwNzsmIzM2MzI7JiMzNjQ4OyYjMzYxMDsmIzM2Mzc7JiMzNjE4OyYjMzYwOTsmIzM2MTA7JiMzNjMzOyYjMzU5NzsmIzM1OTQ7JiMzNjM3OyYjMzYxMjsmIzM2NDE7JiMzNjU3OyYjMzY1MTsmIzM1OTQ7JiMzNjU3OzwvdGV4dD48cG9seWdvbiBmaWxsPSIjMTgxODE4IiBwb2ludHM9IjMzMC41LDE4OS42OTUzLDMyMC41LDE5My42OTUzLDMzMC41LDE5Ny42OTUzLDMyNi41LDE5My42OTUzIiBzdHlsZT0ic3Ryb2tlOiMxODE4MTg7c3Ryb2tlLXdpZHRoOjEuMDsiLz48bGluZSBzdHlsZT0ic3Ryb2tlOiMxODE4MTg7c3Ryb2tlLXdpZHRoOjEuMDtzdHJva2UtZGFzaGFycmF5OjIuMCwyLjA7IiB4MT0iMzI0LjUiIHgyPSI1ODIuNSIgeTE9IjE5My42OTUzIiB5Mj0iMTkzLjY5NTMiLz48dGV4dCBmaWxsPSIjMDAwMDAwIiBmb250LWZhbWlseT0iU2FyYWJ1biIgZm9udC1zaXplPSIxMyIgZm9udC13ZWlnaHQ9ImJvbGQiIGxlbmd0aEFkanVzdD0ic3BhY2luZyIgdGV4dExlbmd0aD0iNyIgeD0iMzM2LjUiIHk9IjE5MC4wNzAzIj4zPC90ZXh0Pjx0ZXh0IGZpbGw9IiMwMDAwMDAiIGZvbnQtZmFtaWx5PSJTYXJhYnVuIiBmb250LXNpemU9IjEzIiBsZW5ndGhBZGp1c3Q9InNwYWNpbmciIHRleHRMZW5ndGg9IjE3NCIgeD0iMzQ3LjUiIHk9IjE5MC4wNzAzIj4mIzM2Mjc7JiMzNjA5OyYjMzY1NzsmIzM2MzQ7JiMzNjE1OyYjMzYyOTsmIzM2MTk7JiMzNjYwOyYjMzYxNzsmIzM2MjE7JiMzNTkxOyYjMzYwNzsmIzM2MzI7JiMzNjQ4OyYjMzYxMDsmIzM2Mzc7JiMzNjE4OyYjMzYwOTsmIzM2MTA7JiMzNjMzOyYjMzU5NzsmIzM1OTQ7JiMzNjM3OyYjMzYxMjsmIzM2NDE7JiMzNjU3OyYjMzY1MTsmIzM1OTQ7JiMzNjU3OyYjMzYxOTsmIzM2MzI7JiMzNjEwOyYjMzYxMDs8L3RleHQ+PHBvbHlnb24gZmlsbD0iIzE4MTgxOCIgcG9pbnRzPSI4NC41LDIxNy42MDk0LDc0LjUsMjIxLjYwOTQsODQuNSwyMjUuNjA5NCw4MC41LDIyMS42MDk0IiBzdHlsZT0ic3Ryb2tlOiMxODE4MTg7c3Ryb2tlLXdpZHRoOjEuMDsiLz48bGluZSBzdHlsZT0ic3Ryb2tlOiMxODE4MTg7c3Ryb2tlLXdpZHRoOjEuMDtzdHJva2UtZGFzaGFycmF5OjIuMCwyLjA7IiB4MT0iNzguNSIgeDI9IjMwOC41IiB5MT0iMjIxLjYwOTQiIHkyPSIyMjEuNjA5NCIvPjx0ZXh0IGZpbGw9IiMwMDAwMDAiIGZvbnQtZmFtaWx5PSJTYXJhYnVuIiBmb250LXNpemU9IjEzIiBmb250LXdlaWdodD0iYm9sZCIgbGVuZ3RoQWRqdXN0PSJzcGFjaW5nIiB0ZXh0TGVuZ3RoPSI3IiB4PSI5MC41IiB5PSIyMTcuOTg0NCI+NDwvdGV4dD48dGV4dCBmaWxsPSIjMDAwMDAwIiBmb250LWZhbWlseT0iU2FyYWJ1biIgZm9udC1zaXplPSIxMyIgbGVuZ3RoQWRqdXN0PSJzcGFjaW5nIiB0ZXh0TGVuZ3RoPSIyMDEiIHg9IjEwMS41IiB5PSIyMTcuOTg0NCI+JiMzNjQ5OyYjMzYyNjsmIzM2MDQ7JiMzNTkxOyYjMzYyNzsmIzM2MDk7JiMzNjU3OyYjMzYzNDsmIzM2MTU7JiMzNjI5OyYjMzYxOTsmIzM2NjA7JiMzNjE3OyYjMzYyMTsmIzM1OTE7JiMzNjA3OyYjMzYzMjsmIzM2NDg7JiMzNjEwOyYjMzYzNzsmIzM2MTg7JiMzNjA5OyYjMzYxMDsmIzM2MzM7JiMzNTk3OyYjMzU5NDsmIzM2Mzc7JiMzNjEyOyYjMzY0MTsmIzM2NTc7JiMzNjUxOyYjMzU5NDsmIzM2NTc7JiMzNjE5OyYjMzYzMjsmIzM2MTA7JiMzNjEwOzwvdGV4dD48cGF0aCBkPSJNMjAsMjM2LjYwOTQgTDkyLDIzNi42MDk0IEw5MiwyNDIuNTIzNCBMODIsMjUyLjUyMzQgTDIwLDI1Mi41MjM0IEwyMCwyMzYuNjA5NCAiIGZpbGw9IiNFRUVFRUUiIHN0eWxlPSJzdHJva2U6IzAwMDAwMDtzdHJva2Utd2lkdGg6MS41OyIvPjxyZWN0IGZpbGw9Im5vbmUiIGhlaWdodD0iMzk3Ljk2ODgiIHN0eWxlPSJzdHJva2U6IzAwMDAwMDtzdHJva2Utd2lkdGg6MS41OyIgd2lkdGg9IjgyOSIgeD0iMjAiIHk9IjIzNi42MDk0Ii8+PHRleHQgZmlsbD0iIzAwMDAwMCIgZm9udC1mYW1pbHk9IlNhcmFidW4iIGZvbnQtc2l6ZT0iMTMiIGZvbnQtd2VpZ2h0PSJib2xkIiBsZW5ndGhBZGp1c3Q9InNwYWNpbmciIHRleHRMZW5ndGg9IjI3IiB4PSIzNSIgeT0iMjQ5Ljg5ODQiPmxvb3A8L3RleHQ+PHRleHQgZmlsbD0iIzAwMDAwMCIgZm9udC1mYW1pbHk9IlNhcmFidW4iIGZvbnQtc2l6ZT0iMTEiIGZvbnQtd2VpZ2h0PSJib2xkIiBsZW5ndGhBZGp1c3Q9InNwYWNpbmciIHRleHRMZW5ndGg9IjEwNSIgeD0iMTA3IiB5PSIyNDkuMDA3OCI+WyYjMzU4NjsmIzM2NTc7JiMzNjI5OyYjMzYxNzsmIzM2NDE7JiMzNjIxOyYjMzYwNzsmIzM2Mzc7JiMzNjU2OyYjMzU4NTsmIzM2MTk7JiMzNjI5OyYjMzU4NTsmIzM2NTI7JiMzNjE3OyYjMzY1NjsmIzM2MDY7JiMzNjQxOyYjMzU4NTsmIzM2MDU7JiMzNjU3OyYjMzYyOTsmIzM1OTE7XTwvdGV4dD48cG9seWdvbiBmaWxsPSIjMTgxODE4IiBwb2ludHM9IjI5Ny41LDI2OC40Mzc1LDMwNy41LDI3Mi40Mzc1LDI5Ny41LDI3Ni40Mzc1LDMwMS41LDI3Mi40Mzc1IiBzdHlsZT0ic3Ryb2tlOiMxODE4MTg7c3Ryb2tlLXdpZHRoOjEuMDsiLz48bGluZSBzdHlsZT0ic3Ryb2tlOiMxODE4MTg7c3Ryb2tlLXdpZHRoOjEuMDsiIHgxPSI3My41IiB4Mj0iMzAzLjUiIHkxPSIyNzIuNDM3NSIgeTI9IjI3Mi40Mzc1Ii8+PHRleHQgZmlsbD0iIzAwMDAwMCIgZm9udC1mYW1pbHk9IlNhcmFidW4iIGZvbnQtc2l6ZT0iMTMiIGZvbnQtd2VpZ2h0PSJib2xkIiBsZW5ndGhBZGp1c3Q9InNwYWNpbmciIHRleHRMZW5ndGg9IjciIHg9IjgwLjUiIHk9IjI2OC44MTI1Ij41PC90ZXh0Pjx0ZXh0IGZpbGw9IiMwMDAwMDAiIGZvbnQtZmFtaWx5PSJTYXJhYnVuIiBmb250LXNpemU9IjEzIiBsZW5ndGhBZGp1c3Q9InNwYWNpbmciIHRleHRMZW5ndGg9IjU2IiB4PSI5MS41IiB5PSIyNjguODEyNSI+JiMzNTg1OyYjMzYxOTsmIzM2Mjk7JiMzNTg1OyYjMzU4NjsmIzM2NTc7JiMzNjI5OyYjMzYxNzsmIzM2NDE7JiMzNjIxOzwvdGV4dD48cG9seWdvbiBmaWxsPSIjMTgxODE4IiBwb2ludHM9IjI5Ny41LDI5Ni4zNTE2LDMwNy41LDMwMC4zNTE2LDI5Ny41LDMwNC4zNTE2LDMwMS41LDMwMC4zNTE2IiBzdHlsZT0ic3Ryb2tlOiMxODE4MTg7c3Ryb2tlLXdpZHRoOjEuMDsiLz48bGluZSBzdHlsZT0ic3Ryb2tlOiMxODE4MTg7c3Ryb2tlLXdpZHRoOjEuMDsiIHgxPSI3My41IiB4Mj0iMzAzLjUiIHkxPSIzMDAuMzUxNiIgeTI9IjMwMC4zNTE2Ii8+PHRleHQgZmlsbD0iIzAwMDAwMCIgZm9udC1mYW1pbHk9IlNhcmFidW4iIGZvbnQtc2l6ZT0iMTMiIGZvbnQtd2VpZ2h0PSJib2xkIiBsZW5ndGhBZGp1c3Q9InNwYWNpbmciIHRleHRMZW5ndGg9IjciIHg9IjgwLjUiIHk9IjI5Ni43MjY2Ij42PC90ZXh0Pjx0ZXh0IGZpbGw9IiMwMDAwMDAiIGZvbnQtZmFtaWx5PSJTYXJhYnVuIiBmb250LXNpemU9IjEzIiBsZW5ndGhBZGp1c3Q9InNwYWNpbmciIHRleHRMZW5ndGg9IjE0NSIgeD0iOTEuNSIgeT0iMjk2LjcyNjYiPiYjMzU4NTsmIzM2MDQ7JiMzNjExOyYjMzY0MDsmIzM2NTY7JiMzNjE3OyAiQ3JlYXRlIEFjY291bnQiPC90ZXh0Pjxwb2x5Z29uIGZpbGw9IiMxODE4MTgiIHBvaW50cz0iNTY2LjUsMzI0LjI2NTYsNTc2LjUsMzI4LjI2NTYsNTY2LjUsMzMyLjI2NTYsNTcwLjUsMzI4LjI2NTYiIHN0eWxlPSJzdHJva2U6IzE4MTgxODtzdHJva2Utd2lkdGg6MS4wOyIvPjxsaW5lIHN0eWxlPSJzdHJva2U6IzE4MTgxODtzdHJva2Utd2lkdGg6MS4wOyIgeDE9IjMxOS41IiB4Mj0iNTcyLjUiIHkxPSIzMjguMjY1NiIgeTI9IjMyOC4yNjU2Ii8+PHRleHQgZmlsbD0iIzAwMDAwMCIgZm9udC1mYW1pbHk9IlNhcmFidW4iIGZvbnQtc2l6ZT0iMTMiIGZvbnQtd2VpZ2h0PSJib2xkIiBsZW5ndGhBZGp1c3Q9InNwYWNpbmciIHRleHRMZW5ndGg9IjciIHg9IjMyNi41IiB5PSIzMjQuNjQwNiI+NzwvdGV4dD48dGV4dCBmaWxsPSIjMDAwMDAwIiBmb250LWZhbWlseT0iU2FyYWJ1biIgZm9udC1zaXplPSIxMyIgbGVuZ3RoQWRqdXN0PSJzcGFjaW5nIiB0ZXh0TGVuZ3RoPSIxMzMiIHg9IjMzNy41IiB5PSIzMjQuNjQwNiI+JiMzNjI2OyYjMzY1NjsmIzM1OTE7JiMzNTg2OyYjMzY1NzsmIzM2Mjk7JiMzNjE3OyYjMzY0MTsmIzM2MjE7JiMzNjI2OyYjMzY1NjsmIzM2MjM7JiMzNjA5OyYjMzYwNTsmIzM2MzM7JiMzNjIzOyYjMzYwNzsmIzM2Mzc7JiMzNjU2OyYjMzYxMjsmIzM2NDE7JiMzNjU3OyYjMzY1MTsmIzM1OTQ7JiMzNjU3OyYjMzU4NTsmIzM2MTk7JiMzNjI5OyYjMzU4NTs8L3RleHQ+PHBvbHlnb24gZmlsbD0iIzE4MTgxOCIgcG9pbnRzPSI3NzMuNSwzNTIuMTc5Nyw3ODMuNSwzNTYuMTc5Nyw3NzMuNSwzNjAuMTc5Nyw3NzcuNSwzNTYuMTc5NyIgc3R5bGU9InN0cm9rZTojMTgxODE4O3N0cm9rZS13aWR0aDoxLjA7Ii8+PGxpbmUgc3R5bGU9InN0cm9rZTojMTgxODE4O3N0cm9rZS13aWR0aDoxLjA7IiB4MT0iNTg4LjUiIHgyPSI3NzkuNSIgeTE9IjM1Ni4xNzk3IiB5Mj0iMzU2LjE3OTciLz48dGV4dCBmaWxsPSIjMDAwMDAwIiBmb250LWZhbWlseT0iU2FyYWJ1biIgZm9udC1zaXplPSIxMyIgZm9udC13ZWlnaHQ9ImJvbGQiIGxlbmd0aEFkanVzdD0ic3BhY2luZyIgdGV4dExlbmd0aD0iNyIgeD0iNTk1LjUiIHk9IjM1Mi41NTQ3Ij44PC90ZXh0Pjx0ZXh0IGZpbGw9IiMwMDAwMDAiIGZvbnQtZmFtaWx5PSJTYXJhYnVuIiBmb250LXNpemU9IjEzIiBsZW5ndGhBZGp1c3Q9InNwYWNpbmciIHRleHRMZW5ndGg9IjYzIiB4PSI2MDYuNSIgeT0iMzUyLjU1NDciPiYjMzU4NjsmIzM2Mjk7JiMzNTg2OyYjMzY1NzsmIzM2Mjk7JiMzNjE3OyYjMzY0MTsmIzM2MjE7JiMzNjEyOyYjMzY0MTsmIzM2NTc7JiMzNjUxOyYjMzU5NDsmIzM2NTc7PC90ZXh0Pjxwb2x5Z29uIGZpbGw9IiMxODE4MTgiIHBvaW50cz0iNTk5LjUsMzgwLjA5MzgsNTg5LjUsMzg0LjA5MzgsNTk5LjUsMzg4LjA5MzgsNTk1LjUsMzg0LjA5MzgiIHN0eWxlPSJzdHJva2U6IzE4MTgxODtzdHJva2Utd2lkdGg6MS4wOyIvPjxsaW5lIHN0eWxlPSJzdHJva2U6IzE4MTgxODtzdHJva2Utd2lkdGg6MS4wO3N0cm9rZS1kYXNoYXJyYXk6Mi4wLDIuMDsiIHgxPSI1OTMuNSIgeDI9Ijc4OS41IiB5MT0iMzg0LjA5MzgiIHkyPSIzODQuMDkzOCIvPjx0ZXh0IGZpbGw9IiMwMDAwMDAiIGZvbnQtZmFtaWx5PSJTYXJhYnVuIiBmb250LXNpemU9IjEzIiBmb250LXdlaWdodD0iYm9sZCIgbGVuZ3RoQWRqdXN0PSJzcGFjaW5nIiB0ZXh0TGVuZ3RoPSI3IiB4PSI2MDUuNSIgeT0iMzgwLjQ2ODgiPjk8L3RleHQ+PHRleHQgZmlsbD0iIzAwMDAwMCIgZm9udC1mYW1pbHk9IlNhcmFidW4iIGZvbnQtc2l6ZT0iMTMiIGxlbmd0aEFkanVzdD0ic3BhY2luZyIgdGV4dExlbmd0aD0iNDkiIHg9IjYxNi41IiB5PSIzODAuNDY4OCI+JiMzNTg2OyYjMzY1NzsmIzM2Mjk7JiMzNjE3OyYjMzY0MTsmIzM2MjE7JiMzNjEyOyYjMzY0MTsmIzM2NTc7JiMzNjUxOyYjMzU5NDsmIzM2NTc7PC90ZXh0PjxsaW5lIHN0eWxlPSJzdHJva2U6IzE4MTgxODtzdHJva2Utd2lkdGg6MS4wOyIgeDE9IjU5My41IiB4Mj0iNjM1LjUiIHkxPSI0MTIuMDA3OCIgeTI9IjQxMi4wMDc4Ii8+PGxpbmUgc3R5bGU9InN0cm9rZTojMTgxODE4O3N0cm9rZS13aWR0aDoxLjA7IiB4MT0iNjM1LjUiIHgyPSI2MzUuNSIgeTE9IjQxMi4wMDc4IiB5Mj0iNDI1LjAwNzgiLz48bGluZSBzdHlsZT0ic3Ryb2tlOiMxODE4MTg7c3Ryb2tlLXdpZHRoOjEuMDsiIHgxPSI1OTQuNSIgeDI9IjYzNS41IiB5MT0iNDI1LjAwNzgiIHkyPSI0MjUuMDA3OCIvPjxwb2x5Z29uIGZpbGw9IiMxODE4MTgiIHBvaW50cz0iNjA0LjUsNDIxLjAwNzgsNTk0LjUsNDI1LjAwNzgsNjA0LjUsNDI5LjAwNzgsNjAwLjUsNDI1LjAwNzgiIHN0eWxlPSJzdHJva2U6IzE4MTgxODtzdHJva2Utd2lkdGg6MS4wOyIvPjx0ZXh0IGZpbGw9IiMwMDAwMDAiIGZvbnQtZmFtaWx5PSJTYXJhYnVuIiBmb250LXNpemU9IjEzIiBmb250LXdlaWdodD0iYm9sZCIgbGVuZ3RoQWRqdXN0PSJzcGFjaW5nIiB0ZXh0TGVuZ3RoPSIxNCIgeD0iNjAwLjUiIHk9IjQwOC4zODI4Ij4xMDwvdGV4dD48dGV4dCBmaWxsPSIjMDAwMDAwIiBmb250LWZhbWlseT0iU2FyYWJ1biIgZm9udC1zaXplPSIxMyIgbGVuZ3RoQWRqdXN0PSJzcGFjaW5nIiB0ZXh0TGVuZ3RoPSIxMzMiIHg9IjYxOC41IiB5PSI0MDguMzgyOCI+JiMzNjA1OyYjMzYxOTsmIzM2MjM7JiMzNTkyOyYjMzYyNjsmIzM2Mjk7JiMzNjEwOyYjMzU4NjsmIzM2NTc7JiMzNjI5OyYjMzYxNzsmIzM2NDE7JiMzNjIxOyYjMzYwNzsmIzM2Mzc7JiMzNjU2OyYjMzYxMjsmIzM2NDE7JiMzNjU3OyYjMzY1MTsmIzM1OTQ7JiMzNjU3OyYjMzU4NTsmIzM2MTk7JiMzNjI5OyYjMzU4NTs8L3RleHQ+PHBhdGggZD0iTTI1OC41LDQ3MC4wMDc4IEwzMzguNSw0NzAuMDA3OCBMMzM4LjUsNDc1LjkyMTkgTDMyOC41LDQ4NS45MjE5IEwyNTguNSw0ODUuOTIxOSBMMjU4LjUsNDcwLjAwNzggIiBmaWxsPSIjRUVFRUVFIiBzdHlsZT0ic3Ryb2tlOiMwMDAwMDA7c3Ryb2tlLXdpZHRoOjEuNTsiLz48cmVjdCBmaWxsPSJub25lIiBoZWlnaHQ9IjEwMS43NDIyIiBzdHlsZT0ic3Ryb2tlOiMwMDAwMDA7c3Ryb2tlLXdpZHRoOjEuNTsiIHdpZHRoPSI1ODAuNSIgeD0iMjU4LjUiIHk9IjQ3MC4wMDc4Ii8+PHRleHQgZmlsbD0iIzAwMDAwMCIgZm9udC1mYW1pbHk9IlNhcmFidW4iIGZvbnQtc2l6ZT0iMTMiIGZvbnQtd2VpZ2h0PSJib2xkIiBsZW5ndGhBZGp1c3Q9InNwYWNpbmciIHRleHRMZW5ndGg9IjM1IiB4PSIyNzMuNSIgeT0iNDgzLjI5NjkiPmJyZWFrPC90ZXh0Pjx0ZXh0IGZpbGw9IiMwMDAwMDAiIGZvbnQtZmFtaWx5PSJTYXJhYnVuIiBmb250LXNpemU9IjExIiBmb250LXdlaWdodD0iYm9sZCIgbGVuZ3RoQWRqdXN0PSJzcGFjaW5nIiB0ZXh0TGVuZ3RoPSI5NCIgeD0iMzUzLjUiIHk9IjQ4Mi40MDYzIj5bJiMzNTg2OyYjMzY1NzsmIzM2Mjk7JiMzNjE3OyYjMzY0MTsmIzM2MjE7JiMzNjA3OyYjMzYzNzsmIzM2NTY7JiMzNTg1OyYjMzYxOTsmIzM2Mjk7JiMzNTg1OyYjMzYwNjsmIzM2NDE7JiMzNTg1OyYjMzYwNTsmIzM2NTc7JiMzNjI5OyYjMzU5MTtdPC90ZXh0PjxsaW5lIHN0eWxlPSJzdHJva2U6IzE4MTgxODtzdHJva2Utd2lkdGg6MS4wOyIgeDE9Ijc4My41IiB4Mj0iNzczLjUiIHkxPSI1MDUuODM1OSIgeTI9IjUwMS44MzU5Ii8+PGxpbmUgc3R5bGU9InN0cm9rZTojMTgxODE4O3N0cm9rZS13aWR0aDoxLjA7IiB4MT0iNzgzLjUiIHgyPSI3NzMuNSIgeTE9IjUwNS44MzU5IiB5Mj0iNTA5LjgzNTkiLz48bGluZSBzdHlsZT0ic3Ryb2tlOiMxODE4MTg7c3Ryb2tlLXdpZHRoOjEuMDsiIHgxPSI1ODguNSIgeDI9Ijc4NC41IiB5MT0iNTA1LjgzNTkiIHkyPSI1MDUuODM1OSIvPjx0ZXh0IGZpbGw9IiMwMDAwMDAiIGZvbnQtZmFtaWx5PSJTYXJhYnVuIiBmb250LXNpemU9IjEzIiBmb250LXdlaWdodD0iYm9sZCIgbGVuZ3RoQWRqdXN0PSJzcGFjaW5nIiB0ZXh0TGVuZ3RoPSIxNCIgeD0iNTk1LjUiIHk9IjUwMi4yMTA5Ij4xMTwvdGV4dD48dGV4dCBmaWxsPSIjMDAwMDAwIiBmb250LWZhbWlseT0iU2FyYWJ1biIgZm9udC1zaXplPSIxMyIgbGVuZ3RoQWRqdXN0PSJzcGFjaW5nIiB0ZXh0TGVuZ3RoPSI3NiIgeD0iNjEzLjUiIHk9IjUwMi4yMTA5Ij4mIzM2NDg7JiMzNTg2OyYjMzYzNzsmIzM2MTg7JiMzNjA5OyYjMzU4NjsmIzM2NTc7JiMzNjI5OyYjMzYxNzsmIzM2NDE7JiMzNjIxOyYjMzYxMjsmIzM2NDE7JiMzNjU3OyYjMzY1MTsmIzM1OTQ7JiMzNjU3OzwvdGV4dD48cG9seWdvbiBmaWxsPSIjMTgxODE4IiBwb2ludHM9IjMzMC41LDU1OS43NSwzMjAuNSw1NjMuNzUsMzMwLjUsNTY3Ljc1LDMyNi41LDU2My43NSIgc3R5bGU9InN0cm9rZTojMTgxODE4O3N0cm9rZS13aWR0aDoxLjA7Ii8+PGxpbmUgc3R5bGU9InN0cm9rZTojMTgxODE4O3N0cm9rZS13aWR0aDoxLjA7c3Ryb2tlLWRhc2hhcnJheToyLjAsMi4wOyIgeDE9IjMyNC41IiB4Mj0iNTgyLjUiIHkxPSI1NjMuNzUiIHkyPSI1NjMuNzUiLz48dGV4dCBmaWxsPSIjMDAwMDAwIiBmb250LWZhbWlseT0iU2FyYWJ1biIgZm9udC1zaXplPSIxMyIgZm9udC13ZWlnaHQ9ImJvbGQiIGxlbmd0aEFkanVzdD0ic3BhY2luZyIgdGV4dExlbmd0aD0iMTQiIHg9IjMzNi41IiB5PSI1NjAuMTI1Ij4xMjwvdGV4dD48dGV4dCBmaWxsPSIjMDAwMDAwIiBmb250LWZhbWlseT0iU2FyYWJ1biIgZm9udC1zaXplPSIxMyIgbGVuZ3RoQWRqdXN0PSJzcGFjaW5nIiB0ZXh0TGVuZ3RoPSIxMzkiIHg9IjM1NC41IiB5PSI1NjAuMTI1Ij4mIzM2Mjc7JiMzNjA5OyYjMzY1NzsmIzM2MzQ7JiMzNjE1OyYjMzYyOTsmIzM2MTk7JiMzNjYwOyYjMzYxNzsmIzM2MjE7JiMzNTkxOyYjMzU5NDsmIzM2Mzk7JiMzNjU2OyYjMzYyOTsmIzM2NDg7JiMzNTg2OyYjMzY1NzsmIzM2MzQ7JiMzNjUxOyYjMzU5NDsmIzM2NTc7JiMzNjE5OyYjMzYzMjsmIzM2MTA7JiMzNjEwOzwvdGV4dD48cG9seWdvbiBmaWxsPSIjMTgxODE4IiBwb2ludHM9IjMzMC41LDU5NC42NjQxLDMyMC41LDU5OC42NjQxLDMzMC41LDYwMi42NjQxLDMyNi41LDU5OC42NjQxIiBzdHlsZT0ic3Ryb2tlOiMxODE4MTg7c3Ryb2tlLXdpZHRoOjEuMDsiLz48bGluZSBzdHlsZT0ic3Ryb2tlOiMxODE4MTg7c3Ryb2tlLXdpZHRoOjEuMDtzdHJva2UtZGFzaGFycmF5OjIuMCwyLjA7IiB4MT0iMzI0LjUiIHgyPSI1ODIuNSIgeTE9IjU5OC42NjQxIiB5Mj0iNTk4LjY2NDEiLz48dGV4dCBmaWxsPSIjMDAwMDAwIiBmb250LWZhbWlseT0iU2FyYWJ1biIgZm9udC1zaXplPSIxMyIgZm9udC13ZWlnaHQ9ImJvbGQiIGxlbmd0aEFkanVzdD0ic3BhY2luZyIgdGV4dExlbmd0aD0iMTQiIHg9IjMzNi41IiB5PSI1OTUuMDM5MSI+MTM8L3RleHQ+PHRleHQgZmlsbD0iIzAwMDAwMCIgZm9udC1mYW1pbHk9IlNhcmFidW4iIGZvbnQtc2l6ZT0iMTMiIGxlbmd0aEFkanVzdD0ic3BhY2luZyIgdGV4dExlbmd0aD0iMjIyIiB4PSIzNTQuNSIgeT0iNTk1LjAzOTEiPiYjMzYyNjsmIzM2MzM7JiMzNjU2OyYjMzU5MTsmIzM2NTE7JiMzNjI3OyYjMzY1NzsmIzM2NDk7JiMzNTkyOyYjMzY1NzsmIzM1OTE7JiMzNjQ4OyYjMzYwNTsmIzM2Mzk7JiMzNjI5OyYjMzYwOTsmIzM2MTI7JiMzNjQxOyYjMzY1NzsmIzM2NTE7JiMzNTk0OyYjMzY1NzsmIzM2NTE7JiMzNjI3OyYjMzY1NzsmIzM2MDU7JiMzNjE5OyYjMzYyMzsmIzM1OTI7JiMzNjI2OyYjMzYyOTsmIzM2MTA7JiMzNTg2OyYjMzY1NzsmIzM2Mjk7JiMzNjE3OyYjMzY0MTsmIzM2MjE7JiMzNjA3OyYjMzYzNzsmIzM2NTY7JiMzNTg1OyYjMzYxOTsmIzM2Mjk7JiMzNTg1OzwvdGV4dD48cG9seWdvbiBmaWxsPSIjMTgxODE4IiBwb2ludHM9Ijg0LjUsNjIyLjU3ODEsNzQuNSw2MjYuNTc4MSw4NC41LDYzMC41NzgxLDgwLjUsNjI2LjU3ODEiIHN0eWxlPSJzdHJva2U6IzE4MTgxODtzdHJva2Utd2lkdGg6MS4wOyIvPjxsaW5lIHN0eWxlPSJzdHJva2U6IzE4MTgxODtzdHJva2Utd2lkdGg6MS4wO3N0cm9rZS1kYXNoYXJyYXk6Mi4wLDIuMDsiIHgxPSI3OC41IiB4Mj0iMzA4LjUiIHkxPSI2MjYuNTc4MSIgeTI9IjYyNi41NzgxIi8+PHRleHQgZmlsbD0iIzAwMDAwMCIgZm9udC1mYW1pbHk9IlNhcmFidW4iIGZvbnQtc2l6ZT0iMTMiIGZvbnQtd2VpZ2h0PSJib2xkIiBsZW5ndGhBZGp1c3Q9InNwYWNpbmciIHRleHRMZW5ndGg9IjE0IiB4PSI5MC41IiB5PSI2MjIuOTUzMSI+MTQ8L3RleHQ+PHRleHQgZmlsbD0iIzAwMDAwMCIgZm9udC1mYW1pbHk9IlNhcmFidW4iIGZvbnQtc2l6ZT0iMTMiIGxlbmd0aEFkanVzdD0ic3BhY2luZyIgdGV4dExlbmd0aD0iMTk0IiB4PSIxMDguNSIgeT0iNjIyLjk1MzEiPiYjMzY0OTsmIzM1OTI7JiMzNjU3OyYjMzU5MTsmIzM2NDg7JiMzNjA1OyYjMzYzOTsmIzM2Mjk7JiMzNjA5OyYjMzYxMjsmIzM2NDE7JiMzNjU3OyYjMzY1MTsmIzM1OTQ7JiMzNjU3OyYjMzY1MTsmIzM2Mjc7JiMzNjU3OyYjMzYwNTsmIzM2MTk7JiMzNjIzOyYjMzU5MjsmIzM2MjY7JiMzNjI5OyYjMzYxMDsmIzM1ODY7JiMzNjU3OyYjMzYyOTsmIzM2MTc7JiMzNjQxOyYjMzYyMTsmIzM2MDc7JiMzNjM3OyYjMzY1NjsmIzM1ODU7JiMzNjE5OyYjMzYyOTsmIzM1ODU7PC90ZXh0Pjxwb2x5Z29uIGZpbGw9IiMxODE4MTgiIHBvaW50cz0iODQuNSw2NTcuNDkyMiw3NC41LDY2MS40OTIyLDg0LjUsNjY1LjQ5MjIsODAuNSw2NjEuNDkyMiIgc3R5bGU9InN0cm9rZTojMTgxODE4O3N0cm9rZS13aWR0aDoxLjA7Ii8+PGxpbmUgc3R5bGU9InN0cm9rZTojMTgxODE4O3N0cm9rZS13aWR0aDoxLjA7c3Ryb2tlLWRhc2hhcnJheToyLjAsMi4wOyIgeDE9Ijc4LjUiIHgyPSIzMDguNSIgeTE9IjY2MS40OTIyIiB5Mj0iNjYxLjQ5MjIiLz48dGV4dCBmaWxsPSIjMDAwMDAwIiBmb250LWZhbWlseT0iU2FyYWJ1biIgZm9udC1zaXplPSIxMyIgZm9udC13ZWlnaHQ9ImJvbGQiIGxlbmd0aEFkanVzdD0ic3BhY2luZyIgdGV4dExlbmd0aD0iMTQiIHg9IjkwLjUiIHk9IjY1Ny44NjcyIj4xNTwvdGV4dD48dGV4dCBmaWxsPSIjMDAwMDAwIiBmb250LWZhbWlseT0iU2FyYWJ1biIgZm9udC1zaXplPSIxMyIgbGVuZ3RoQWRqdXN0PSJzcGFjaW5nIiB0ZXh0TGVuZ3RoPSIxNDUiIHg9IjEwOC41IiB5PSI2NTcuODY3MiI+JiMzNjQ5OyYjMzYyNjsmIzM2MDQ7JiMzNTkxOyYjMzYxNTsmIzM2Mjk7JiMzNjE5OyYjMzY2MDsmIzM2MTc7JiMzNjIxOyYjMzU5MTsmIzM1OTQ7JiMzNjM5OyYjMzY1NjsmIzM2Mjk7JiMzNjQ4OyYjMzU4NjsmIzM2NTc7JiMzNjM0OyYjMzY1MTsmIzM1OTQ7JiMzNjU3OyYjMzYxOTsmIzM2MzI7JiMzNjEwOyYjMzYxMDs8L3RleHQ+PHBhdGggZD0iTTIwLDY3Ni40OTIyIEw5Miw2NzYuNDkyMiBMOTIsNjgyLjQwNjMgTDgyLDY5Mi40MDYzIEwyMCw2OTIuNDA2MyBMMjAsNjc2LjQ5MjIgIiBmaWxsPSIjRUVFRUVFIiBzdHlsZT0ic3Ryb2tlOiMwMDAwMDA7c3Ryb2tlLXdpZHRoOjEuNTsiLz48cmVjdCBmaWxsPSJub25lIiBoZWlnaHQ9IjM0MC4wNTQ3IiBzdHlsZT0ic3Ryb2tlOiMwMDAwMDA7c3Ryb2tlLXdpZHRoOjEuNTsiIHdpZHRoPSI4MTkiIHg9IjIwIiB5PSI2NzYuNDkyMiIvPjx0ZXh0IGZpbGw9IiMwMDAwMDAiIGZvbnQtZmFtaWx5PSJTYXJhYnVuIiBmb250LXNpemU9IjEzIiBmb250LXdlaWdodD0iYm9sZCIgbGVuZ3RoQWRqdXN0PSJzcGFjaW5nIiB0ZXh0TGVuZ3RoPSIyNyIgeD0iMzUiIHk9IjY4OS43ODEzIj5sb29wPC90ZXh0Pjx0ZXh0IGZpbGw9IiMwMDAwMDAiIGZvbnQtZmFtaWx5PSJTYXJhYnVuIiBmb250LXNpemU9IjExIiBmb250LXdlaWdodD0iYm9sZCIgbGVuZ3RoQWRqdXN0PSJzcGFjaW5nIiB0ZXh0TGVuZ3RoPSI5OCIgeD0iMTA3IiB5PSI2ODguODkwNiI+WyYjMzYxODsmIzM2Mzk7JiMzNjA5OyYjMzYxODsmIzM2MzM7JiMzNjA5OyYjMzYwNTsmIzM2MzM7JiMzNjIzOyYjMzYwNTsmIzM2MDk7JiMzNjUyOyYjMzYxNzsmIzM2NTY7JiMzNjI2OyYjMzYzNTsmIzM2NDg7JiMzNjE5OyYjMzY1NTsmIzM1OTI7XTwvdGV4dD48cG9seWdvbiBmaWxsPSIjMTgxODE4IiBwb2ludHM9IjI5Ny41LDcwOC4zMjAzLDMwNy41LDcxMi4zMjAzLDI5Ny41LDcxNi4zMjAzLDMwMS41LDcxMi4zMjAzIiBzdHlsZT0ic3Ryb2tlOiMxODE4MTg7c3Ryb2tlLXdpZHRoOjEuMDsiLz48bGluZSBzdHlsZT0ic3Ryb2tlOiMxODE4MTg7c3Ryb2tlLXdpZHRoOjEuMDsiIHgxPSI3My41IiB4Mj0iMzAzLjUiIHkxPSI3MTIuMzIwMyIgeTI9IjcxMi4zMjAzIi8+PHRleHQgZmlsbD0iIzAwMDAwMCIgZm9udC1mYW1pbHk9IlNhcmFidW4iIGZvbnQtc2l6ZT0iMTMiIGZvbnQtd2VpZ2h0PSJib2xkIiBsZW5ndGhBZGp1c3Q9InNwYWNpbmciIHRleHRMZW5ndGg9IjE0IiB4PSI4MC41IiB5PSI3MDguNjk1MyI+MTY8L3RleHQ+PHRleHQgZmlsbD0iIzAwMDAwMCIgZm9udC1mYW1pbHk9IlNhcmFidW4iIGZvbnQtc2l6ZT0iMTMiIGxlbmd0aEFkanVzdD0ic3BhY2luZyIgdGV4dExlbmd0aD0iNTYiIHg9Ijk4LjUiIHk9IjcwOC42OTUzIj4mIzM1ODU7JiMzNjE5OyYjMzYyOTsmIzM1ODU7JiMzNTg2OyYjMzY1NzsmIzM2Mjk7JiMzNjE3OyYjMzY0MTsmIzM2MjE7PC90ZXh0Pjxwb2x5Z29uIGZpbGw9IiMxODE4MTgiIHBvaW50cz0iMjk3LjUsNzM2LjIzNDQsMzA3LjUsNzQwLjIzNDQsMjk3LjUsNzQ0LjIzNDQsMzAxLjUsNzQwLjIzNDQiIHN0eWxlPSJzdHJva2U6IzE4MTgxODtzdHJva2Utd2lkdGg6MS4wOyIvPjxsaW5lIHN0eWxlPSJzdHJva2U6IzE4MTgxODtzdHJva2Utd2lkdGg6MS4wOyIgeDE9IjczLjUiIHgyPSIzMDMuNSIgeTE9Ijc0MC4yMzQ0IiB5Mj0iNzQwLjIzNDQiLz48dGV4dCBmaWxsPSIjMDAwMDAwIiBmb250LWZhbWlseT0iU2FyYWJ1biIgZm9udC1zaXplPSIxMyIgZm9udC13ZWlnaHQ9ImJvbGQiIGxlbmd0aEFkanVzdD0ic3BhY2luZyIgdGV4dExlbmd0aD0iMTQiIHg9IjgwLjUiIHk9IjczNi42MDk0Ij4xNzwvdGV4dD48dGV4dCBmaWxsPSIjMDAwMDAwIiBmb250LWZhbWlseT0iU2FyYWJ1biIgZm9udC1zaXplPSIxMyIgbGVuZ3RoQWRqdXN0PSJzcGFjaW5nIiB0ZXh0TGVuZ3RoPSI5NiIgeD0iOTguNSIgeT0iNzM2LjYwOTQiPiYjMzU4NTsmIzM2MDQ7JiMzNjExOyYjMzY0MDsmIzM2NTY7JiMzNjE3OyAiU2lnbiBJbiI8L3RleHQ+PHBvbHlnb24gZmlsbD0iIzE4MTgxOCIgcG9pbnRzPSI1NjYuNSw3NjQuMTQ4NCw1NzYuNSw3NjguMTQ4NCw1NjYuNSw3NzIuMTQ4NCw1NzAuNSw3NjguMTQ4NCIgc3R5bGU9InN0cm9rZTojMTgxODE4O3N0cm9rZS13aWR0aDoxLjA7Ii8+PGxpbmUgc3R5bGU9InN0cm9rZTojMTgxODE4O3N0cm9rZS13aWR0aDoxLjA7IiB4MT0iMzE5LjUiIHgyPSI1NzIuNSIgeTE9Ijc2OC4xNDg0IiB5Mj0iNzY4LjE0ODQiLz48dGV4dCBmaWxsPSIjMDAwMDAwIiBmb250LWZhbWlseT0iU2FyYWJ1biIgZm9udC1zaXplPSIxMyIgZm9udC13ZWlnaHQ9ImJvbGQiIGxlbmd0aEFkanVzdD0ic3BhY2luZyIgdGV4dExlbmd0aD0iMTQiIHg9IjMyNi41IiB5PSI3NjQuNTIzNCI+MTg8L3RleHQ+PHRleHQgZmlsbD0iIzAwMDAwMCIgZm9udC1mYW1pbHk9IlNhcmFidW4iIGZvbnQtc2l6ZT0iMTMiIGxlbmd0aEFkanVzdD0ic3BhY2luZyIgdGV4dExlbmd0aD0iMTE4IiB4PSIzNDQuNSIgeT0iNzY0LjUyMzQiPiYjMzYyNjsmIzM2NTY7JiMzNTkxOyYjMzU4NjsmIzM2NTc7JiMzNjI5OyYjMzYxNzsmIzM2NDE7JiMzNjIxOyYjMzU4NTsmIzM2MzQ7JiMzNjE5OyYjMzY0ODsmIzM1ODY7JiMzNjU3OyYjMzYzNDsmIzM2MjY7JiMzNjQxOyYjMzY1NjsmIzM2MTk7JiMzNjMyOyYjMzYxMDsmIzM2MTA7PC90ZXh0Pjxwb2x5Z29uIGZpbGw9IiMxODE4MTgiIHBvaW50cz0iNzczLjUsNzkyLjA2MjUsNzgzLjUsNzk2LjA2MjUsNzczLjUsODAwLjA2MjUsNzc3LjUsNzk2LjA2MjUiIHN0eWxlPSJzdHJva2U6IzE4MTgxODtzdHJva2Utd2lkdGg6MS4wOyIvPjxsaW5lIHN0eWxlPSJzdHJva2U6IzE4MTgxODtzdHJva2Utd2lkdGg6MS4wOyIgeDE9IjU4OC41IiB4Mj0iNzc5LjUiIHkxPSI3OTYuMDYyNSIgeTI9Ijc5Ni4wNjI1Ii8+PHRleHQgZmlsbD0iIzAwMDAwMCIgZm9udC1mYW1pbHk9IlNhcmFidW4iIGZvbnQtc2l6ZT0iMTMiIGZvbnQtd2VpZ2h0PSJib2xkIiBsZW5ndGhBZGp1c3Q9InNwYWNpbmciIHRleHRMZW5ndGg9IjE0IiB4PSI1OTUuNSIgeT0iNzkyLjQzNzUiPjE5PC90ZXh0Pjx0ZXh0IGZpbGw9IiMwMDAwMDAiIGZvbnQtZmFtaWx5PSJTYXJhYnVuIiBmb250LXNpemU9IjEzIiBsZW5ndGhBZGp1c3Q9InNwYWNpbmciIHRleHRMZW5ndGg9IjE2MCIgeD0iNjEzLjUiIHk9Ijc5Mi40Mzc1Ij4mIzM1ODY7JiMzNjI5OyYjMzU4NjsmIzM2NTc7JiMzNjI5OyYjMzYxNzsmIzM2NDE7JiMzNjIxOyYjMzU4NTsmIzM2MzQ7JiMzNjE5OyYjMzY0ODsmIzM1ODY7JiMzNjU3OyYjMzYzNDsmIzM2MjY7JiMzNjQxOyYjMzY1NjsmIzM2MTk7JiMzNjMyOyYjMzYxMDsmIzM2MTA7JiMzNTg2OyYjMzYyOTsmIzM1OTE7JiMzNjEyOyYjMzY0MTsmIzM2NTc7JiMzNjUxOyYjMzU5NDsmIzM2NTc7PC90ZXh0Pjxwb2x5Z29uIGZpbGw9IiMxODE4MTgiIHBvaW50cz0iNTk5LjUsODE5Ljk3NjYsNTg5LjUsODIzLjk3NjYsNTk5LjUsODI3Ljk3NjYsNTk1LjUsODIzLjk3NjYiIHN0eWxlPSJzdHJva2U6IzE4MTgxODtzdHJva2Utd2lkdGg6MS4wOyIvPjxsaW5lIHN0eWxlPSJzdHJva2U6IzE4MTgxODtzdHJva2Utd2lkdGg6MS4wO3N0cm9rZS1kYXNoYXJyYXk6Mi4wLDIuMDsiIHgxPSI1OTMuNSIgeDI9Ijc4OS41IiB5MT0iODIzLjk3NjYiIHkyPSI4MjMuOTc2NiIvPjx0ZXh0IGZpbGw9IiMwMDAwMDAiIGZvbnQtZmFtaWx5PSJTYXJhYnVuIiBmb250LXNpemU9IjEzIiBmb250LXdlaWdodD0iYm9sZCIgbGVuZ3RoQWRqdXN0PSJzcGFjaW5nIiB0ZXh0TGVuZ3RoPSIxNCIgeD0iNjA1LjUiIHk9IjgyMC4zNTE2Ij4yMDwvdGV4dD48dGV4dCBmaWxsPSIjMDAwMDAwIiBmb250LWZhbWlseT0iU2FyYWJ1biIgZm9udC1zaXplPSIxMyIgbGVuZ3RoQWRqdXN0PSJzcGFjaW5nIiB0ZXh0TGVuZ3RoPSIxNDYiIHg9IjYyMy41IiB5PSI4MjAuMzUxNiI+JiMzNTg2OyYjMzY1NzsmIzM2Mjk7JiMzNjE3OyYjMzY0MTsmIzM2MjE7JiMzNTg1OyYjMzYzNDsmIzM2MTk7JiMzNjQ4OyYjMzU4NjsmIzM2NTc7JiMzNjM0OyYjMzYyNjsmIzM2NDE7JiMzNjU2OyYjMzYxOTsmIzM2MzI7JiMzNjEwOyYjMzYxMDsmIzM1ODY7JiMzNjI5OyYjMzU5MTsmIzM2MTI7JiMzNjQxOyYjMzY1NzsmIzM2NTE7JiMzNTk0OyYjMzY1Nzs8L3RleHQ+PGxpbmUgc3R5bGU9InN0cm9rZTojMTgxODE4O3N0cm9rZS13aWR0aDoxLjA7IiB4MT0iNTkzLjUiIHgyPSI2MzUuNSIgeTE9Ijg1MS44OTA2IiB5Mj0iODUxLjg5MDYiLz48bGluZSBzdHlsZT0ic3Ryb2tlOiMxODE4MTg7c3Ryb2tlLXdpZHRoOjEuMDsiIHgxPSI2MzUuNSIgeDI9IjYzNS41IiB5MT0iODUxLjg5MDYiIHkyPSI4NjQuODkwNiIvPjxsaW5lIHN0eWxlPSJzdHJva2U6IzE4MTgxODtzdHJva2Utd2lkdGg6MS4wOyIgeDE9IjU5NC41IiB4Mj0iNjM1LjUiIHkxPSI4NjQuODkwNiIgeTI9Ijg2NC44OTA2Ii8+PHBvbHlnb24gZmlsbD0iIzE4MTgxOCIgcG9pbnRzPSI2MDQuNSw4NjAuODkwNiw1OTQuNSw4NjQuODkwNiw2MDQuNSw4NjguODkwNiw2MDAuNSw4NjQuODkwNiIgc3R5bGU9InN0cm9rZTojMTgxODE4O3N0cm9rZS13aWR0aDoxLjA7Ii8+PHRleHQgZmlsbD0iIzAwMDAwMCIgZm9udC1mYW1pbHk9IlNhcmFidW4iIGZvbnQtc2l6ZT0iMTMiIGZvbnQtd2VpZ2h0PSJib2xkIiBsZW5ndGhBZGp1c3Q9InNwYWNpbmciIHRleHRMZW5ndGg9IjE0IiB4PSI2MDAuNSIgeT0iODQ4LjI2NTYiPjIxPC90ZXh0Pjx0ZXh0IGZpbGw9IiMwMDAwMDAiIGZvbnQtZmFtaWx5PSJTYXJhYnVuIiBmb250LXNpemU9IjEzIiBsZW5ndGhBZGp1c3Q9InNwYWNpbmciIHRleHRMZW5ndGg9IjEzMyIgeD0iNjE4LjUiIHk9Ijg0OC4yNjU2Ij4mIzM2MDU7JiMzNjE5OyYjMzYyMzsmIzM1OTI7JiMzNjI2OyYjMzYyOTsmIzM2MTA7JiMzNTg2OyYjMzY1NzsmIzM2Mjk7JiMzNjE3OyYjMzY0MTsmIzM2MjE7JiMzNjA3OyYjMzYzNzsmIzM2NTY7JiMzNjEyOyYjMzY0MTsmIzM2NTc7JiMzNjUxOyYjMzU5NDsmIzM2NTc7JiMzNTg1OyYjMzYxOTsmIzM2Mjk7JiMzNTg1OzwvdGV4dD48cGF0aCBkPSJNMjU4LjUsOTA5Ljg5MDYgTDMzOC41LDkwOS44OTA2IEwzMzguNSw5MTUuODA0NyBMMzI4LjUsOTI1LjgwNDcgTDI1OC41LDkyNS44MDQ3IEwyNTguNSw5MDkuODkwNiAiIGZpbGw9IiNFRUVFRUUiIHN0eWxlPSJzdHJva2U6IzAwMDAwMDtzdHJva2Utd2lkdGg6MS41OyIvPjxyZWN0IGZpbGw9Im5vbmUiIGhlaWdodD0iNDMuODI4MSIgc3R5bGU9InN0cm9rZTojMDAwMDAwO3N0cm9rZS13aWR0aDoxLjU7IiB3aWR0aD0iMzc3IiB4PSIyNTguNSIgeT0iOTA5Ljg5MDYiLz48dGV4dCBmaWxsPSIjMDAwMDAwIiBmb250LWZhbWlseT0iU2FyYWJ1biIgZm9udC1zaXplPSIxMyIgZm9udC13ZWlnaHQ9ImJvbGQiIGxlbmd0aEFkanVzdD0ic3BhY2luZyIgdGV4dExlbmd0aD0iMzUiIHg9IjI3My41IiB5PSI5MjMuMTc5NyI+YnJlYWs8L3RleHQ+PHRleHQgZmlsbD0iIzAwMDAwMCIgZm9udC1mYW1pbHk9IlNhcmFidW4iIGZvbnQtc2l6ZT0iMTEiIGZvbnQtd2VpZ2h0PSJib2xkIiBsZW5ndGhBZGp1c3Q9InNwYWNpbmciIHRleHRMZW5ndGg9Ijg3IiB4PSIzNTMuNSIgeT0iOTIyLjI4OTEiPlsmIzM2MTg7JiMzNjM5OyYjMzYwOTsmIzM2MTg7JiMzNjMzOyYjMzYwOTsmIzM2MDU7JiMzNjMzOyYjMzYyMzsmIzM2MDU7JiMzNjA5OyYjMzYyNjsmIzM2MzU7JiMzNjQ4OyYjMzYxOTsmIzM2NTU7JiMzNTkyO108L3RleHQ+PHBvbHlnb24gZmlsbD0iIzE4MTgxOCIgcG9pbnRzPSIzMzAuNSw5NDEuNzE4OCwzMjAuNSw5NDUuNzE4OCwzMzAuNSw5NDkuNzE4OCwzMjYuNSw5NDUuNzE4OCIgc3R5bGU9InN0cm9rZTojMTgxODE4O3N0cm9rZS13aWR0aDoxLjA7Ii8+PGxpbmUgc3R5bGU9InN0cm9rZTojMTgxODE4O3N0cm9rZS13aWR0aDoxLjA7c3Ryb2tlLWRhc2hhcnJheToyLjAsMi4wOyIgeDE9IjMyNC41IiB4Mj0iNTgyLjUiIHkxPSI5NDUuNzE4OCIgeTI9Ijk0NS43MTg4Ii8+PHRleHQgZmlsbD0iIzAwMDAwMCIgZm9udC1mYW1pbHk9IlNhcmFidW4iIGZvbnQtc2l6ZT0iMTMiIGZvbnQtd2VpZ2h0PSJib2xkIiBsZW5ndGhBZGp1c3Q9InNwYWNpbmciIHRleHRMZW5ndGg9IjE0IiB4PSIzMzYuNSIgeT0iOTQyLjA5MzgiPjIyPC90ZXh0Pjx0ZXh0IGZpbGw9IiMwMDAwMDAiIGZvbnQtZmFtaWx5PSJTYXJhYnVuIiBmb250LXNpemU9IjEzIiBsZW5ndGhBZGp1c3Q9InNwYWNpbmciIHRleHRMZW5ndGg9IjQyIiB4PSIzNTQuNSIgeT0iOTQyLjA5MzgiPiYjMzYyNzsmIzM2MDk7JiMzNjU3OyYjMzYzNDsmIzM2Mjc7JiMzNjIxOyYjMzYzMzsmIzM1ODU7PC90ZXh0Pjxwb2x5Z29uIGZpbGw9IiMxODE4MTgiIHBvaW50cz0iMzMwLjUsOTc2LjYzMjgsMzIwLjUsOTgwLjYzMjgsMzMwLjUsOTg0LjYzMjgsMzI2LjUsOTgwLjYzMjgiIHN0eWxlPSJzdHJva2U6IzE4MTgxODtzdHJva2Utd2lkdGg6MS4wOyIvPjxsaW5lIHN0eWxlPSJzdHJva2U6IzE4MTgxODtzdHJva2Utd2lkdGg6MS4wO3N0cm9rZS1kYXNoYXJyYXk6Mi4wLDIuMDsiIHgxPSIzMjQuNSIgeDI9IjU4Mi41IiB5MT0iOTgwLjYzMjgiIHkyPSI5ODAuNjMyOCIvPjx0ZXh0IGZpbGw9IiMwMDAwMDAiIGZvbnQtZmFtaWx5PSJTYXJhYnVuIiBmb250LXNpemU9IjEzIiBmb250LXdlaWdodD0iYm9sZCIgbGVuZ3RoQWRqdXN0PSJzcGFjaW5nIiB0ZXh0TGVuZ3RoPSIxNCIgeD0iMzM2LjUiIHk9Ijk3Ny4wMDc4Ij4yMzwvdGV4dD48dGV4dCBmaWxsPSIjMDAwMDAwIiBmb250LWZhbWlseT0iU2FyYWJ1biIgZm9udC1zaXplPSIxMyIgbGVuZ3RoQWRqdXN0PSJzcGFjaW5nIiB0ZXh0TGVuZ3RoPSIyMjIiIHg9IjM1NC41IiB5PSI5NzcuMDA3OCI+JiMzNjI2OyYjMzYzMzsmIzM2NTY7JiMzNTkxOyYjMzY1MTsmIzM2Mjc7JiMzNjU3OyYjMzY0OTsmIzM1OTI7JiMzNjU3OyYjMzU5MTsmIzM2NDg7JiMzNjA1OyYjMzYzOTsmIzM2Mjk7JiMzNjA5OyYjMzYxMjsmIzM2NDE7JiMzNjU3OyYjMzY1MTsmIzM1OTQ7JiMzNjU3OyYjMzY1MTsmIzM2Mjc7JiMzNjU3OyYjMzYwNTsmIzM2MTk7JiMzNjIzOyYjMzU5MjsmIzM2MjY7JiMzNjI5OyYjMzYxMDsmIzM1ODY7JiMzNjU3OyYjMzYyOTsmIzM2MTc7JiMzNjQxOyYjMzYyMTsmIzM2MDc7JiMzNjM3OyYjMzY1NjsmIzM1ODU7JiMzNjE5OyYjMzYyOTsmIzM1ODU7PC90ZXh0Pjxwb2x5Z29uIGZpbGw9IiMxODE4MTgiIHBvaW50cz0iODQuNSwxMDA0LjU0NjksNzQuNSwxMDA4LjU0NjksODQuNSwxMDEyLjU0NjksODAuNSwxMDA4LjU0NjkiIHN0eWxlPSJzdHJva2U6IzE4MTgxODtzdHJva2Utd2lkdGg6MS4wOyIvPjxsaW5lIHN0eWxlPSJzdHJva2U6IzE4MTgxODtzdHJva2Utd2lkdGg6MS4wO3N0cm9rZS1kYXNoYXJyYXk6Mi4wLDIuMDsiIHgxPSI3OC41IiB4Mj0iMzA4LjUiIHkxPSIxMDA4LjU0NjkiIHkyPSIxMDA4LjU0NjkiLz48dGV4dCBmaWxsPSIjMDAwMDAwIiBmb250LWZhbWlseT0iU2FyYWJ1biIgZm9udC1zaXplPSIxMyIgZm9udC13ZWlnaHQ9ImJvbGQiIGxlbmd0aEFkanVzdD0ic3BhY2luZyIgdGV4dExlbmd0aD0iMTQiIHg9IjkwLjUiIHk9IjEwMDQuOTIxOSI+MjQ8L3RleHQ+PHRleHQgZmlsbD0iIzAwMDAwMCIgZm9udC1mYW1pbHk9IlNhcmFidW4iIGZvbnQtc2l6ZT0iMTMiIGxlbmd0aEFkanVzdD0ic3BhY2luZyIgdGV4dExlbmd0aD0iMTk0IiB4PSIxMDguNSIgeT0iMTAwNC45MjE5Ij4mIzM2NDk7JiMzNTkyOyYjMzY1NzsmIzM1OTE7JiMzNjQ4OyYjMzYwNTsmIzM2Mzk7JiMzNjI5OyYjMzYwOTsmIzM2MTI7JiMzNjQxOyYjMzY1NzsmIzM2NTE7JiMzNTk0OyYjMzY1NzsmIzM2NTE7JiMzNjI3OyYjMzY1NzsmIzM2MDU7JiMzNjE5OyYjMzYyMzsmIzM1OTI7JiMzNjI2OyYjMzYyOTsmIzM2MTA7JiMzNTg2OyYjMzY1NzsmIzM2Mjk7JiMzNjE3OyYjMzY0MTsmIzM2MjE7JiMzNjA3OyYjMzYzNzsmIzM2NTY7JiMzNTg1OyYjMzYxOTsmIzM2Mjk7JiMzNTg1OzwvdGV4dD48cG9seWdvbiBmaWxsPSIjMTgxODE4IiBwb2ludHM9Ijc5LjUsMTAzOS40NjA5LDY5LjUsMTA0My40NjA5LDc5LjUsMTA0Ny40NjA5LDc1LjUsMTA0My40NjA5IiBzdHlsZT0ic3Ryb2tlOiMxODE4MTg7c3Ryb2tlLXdpZHRoOjEuMDsiLz48bGluZSBzdHlsZT0ic3Ryb2tlOiMxODE4MTg7c3Ryb2tlLXdpZHRoOjEuMDtzdHJva2UtZGFzaGFycmF5OjIuMCwyLjA7IiB4MT0iNzMuNSIgeDI9IjMxMy41IiB5MT0iMTA0My40NjA5IiB5Mj0iMTA0My40NjA5Ii8+PHRleHQgZmlsbD0iIzAwMDAwMCIgZm9udC1mYW1pbHk9IlNhcmFidW4iIGZvbnQtc2l6ZT0iMTMiIGZvbnQtd2VpZ2h0PSJib2xkIiBsZW5ndGhBZGp1c3Q9InNwYWNpbmciIHRleHRMZW5ndGg9IjE0IiB4PSI4NS41IiB5PSIxMDM5LjgzNTkiPjI1PC90ZXh0Pjx0ZXh0IGZpbGw9IiMwMDAwMDAiIGZvbnQtZmFtaWx5PSJTYXJhYnVuIiBmb250LXNpemU9IjEzIiBsZW5ndGhBZGp1c3Q9InNwYWNpbmciIHRleHRMZW5ndGg9IjY5IiB4PSIxMDMuNSIgeT0iMTAzOS44MzU5Ij4mIzM2NDk7JiMzNjI2OyYjMzYwNDsmIzM1OTE7JiMzNjI3OyYjMzYwOTsmIzM2NTc7JiMzNjM0OyYjMzYyNzsmIzM2MjE7JiMzNjMzOyYjMzU4NTs8L3RleHQ+PCEtLVNSQz1beExQRFF6ajA0QnRsaHJYeTJIWElpOHktMURBS0dZLXpjRDNwc2p1cThoUGF2NUx3aFRFMmREM1V3V0lkWFBBTzRoMG5EMnJqTF96Y1ZxZnRIYmZ6bjlQYkRzeGVlSFRoakhoRFVwRnB6aWN6OHlsa0NmVHJRQ1VuZFVRWHd0R3U1UXg3SUl6LXFrODdwNmtCZnV1amRaRnprQXZ0NnZ2RGMyU1NzLWlxazRrOGk0SVJxX3FVZnRqQ19ySGdMQ2JoOU55ZkVTQjVCSXc2a0JaMW5PWHFjNktWazkybk5Fd3JvY013d3ViM1JXa2hvR0pOZ05IUUpLM1ZNYnJjMnJob3o1T0R6YWtLeklXNlA5eE5ObDM2T3pUdlBJQVl6Tm5HZFJsN0tLb3VsMUZvWDBkTXE2TFdYQmFYMTEzZnpleDkyb05zYlZvV3YxU2JWSUtsYkZvZ1dqVEFOWWh2MHVpVXVMZk5fNXg5Q3pweWY2SVdXYkNMbDg2VHU5R0dyWEpNaVF1dGgyVXZEVUlaQS0yNk4wN3NIQ2FQR2ZyMENsYkRvTkNiVm9BQkFTMTZjbmxYNU5LZWxEM2pSRnJmakN6MElldkx5NHg5Z19rMEduQno1ZUhUYVhRX29vSGZZVVFvN244OXoyMGNFMGxfOEtZSEJUZnNkMndqNEJvT0VTbUc4cTJPMnlXSTM1MFlPdHBLTHk1UjI4M0RTbXBobXE2OE5sSnB6NkxVZGlGOHItRDc5SU4yTkQ3SWRpa1hUeGxEZmtGUGVoSE9KbkVDelhWTDRKd3dvSHhWa0JadkJZTUN5cE1xNG4tZ01DbUJhOVRlQ1p3SlBlNVFJOS1GbWNHZk5JS2RGMjZPdjFmWUdSaGUwS2ZpWFg5T0NrX3JNaDkwdFdxemlRRUxEUkxPSWQ0WGNMUTdaZjU4X2l6d2xoSHBRemgzNk5tWWVBQWlkUXRnMTVpcVI1UmJLT0xta3ZMN09tQXczSEtFY1FUT09IeWMyWDAtR1dfbk9wTjNsaW9EQzd2aFJKTWFQZnpaTW16QjhkNGt4NVVIYlR2eFEwUWxRZm9vdTR6MW9ZQ3JZVXk4ZUU0cndrMGw2TUpUVWNkSlBfUndwalg3TU8tcHQtNDlKY3NHeFM3elY3MUw3OUYxdHgxclJXQl90dExST281TFJJNzZVT2lxa2EyUW5WdXRIVUF0bUFrMG5keWRNeVY5Z2dpdk1TdWVxaENtVnhkSlV2M2dEbTAwXS0tPjwvZz48L3N2Zz4=;fontFamily=Sarabun;fontSource=https%3A%2F%2Ffonts.googleapis.com%2Fcss%3Ffamily%3DSarabun;" parent="1" vertex="1">
            <mxGeometry x="120" y="-280" width="871" height="1110" as="geometry" />
          </mxCell>
        </UserObject>
      </root>
    </mxGraphModel>
  </diagram>
  <diagram id="QIseGHKUQ04HVXB_Uwud" name="uc2">
    <mxGraphModel dx="1340" dy="1113" grid="1" gridSize="10" guides="1" tooltips="1" connect="1" arrows="1" fold="1" page="0" pageScale="1" pageWidth="100000" pageHeight="100000" math="0" shadow="0">
      <root>
        <mxCell id="0" />
        <mxCell id="1" parent="0" />
        <UserObject label="" plantUmlData="{&quot;data&quot;:&quot;@startuml\nskinparam monochrome true\nskinparam defaultFontName Sarabun\nautonumber\n\ntitle Use Case 2: จัดการคอร์ส\nmainframe **sd** ManageCourse\n\nparticipant \&quot;staff:User\&quot; as Staff\nparticipant \&quot;:WebBrowser\&quot; as Browser\nparticipant \&quot;:WebServer\&quot; as Server\nparticipant \&quot;:Database\&quot; as Database\n\nStaff -&gt; Browser: กดสร้างคอร์ส\n\nactivate Staff\n\nactivate Browser\nBrowser -&gt; Server: ขอเข้าถึงหน้าสร้างคอร์ส\n\nactivate Server\nServer -&gt; Database: ขอข้อมูลคอร์สและตารางเวลา\n\nactivate Database\nDatabase --&gt; Server: ข้อมูลคอร์สและตารางเวลา\ndeactivate Database\n\nServer --&gt; Browser: หน้าสร้างคอร์ส\ndeactivate Server\n\nBrowser --&gt; Staff: แสดงหน้าสร้างคอร์ส\n\n&#39; loop 1\nloop ข้อมูลที่กรอกไม่ถูกต้อง\n\nStaff -&gt; Browser: กรอกข้อมูลของคอร์ส\nStaff -&gt; Browser: กดปุ่ม \&quot;Create\&quot;\nBrowser -&gt; Server: ส่งข้อมูลของคอร์ส\n\nactivate Server\nServer -&gt; Server: ตรวจสอบข้อมูลที่กรอก\n\nactivate Server\ndeactivate Server\n\n&#39; break 1.1\nbreak ข้อมูลที่กรอกถูกต้อง\n\nServer -&gt;&gt; Database: เขียนข้อมูลของคอร์ส\n\nactivate Database\ndeactivate Database\n\nServer --&gt; Browser: ผลการสร้างคอร์ส\ndeactivate Server\n\n&#39; break 1.1\nend\n\nServer --&gt; Browser: สั่งให้แจ้งเตือนผู้ใช้ให้ตรวจสอบข้อมูลที่กรอก\nBrowser --&gt; Staff: แจ้งเตือนผู้ใช้ให้ตรวจสอบข้อมูลที่กรอก\n\n&#39; loop 1\nend\n\nBrowser --&gt; Staff: แสดงผลการสร้างคอร์ส\nStaff -&gt; Browser: กดปุ่ม \&quot;OK\&quot;\nBrowser -&gt; Server: ขอเข้าถึงหน้าหลัก\n\nactivate Server\nServer --&gt; Browser: หน้าหลัก\ndeactivate Server\n\nBrowser --&gt; Staff: แสดงหน้าหลัก\ndeactivate Browser\n\ndeactivate Staff\n@enduml\n&quot;,&quot;format&quot;:&quot;svg&quot;}" id="_4_qA6giZNHdpDy4jM_i-1">
          <mxCell style="shape=image;noLabel=1;verticalAlign=top;aspect=fixed;imageAspect=0;image=data:image/svg+xml,PD94bWwgdmVyc2lvbj0iMS4wIiBlbmNvZGluZz0idXMtYXNjaWkiIHN0YW5kYWxvbmU9Im5vIj8+PHN2ZyB4bWxucz0iaHR0cDovL3d3dy53My5vcmcvMjAwMC9zdmciIHhtbG5zOnhsaW5rPSJodHRwOi8vd3d3LnczLm9yZy8xOTk5L3hsaW5rIiBjb250ZW50U3R5bGVUeXBlPSJ0ZXh0L2NzcyIgaGVpZ2h0PSI4NDBweCIgcHJlc2VydmVBc3BlY3RSYXRpbz0ibm9uZSIgc3R5bGU9IndpZHRoOjg1OXB4O2hlaWdodDo4NDBweDtiYWNrZ3JvdW5kOiNGRkZGRkY7IiB2ZXJzaW9uPSIxLjEiIHZpZXdCb3g9IjAgMCA4NTkgODQwIiB3aWR0aD0iODU5cHgiIHpvb21BbmRQYW49Im1hZ25pZnkiPjxkZWZzLz48Zz48dGV4dCBmaWxsPSIjMDAwMDAwIiBmb250LWZhbWlseT0iU2FyYWJ1biIgZm9udC1zaXplPSIxNCIgZm9udC13ZWlnaHQ9ImJvbGQiIGxlbmd0aEFkanVzdD0ic3BhY2luZyIgdGV4dExlbmd0aD0iMTQ4IiB4PSIzNDQuMjUiIHk9IjI4LjIzNDQiPlVzZSBDYXNlIDI6ICYjMzU5MjsmIzM2MzM7JiMzNjA0OyYjMzU4NTsmIzM2MzQ7JiMzNjE5OyYjMzU4ODsmIzM2Mjk7JiMzNjE5OyYjMzY2MDsmIzM2MjY7PC90ZXh0PjxyZWN0IGZpbGw9IiNGRkZGRkYiIGhlaWdodD0iNzgzLjEzMjgiIHN0eWxlPSJzdHJva2U6IzE4MTgxODtzdHJva2Utd2lkdGg6MS41OyIgd2lkdGg9Ijg0OC41IiB4PSI1IiB5PSI1MC45ODQ0Ii8+PHBhdGggZD0iTTEyMCw1MC45ODQ0IEwxMjAsNTguOTY4OCBMMTEwLDY4Ljk2ODggTDUsNjguOTY4OCAiIGZpbGw9Im5vbmUiIHN0eWxlPSJzdHJva2U6IzE4MTgxODtzdHJva2Utd2lkdGg6MS41OyIvPjx0ZXh0IGZpbGw9IiMwMDAwMDAiIGZvbnQtZmFtaWx5PSJTYXJhYnVuIiBmb250LXNpemU9IjE0IiBmb250LXdlaWdodD0iYm9sZCIgbGVuZ3RoQWRqdXN0PSJzcGFjaW5nIiB0ZXh0TGVuZ3RoPSIxNCIgeD0iOCIgeT0iNjUuMjE4OCI+c2Q8L3RleHQ+PHRleHQgZmlsbD0iIzAwMDAwMCIgZm9udC1mYW1pbHk9IlNhcmFidW4iIGZvbnQtc2l6ZT0iMTQiIGxlbmd0aEFkanVzdD0ic3BhY2luZyIgdGV4dExlbmd0aD0iODQiIHg9IjI5IiB5PSI2NS4yMTg4Ij5NYW5hZ2VDb3Vyc2U8L3RleHQ+PHJlY3QgZmlsbD0iI0ZGRkZGRiIgaGVpZ2h0PSI2MzUuMjgxMyIgc3R5bGU9InN0cm9rZTojMTgxODE4O3N0cm9rZS13aWR0aDoxLjA7IiB3aWR0aD0iMTAiIHg9IjY3IiB5PSIxMzcuODY3MiIvPjxyZWN0IGZpbGw9IiNGRkZGRkYiIGhlaWdodD0iNjM1LjI4MTMiIHN0eWxlPSJzdHJva2U6IzE4MTgxODtzdHJva2Utd2lkdGg6MS4wOyIgd2lkdGg9IjEwIiB4PSIzMTMiIHk9IjEzNy44NjcyIi8+PHJlY3QgZmlsbD0iI0ZGRkZGRiIgaGVpZ2h0PSI4My43NDIyIiBzdHlsZT0ic3Ryb2tlOiMxODE4MTg7c3Ryb2tlLXdpZHRoOjEuMDsiIHdpZHRoPSIxMCIgeD0iNTgyIiB5PSIxNjUuNzgxMyIvPjxyZWN0IGZpbGw9IiNGRkZGRkYiIGhlaWdodD0iMTc5LjY1NjMiIHN0eWxlPSJzdHJva2U6IzE4MTgxODtzdHJva2Utd2lkdGg6MS4wOyIgd2lkdGg9IjEwIiB4PSI1ODIiIHk9IjM4NC4wOTM4Ii8+PHJlY3QgZmlsbD0iI0ZGRkZGRiIgaGVpZ2h0PSIyOCIgc3R5bGU9InN0cm9rZTojMTgxODE4O3N0cm9rZS13aWR0aDoxLjA7IiB3aWR0aD0iMTAiIHg9IjU4NyIgeT0iNDIwLjAwNzgiLz48cmVjdCBmaWxsPSIjRkZGRkZGIiBoZWlnaHQ9IjI3LjkxNDEiIHN0eWxlPSJzdHJva2U6IzE4MTgxODtzdHJva2Utd2lkdGg6MS4wOyIgd2lkdGg9IjEwIiB4PSI1ODIiIHk9IjcxNy4zMjAzIi8+PHJlY3QgZmlsbD0iI0ZGRkZGRiIgaGVpZ2h0PSIyNy45MTQxIiBzdHlsZT0ic3Ryb2tlOiMxODE4MTg7c3Ryb2tlLXdpZHRoOjEuMDsiIHdpZHRoPSIxMCIgeD0iNzc0IiB5PSIxOTMuNjk1MyIvPjxyZWN0IGZpbGw9IiNGRkZGRkYiIGhlaWdodD0iMzAiIHN0eWxlPSJzdHJva2U6IzE4MTgxODtzdHJva2Utd2lkdGg6MS4wOyIgd2lkdGg9IjEwIiB4PSI3NzQiIHk9IjUwNS44MzU5Ii8+PHJlY3QgZmlsbD0ibm9uZSIgaGVpZ2h0PSIzNDIuMTQwNiIgc3R5bGU9InN0cm9rZTojMDAwMDAwO3N0cm9rZS13aWR0aDoxLjU7IiB3aWR0aD0iODE3LjUiIHg9IjIwIiB5PSIyOTIuNDM3NSIvPjxyZWN0IGZpbGw9Im5vbmUiIGhlaWdodD0iMTAxLjc0MjIiIHN0eWxlPSJzdHJva2U6IzAwMDAwMDtzdHJva2Utd2lkdGg6MS41OyIgd2lkdGg9IjU2NS41IiB4PSIyNjIiIHk9IjQ3MC4wMDc4Ii8+PGxpbmUgc3R5bGU9InN0cm9rZTojMTgxODE4O3N0cm9rZS13aWR0aDowLjU7c3Ryb2tlLWRhc2hhcnJheTo1LjAsNS4wOyIgeDE9IjcyIiB4Mj0iNzIiIHkxPSIxMDcuOTUzMSIgeTI9Ijc5MS4xNDg0Ii8+PGxpbmUgc3R5bGU9InN0cm9rZTojMTgxODE4O3N0cm9rZS13aWR0aDowLjU7c3Ryb2tlLWRhc2hhcnJheTo1LjAsNS4wOyIgeDE9IjMxOCIgeDI9IjMxOCIgeTE9IjEwNy45NTMxIiB5Mj0iNzkxLjE0ODQiLz48bGluZSBzdHlsZT0ic3Ryb2tlOiMxODE4MTg7c3Ryb2tlLXdpZHRoOjAuNTtzdHJva2UtZGFzaGFycmF5OjUuMCw1LjA7IiB4MT0iNTg3IiB4Mj0iNTg3IiB5MT0iMTA3Ljk1MzEiIHkyPSI3OTEuMTQ4NCIvPjxsaW5lIHN0eWxlPSJzdHJva2U6IzE4MTgxODtzdHJva2Utd2lkdGg6MC41O3N0cm9rZS1kYXNoYXJyYXk6NS4wLDUuMDsiIHgxPSI3NzguNSIgeDI9Ijc3OC41IiB5MT0iMTA3Ljk1MzEiIHkyPSI3OTEuMTQ4NCIvPjxyZWN0IGZpbGw9IiNFM0UzRTMiIGhlaWdodD0iMjguOTg0NCIgcng9IjIuNSIgcnk9IjIuNSIgc3R5bGU9InN0cm9rZTojMTgxODE4O3N0cm9rZS13aWR0aDowLjU7IiB3aWR0aD0iODQiIHg9IjMwIiB5PSI3Ny45Njg4Ii8+PHRleHQgZmlsbD0iIzAwMDAwMCIgZm9udC1mYW1pbHk9IlNhcmFidW4iIGZvbnQtc2l6ZT0iMTQiIGxlbmd0aEFkanVzdD0ic3BhY2luZyIgdGV4dExlbmd0aD0iNzAiIHg9IjM3IiB5PSI5OC4yMDMxIj5zdGFmZjpVc2VyPC90ZXh0PjxyZWN0IGZpbGw9IiNFM0UzRTMiIGhlaWdodD0iMjguOTg0NCIgcng9IjIuNSIgcnk9IjIuNSIgc3R5bGU9InN0cm9rZTojMTgxODE4O3N0cm9rZS13aWR0aDowLjU7IiB3aWR0aD0iODQiIHg9IjMwIiB5PSI3OTAuMTQ4NCIvPjx0ZXh0IGZpbGw9IiMwMDAwMDAiIGZvbnQtZmFtaWx5PSJTYXJhYnVuIiBmb250LXNpemU9IjE0IiBsZW5ndGhBZGp1c3Q9InNwYWNpbmciIHRleHRMZW5ndGg9IjcwIiB4PSIzNyIgeT0iODEwLjM4MjgiPnN0YWZmOlVzZXI8L3RleHQ+PHJlY3QgZmlsbD0iI0UzRTNFMyIgaGVpZ2h0PSIyOC45ODQ0IiByeD0iMi41IiByeT0iMi41IiBzdHlsZT0ic3Ryb2tlOiMxODE4MTg7c3Ryb2tlLXdpZHRoOjAuNTsiIHdpZHRoPSI5MiIgeD0iMjcyIiB5PSI3Ny45Njg4Ii8+PHRleHQgZmlsbD0iIzAwMDAwMCIgZm9udC1mYW1pbHk9IlNhcmFidW4iIGZvbnQtc2l6ZT0iMTQiIGxlbmd0aEFkanVzdD0ic3BhY2luZyIgdGV4dExlbmd0aD0iNzgiIHg9IjI3OSIgeT0iOTguMjAzMSI+OldlYkJyb3dzZXI8L3RleHQ+PHJlY3QgZmlsbD0iI0UzRTNFMyIgaGVpZ2h0PSIyOC45ODQ0IiByeD0iMi41IiByeT0iMi41IiBzdHlsZT0ic3Ryb2tlOiMxODE4MTg7c3Ryb2tlLXdpZHRoOjAuNTsiIHdpZHRoPSI5MiIgeD0iMjcyIiB5PSI3OTAuMTQ4NCIvPjx0ZXh0IGZpbGw9IiMwMDAwMDAiIGZvbnQtZmFtaWx5PSJTYXJhYnVuIiBmb250LXNpemU9IjE0IiBsZW5ndGhBZGp1c3Q9InNwYWNpbmciIHRleHRMZW5ndGg9Ijc4IiB4PSIyNzkiIHk9IjgxMC4zODI4Ij46V2ViQnJvd3NlcjwvdGV4dD48cmVjdCBmaWxsPSIjRTNFM0UzIiBoZWlnaHQ9IjI4Ljk4NDQiIHJ4PSIyLjUiIHJ5PSIyLjUiIHN0eWxlPSJzdHJva2U6IzE4MTgxODtzdHJva2Utd2lkdGg6MC41OyIgd2lkdGg9Ijg0IiB4PSI1NDUiIHk9Ijc3Ljk2ODgiLz48dGV4dCBmaWxsPSIjMDAwMDAwIiBmb250LWZhbWlseT0iU2FyYWJ1biIgZm9udC1zaXplPSIxNCIgbGVuZ3RoQWRqdXN0PSJzcGFjaW5nIiB0ZXh0TGVuZ3RoPSI3MCIgeD0iNTUyIiB5PSI5OC4yMDMxIj46V2ViU2VydmVyPC90ZXh0PjxyZWN0IGZpbGw9IiNFM0UzRTMiIGhlaWdodD0iMjguOTg0NCIgcng9IjIuNSIgcnk9IjIuNSIgc3R5bGU9InN0cm9rZTojMTgxODE4O3N0cm9rZS13aWR0aDowLjU7IiB3aWR0aD0iODQiIHg9IjU0NSIgeT0iNzkwLjE0ODQiLz48dGV4dCBmaWxsPSIjMDAwMDAwIiBmb250LWZhbWlseT0iU2FyYWJ1biIgZm9udC1zaXplPSIxNCIgbGVuZ3RoQWRqdXN0PSJzcGFjaW5nIiB0ZXh0TGVuZ3RoPSI3MCIgeD0iNTUyIiB5PSI4MTAuMzgyOCI+OldlYlNlcnZlcjwvdGV4dD48cmVjdCBmaWxsPSIjRTNFM0UzIiBoZWlnaHQ9IjI4Ljk4NDQiIHJ4PSIyLjUiIHJ5PSIyLjUiIHN0eWxlPSJzdHJva2U6IzE4MTgxODtzdHJva2Utd2lkdGg6MC41OyIgd2lkdGg9Ijc3IiB4PSI3NDAuNSIgeT0iNzcuOTY4OCIvPjx0ZXh0IGZpbGw9IiMwMDAwMDAiIGZvbnQtZmFtaWx5PSJTYXJhYnVuIiBmb250LXNpemU9IjE0IiBsZW5ndGhBZGp1c3Q9InNwYWNpbmciIHRleHRMZW5ndGg9IjYzIiB4PSI3NDcuNSIgeT0iOTguMjAzMSI+OkRhdGFiYXNlPC90ZXh0PjxyZWN0IGZpbGw9IiNFM0UzRTMiIGhlaWdodD0iMjguOTg0NCIgcng9IjIuNSIgcnk9IjIuNSIgc3R5bGU9InN0cm9rZTojMTgxODE4O3N0cm9rZS13aWR0aDowLjU7IiB3aWR0aD0iNzciIHg9Ijc0MC41IiB5PSI3OTAuMTQ4NCIvPjx0ZXh0IGZpbGw9IiMwMDAwMDAiIGZvbnQtZmFtaWx5PSJTYXJhYnVuIiBmb250LXNpemU9IjE0IiBsZW5ndGhBZGp1c3Q9InNwYWNpbmciIHRleHRMZW5ndGg9IjYzIiB4PSI3NDcuNSIgeT0iODEwLjM4MjgiPjpEYXRhYmFzZTwvdGV4dD48cmVjdCBmaWxsPSIjRkZGRkZGIiBoZWlnaHQ9IjYzNS4yODEzIiBzdHlsZT0ic3Ryb2tlOiMxODE4MTg7c3Ryb2tlLXdpZHRoOjEuMDsiIHdpZHRoPSIxMCIgeD0iNjciIHk9IjEzNy44NjcyIi8+PHJlY3QgZmlsbD0iI0ZGRkZGRiIgaGVpZ2h0PSI2MzUuMjgxMyIgc3R5bGU9InN0cm9rZTojMTgxODE4O3N0cm9rZS13aWR0aDoxLjA7IiB3aWR0aD0iMTAiIHg9IjMxMyIgeT0iMTM3Ljg2NzIiLz48cmVjdCBmaWxsPSIjRkZGRkZGIiBoZWlnaHQ9IjgzLjc0MjIiIHN0eWxlPSJzdHJva2U6IzE4MTgxODtzdHJva2Utd2lkdGg6MS4wOyIgd2lkdGg9IjEwIiB4PSI1ODIiIHk9IjE2NS43ODEzIi8+PHJlY3QgZmlsbD0iI0ZGRkZGRiIgaGVpZ2h0PSIxNzkuNjU2MyIgc3R5bGU9InN0cm9rZTojMTgxODE4O3N0cm9rZS13aWR0aDoxLjA7IiB3aWR0aD0iMTAiIHg9IjU4MiIgeT0iMzg0LjA5MzgiLz48cmVjdCBmaWxsPSIjRkZGRkZGIiBoZWlnaHQ9IjI4IiBzdHlsZT0ic3Ryb2tlOiMxODE4MTg7c3Ryb2tlLXdpZHRoOjEuMDsiIHdpZHRoPSIxMCIgeD0iNTg3IiB5PSI0MjAuMDA3OCIvPjxyZWN0IGZpbGw9IiNGRkZGRkYiIGhlaWdodD0iMjcuOTE0MSIgc3R5bGU9InN0cm9rZTojMTgxODE4O3N0cm9rZS13aWR0aDoxLjA7IiB3aWR0aD0iMTAiIHg9IjU4MiIgeT0iNzE3LjMyMDMiLz48cmVjdCBmaWxsPSIjRkZGRkZGIiBoZWlnaHQ9IjI3LjkxNDEiIHN0eWxlPSJzdHJva2U6IzE4MTgxODtzdHJva2Utd2lkdGg6MS4wOyIgd2lkdGg9IjEwIiB4PSI3NzQiIHk9IjE5My42OTUzIi8+PHJlY3QgZmlsbD0iI0ZGRkZGRiIgaGVpZ2h0PSIzMCIgc3R5bGU9InN0cm9rZTojMTgxODE4O3N0cm9rZS13aWR0aDoxLjA7IiB3aWR0aD0iMTAiIHg9Ijc3NCIgeT0iNTA1LjgzNTkiLz48cG9seWdvbiBmaWxsPSIjMTgxODE4IiBwb2ludHM9IjMwMSwxMzMuODY3MiwzMTEsMTM3Ljg2NzIsMzAxLDE0MS44NjcyLDMwNSwxMzcuODY3MiIgc3R5bGU9InN0cm9rZTojMTgxODE4O3N0cm9rZS13aWR0aDoxLjA7Ii8+PGxpbmUgc3R5bGU9InN0cm9rZTojMTgxODE4O3N0cm9rZS13aWR0aDoxLjA7IiB4MT0iNzciIHgyPSIzMDciIHkxPSIxMzcuODY3MiIgeTI9IjEzNy44NjcyIi8+PHRleHQgZmlsbD0iIzAwMDAwMCIgZm9udC1mYW1pbHk9IlNhcmFidW4iIGZvbnQtc2l6ZT0iMTMiIGZvbnQtd2VpZ2h0PSJib2xkIiBsZW5ndGhBZGp1c3Q9InNwYWNpbmciIHRleHRMZW5ndGg9IjciIHg9Ijg0IiB5PSIxMzQuMjQyMiI+MTwvdGV4dD48dGV4dCBmaWxsPSIjMDAwMDAwIiBmb250LWZhbWlseT0iU2FyYWJ1biIgZm9udC1zaXplPSIxMyIgbGVuZ3RoQWRqdXN0PSJzcGFjaW5nIiB0ZXh0TGVuZ3RoPSI3MCIgeD0iOTUiIHk9IjEzNC4yNDIyIj4mIzM1ODU7JiMzNjA0OyYjMzYyNjsmIzM2MTk7JiMzNjU3OyYjMzYzNDsmIzM1OTE7JiMzNTg4OyYjMzYyOTsmIzM2MTk7JiMzNjYwOyYjMzYyNjs8L3RleHQ+PHBvbHlnb24gZmlsbD0iIzE4MTgxOCIgcG9pbnRzPSI1NzAsMTYxLjc4MTMsNTgwLDE2NS43ODEzLDU3MCwxNjkuNzgxMyw1NzQsMTY1Ljc4MTMiIHN0eWxlPSJzdHJva2U6IzE4MTgxODtzdHJva2Utd2lkdGg6MS4wOyIvPjxsaW5lIHN0eWxlPSJzdHJva2U6IzE4MTgxODtzdHJva2Utd2lkdGg6MS4wOyIgeDE9IjMyMyIgeDI9IjU3NiIgeTE9IjE2NS43ODEzIiB5Mj0iMTY1Ljc4MTMiLz48dGV4dCBmaWxsPSIjMDAwMDAwIiBmb250LWZhbWlseT0iU2FyYWJ1biIgZm9udC1zaXplPSIxMyIgZm9udC13ZWlnaHQ9ImJvbGQiIGxlbmd0aEFkanVzdD0ic3BhY2luZyIgdGV4dExlbmd0aD0iNyIgeD0iMzMwIiB5PSIxNjIuMTU2MyI+MjwvdGV4dD48dGV4dCBmaWxsPSIjMDAwMDAwIiBmb250LWZhbWlseT0iU2FyYWJ1biIgZm9udC1zaXplPSIxMyIgbGVuZ3RoQWRqdXN0PSJzcGFjaW5nIiB0ZXh0TGVuZ3RoPSIxMjUiIHg9IjM0MSIgeT0iMTYyLjE1NjMiPiYjMzU4NjsmIzM2Mjk7JiMzNjQ4OyYjMzU4NjsmIzM2NTc7JiMzNjM0OyYjMzYwNjsmIzM2Mzg7JiMzNTkxOyYjMzYyNzsmIzM2MDk7JiMzNjU3OyYjMzYzNDsmIzM2MjY7JiMzNjE5OyYjMzY1NzsmIzM2MzQ7JiMzNTkxOyYjMzU4ODsmIzM2Mjk7JiMzNjE5OyYjMzY2MDsmIzM2MjY7PC90ZXh0Pjxwb2x5Z29uIGZpbGw9IiMxODE4MTgiIHBvaW50cz0iNzYyLDE4OS42OTUzLDc3MiwxOTMuNjk1Myw3NjIsMTk3LjY5NTMsNzY2LDE5My42OTUzIiBzdHlsZT0ic3Ryb2tlOiMxODE4MTg7c3Ryb2tlLXdpZHRoOjEuMDsiLz48bGluZSBzdHlsZT0ic3Ryb2tlOiMxODE4MTg7c3Ryb2tlLXdpZHRoOjEuMDsiIHgxPSI1OTIiIHgyPSI3NjgiIHkxPSIxOTMuNjk1MyIgeTI9IjE5My42OTUzIi8+PHRleHQgZmlsbD0iIzAwMDAwMCIgZm9udC1mYW1pbHk9IlNhcmFidW4iIGZvbnQtc2l6ZT0iMTMiIGZvbnQtd2VpZ2h0PSJib2xkIiBsZW5ndGhBZGp1c3Q9InNwYWNpbmciIHRleHRMZW5ndGg9IjciIHg9IjU5OSIgeT0iMTkwLjA3MDMiPjM8L3RleHQ+PHRleHQgZmlsbD0iIzAwMDAwMCIgZm9udC1mYW1pbHk9IlNhcmFidW4iIGZvbnQtc2l6ZT0iMTMiIGxlbmd0aEFkanVzdD0ic3BhY2luZyIgdGV4dExlbmd0aD0iMTUyIiB4PSI2MTAiIHk9IjE5MC4wNzAzIj4mIzM1ODY7JiMzNjI5OyYjMzU4NjsmIzM2NTc7JiMzNjI5OyYjMzYxNzsmIzM2NDE7JiMzNjIxOyYjMzU4ODsmIzM2Mjk7JiMzNjE5OyYjMzY2MDsmIzM2MjY7JiMzNjQ5OyYjMzYyMTsmIzM2MzI7JiMzNjA1OyYjMzYzNDsmIzM2MTk7JiMzNjM0OyYjMzU5MTsmIzM2NDg7JiMzNjIzOyYjMzYyMTsmIzM2MzQ7PC90ZXh0Pjxwb2x5Z29uIGZpbGw9IiMxODE4MTgiIHBvaW50cz0iNjAzLDIxNy42MDk0LDU5MywyMjEuNjA5NCw2MDMsMjI1LjYwOTQsNTk5LDIyMS42MDk0IiBzdHlsZT0ic3Ryb2tlOiMxODE4MTg7c3Ryb2tlLXdpZHRoOjEuMDsiLz48bGluZSBzdHlsZT0ic3Ryb2tlOiMxODE4MTg7c3Ryb2tlLXdpZHRoOjEuMDtzdHJva2UtZGFzaGFycmF5OjIuMCwyLjA7IiB4MT0iNTk3IiB4Mj0iNzc4IiB5MT0iMjIxLjYwOTQiIHkyPSIyMjEuNjA5NCIvPjx0ZXh0IGZpbGw9IiMwMDAwMDAiIGZvbnQtZmFtaWx5PSJTYXJhYnVuIiBmb250LXNpemU9IjEzIiBmb250LXdlaWdodD0iYm9sZCIgbGVuZ3RoQWRqdXN0PSJzcGFjaW5nIiB0ZXh0TGVuZ3RoPSI3IiB4PSI2MDkiIHk9IjIxNy45ODQ0Ij40PC90ZXh0Pjx0ZXh0IGZpbGw9IiMwMDAwMDAiIGZvbnQtZmFtaWx5PSJTYXJhYnVuIiBmb250LXNpemU9IjEzIiBsZW5ndGhBZGp1c3Q9InNwYWNpbmciIHRleHRMZW5ndGg9IjEzOCIgeD0iNjIwIiB5PSIyMTcuOTg0NCI+JiMzNTg2OyYjMzY1NzsmIzM2Mjk7JiMzNjE3OyYjMzY0MTsmIzM2MjE7JiMzNTg4OyYjMzYyOTsmIzM2MTk7JiMzNjYwOyYjMzYyNjsmIzM2NDk7JiMzNjIxOyYjMzYzMjsmIzM2MDU7JiMzNjM0OyYjMzYxOTsmIzM2MzQ7JiMzNTkxOyYjMzY0ODsmIzM2MjM7JiMzNjIxOyYjMzYzNDs8L3RleHQ+PHBvbHlnb24gZmlsbD0iIzE4MTgxOCIgcG9pbnRzPSIzMzQsMjQ1LjUyMzQsMzI0LDI0OS41MjM0LDMzNCwyNTMuNTIzNCwzMzAsMjQ5LjUyMzQiIHN0eWxlPSJzdHJva2U6IzE4MTgxODtzdHJva2Utd2lkdGg6MS4wOyIvPjxsaW5lIHN0eWxlPSJzdHJva2U6IzE4MTgxODtzdHJva2Utd2lkdGg6MS4wO3N0cm9rZS1kYXNoYXJyYXk6Mi4wLDIuMDsiIHgxPSIzMjgiIHgyPSI1ODYiIHkxPSIyNDkuNTIzNCIgeTI9IjI0OS41MjM0Ii8+PHRleHQgZmlsbD0iIzAwMDAwMCIgZm9udC1mYW1pbHk9IlNhcmFidW4iIGZvbnQtc2l6ZT0iMTMiIGZvbnQtd2VpZ2h0PSJib2xkIiBsZW5ndGhBZGp1c3Q9InNwYWNpbmciIHRleHRMZW5ndGg9IjciIHg9IjM0MCIgeT0iMjQ1Ljg5ODQiPjU8L3RleHQ+PHRleHQgZmlsbD0iIzAwMDAwMCIgZm9udC1mYW1pbHk9IlNhcmFidW4iIGZvbnQtc2l6ZT0iMTMiIGxlbmd0aEFkanVzdD0ic3BhY2luZyIgdGV4dExlbmd0aD0iNzciIHg9IjM1MSIgeT0iMjQ1Ljg5ODQiPiYjMzYyNzsmIzM2MDk7JiMzNjU3OyYjMzYzNDsmIzM2MjY7JiMzNjE5OyYjMzY1NzsmIzM2MzQ7JiMzNTkxOyYjMzU4ODsmIzM2Mjk7JiMzNjE5OyYjMzY2MDsmIzM2MjY7PC90ZXh0Pjxwb2x5Z29uIGZpbGw9IiMxODE4MTgiIHBvaW50cz0iODgsMjczLjQzNzUsNzgsMjc3LjQzNzUsODgsMjgxLjQzNzUsODQsMjc3LjQzNzUiIHN0eWxlPSJzdHJva2U6IzE4MTgxODtzdHJva2Utd2lkdGg6MS4wOyIvPjxsaW5lIHN0eWxlPSJzdHJva2U6IzE4MTgxODtzdHJva2Utd2lkdGg6MS4wO3N0cm9rZS1kYXNoYXJyYXk6Mi4wLDIuMDsiIHgxPSI4MiIgeDI9IjMxMiIgeTE9IjI3Ny40Mzc1IiB5Mj0iMjc3LjQzNzUiLz48dGV4dCBmaWxsPSIjMDAwMDAwIiBmb250LWZhbWlseT0iU2FyYWJ1biIgZm9udC1zaXplPSIxMyIgZm9udC13ZWlnaHQ9ImJvbGQiIGxlbmd0aEFkanVzdD0ic3BhY2luZyIgdGV4dExlbmd0aD0iNyIgeD0iOTQiIHk9IjI3My44MTI1Ij42PC90ZXh0Pjx0ZXh0IGZpbGw9IiMwMDAwMDAiIGZvbnQtZmFtaWx5PSJTYXJhYnVuIiBmb250LXNpemU9IjEzIiBsZW5ndGhBZGp1c3Q9InNwYWNpbmciIHRleHRMZW5ndGg9IjEwNCIgeD0iMTA1IiB5PSIyNzMuODEyNSI+JiMzNjQ5OyYjMzYyNjsmIzM2MDQ7JiMzNTkxOyYjMzYyNzsmIzM2MDk7JiMzNjU3OyYjMzYzNDsmIzM2MjY7JiMzNjE5OyYjMzY1NzsmIzM2MzQ7JiMzNTkxOyYjMzU4ODsmIzM2Mjk7JiMzNjE5OyYjMzY2MDsmIzM2MjY7PC90ZXh0PjxwYXRoIGQ9Ik0yMCwyOTIuNDM3NSBMOTIsMjkyLjQzNzUgTDkyLDI5OC4zNTE2IEw4MiwzMDguMzUxNiBMMjAsMzA4LjM1MTYgTDIwLDI5Mi40Mzc1ICIgZmlsbD0iI0VFRUVFRSIgc3R5bGU9InN0cm9rZTojMDAwMDAwO3N0cm9rZS13aWR0aDoxLjU7Ii8+PHJlY3QgZmlsbD0ibm9uZSIgaGVpZ2h0PSIzNDIuMTQwNiIgc3R5bGU9InN0cm9rZTojMDAwMDAwO3N0cm9rZS13aWR0aDoxLjU7IiB3aWR0aD0iODE3LjUiIHg9IjIwIiB5PSIyOTIuNDM3NSIvPjx0ZXh0IGZpbGw9IiMwMDAwMDAiIGZvbnQtZmFtaWx5PSJTYXJhYnVuIiBmb250LXNpemU9IjEzIiBmb250LXdlaWdodD0iYm9sZCIgbGVuZ3RoQWRqdXN0PSJzcGFjaW5nIiB0ZXh0TGVuZ3RoPSIyNyIgeD0iMzUiIHk9IjMwNS43MjY2Ij5sb29wPC90ZXh0Pjx0ZXh0IGZpbGw9IiMwMDAwMDAiIGZvbnQtZmFtaWx5PSJTYXJhYnVuIiBmb250LXNpemU9IjExIiBmb250LXdlaWdodD0iYm9sZCIgbGVuZ3RoQWRqdXN0PSJzcGFjaW5nIiB0ZXh0TGVuZ3RoPSIxMDUiIHg9IjEwNyIgeT0iMzA0LjgzNTkiPlsmIzM1ODY7JiMzNjU3OyYjMzYyOTsmIzM2MTc7JiMzNjQxOyYjMzYyMTsmIzM2MDc7JiMzNjM3OyYjMzY1NjsmIzM1ODU7JiMzNjE5OyYjMzYyOTsmIzM1ODU7JiMzNjUyOyYjMzYxNzsmIzM2NTY7JiMzNjA2OyYjMzY0MTsmIzM1ODU7JiMzNjA1OyYjMzY1NzsmIzM2Mjk7JiMzNTkxO108L3RleHQ+PHBvbHlnb24gZmlsbD0iIzE4MTgxOCIgcG9pbnRzPSIzMDEsMzI0LjI2NTYsMzExLDMyOC4yNjU2LDMwMSwzMzIuMjY1NiwzMDUsMzI4LjI2NTYiIHN0eWxlPSJzdHJva2U6IzE4MTgxODtzdHJva2Utd2lkdGg6MS4wOyIvPjxsaW5lIHN0eWxlPSJzdHJva2U6IzE4MTgxODtzdHJva2Utd2lkdGg6MS4wOyIgeDE9Ijc3IiB4Mj0iMzA3IiB5MT0iMzI4LjI2NTYiIHkyPSIzMjguMjY1NiIvPjx0ZXh0IGZpbGw9IiMwMDAwMDAiIGZvbnQtZmFtaWx5PSJTYXJhYnVuIiBmb250LXNpemU9IjEzIiBmb250LXdlaWdodD0iYm9sZCIgbGVuZ3RoQWRqdXN0PSJzcGFjaW5nIiB0ZXh0TGVuZ3RoPSI3IiB4PSI4NCIgeT0iMzI0LjY0MDYiPjc8L3RleHQ+PHRleHQgZmlsbD0iIzAwMDAwMCIgZm9udC1mYW1pbHk9IlNhcmFidW4iIGZvbnQtc2l6ZT0iMTMiIGxlbmd0aEFkanVzdD0ic3BhY2luZyIgdGV4dExlbmd0aD0iMTA1IiB4PSI5NSIgeT0iMzI0LjY0MDYiPiYjMzU4NTsmIzM2MTk7JiMzNjI5OyYjMzU4NTsmIzM1ODY7JiMzNjU3OyYjMzYyOTsmIzM2MTc7JiMzNjQxOyYjMzYyMTsmIzM1ODY7JiMzNjI5OyYjMzU5MTsmIzM1ODg7JiMzNjI5OyYjMzYxOTsmIzM2NjA7JiMzNjI2OzwvdGV4dD48cG9seWdvbiBmaWxsPSIjMTgxODE4IiBwb2ludHM9IjMwMSwzNTIuMTc5NywzMTEsMzU2LjE3OTcsMzAxLDM2MC4xNzk3LDMwNSwzNTYuMTc5NyIgc3R5bGU9InN0cm9rZTojMTgxODE4O3N0cm9rZS13aWR0aDoxLjA7Ii8+PGxpbmUgc3R5bGU9InN0cm9rZTojMTgxODE4O3N0cm9rZS13aWR0aDoxLjA7IiB4MT0iNzciIHgyPSIzMDciIHkxPSIzNTYuMTc5NyIgeTI9IjM1Ni4xNzk3Ii8+PHRleHQgZmlsbD0iIzAwMDAwMCIgZm9udC1mYW1pbHk9IlNhcmFidW4iIGZvbnQtc2l6ZT0iMTMiIGZvbnQtd2VpZ2h0PSJib2xkIiBsZW5ndGhBZGp1c3Q9InNwYWNpbmciIHRleHRMZW5ndGg9IjciIHg9Ijg0IiB5PSIzNTIuNTU0NyI+ODwvdGV4dD48dGV4dCBmaWxsPSIjMDAwMDAwIiBmb250LWZhbWlseT0iU2FyYWJ1biIgZm9udC1zaXplPSIxMyIgbGVuZ3RoQWRqdXN0PSJzcGFjaW5nIiB0ZXh0TGVuZ3RoPSI5MCIgeD0iOTUiIHk9IjM1Mi41NTQ3Ij4mIzM1ODU7JiMzNjA0OyYjMzYxMTsmIzM2NDA7JiMzNjU2OyYjMzYxNzsgIkNyZWF0ZSI8L3RleHQ+PHBvbHlnb24gZmlsbD0iIzE4MTgxOCIgcG9pbnRzPSI1NzAsMzgwLjA5MzgsNTgwLDM4NC4wOTM4LDU3MCwzODguMDkzOCw1NzQsMzg0LjA5MzgiIHN0eWxlPSJzdHJva2U6IzE4MTgxODtzdHJva2Utd2lkdGg6MS4wOyIvPjxsaW5lIHN0eWxlPSJzdHJva2U6IzE4MTgxODtzdHJva2Utd2lkdGg6MS4wOyIgeDE9IjMyMyIgeDI9IjU3NiIgeTE9IjM4NC4wOTM4IiB5Mj0iMzg0LjA5MzgiLz48dGV4dCBmaWxsPSIjMDAwMDAwIiBmb250LWZhbWlseT0iU2FyYWJ1biIgZm9udC1zaXplPSIxMyIgZm9udC13ZWlnaHQ9ImJvbGQiIGxlbmd0aEFkanVzdD0ic3BhY2luZyIgdGV4dExlbmd0aD0iNyIgeD0iMzMwIiB5PSIzODAuNDY4OCI+OTwvdGV4dD48dGV4dCBmaWxsPSIjMDAwMDAwIiBmb250LWZhbWlseT0iU2FyYWJ1biIgZm9udC1zaXplPSIxMyIgbGVuZ3RoQWRqdXN0PSJzcGFjaW5nIiB0ZXh0TGVuZ3RoPSI5MSIgeD0iMzQxIiB5PSIzODAuNDY4OCI+JiMzNjI2OyYjMzY1NjsmIzM1OTE7JiMzNTg2OyYjMzY1NzsmIzM2Mjk7JiMzNjE3OyYjMzY0MTsmIzM2MjE7JiMzNTg2OyYjMzYyOTsmIzM1OTE7JiMzNTg4OyYjMzYyOTsmIzM2MTk7JiMzNjYwOyYjMzYyNjs8L3RleHQ+PGxpbmUgc3R5bGU9InN0cm9rZTojMTgxODE4O3N0cm9rZS13aWR0aDoxLjA7IiB4MT0iNTk3IiB4Mj0iNjM5IiB5MT0iNDEyLjAwNzgiIHkyPSI0MTIuMDA3OCIvPjxsaW5lIHN0eWxlPSJzdHJva2U6IzE4MTgxODtzdHJva2Utd2lkdGg6MS4wOyIgeDE9IjYzOSIgeDI9IjYzOSIgeTE9IjQxMi4wMDc4IiB5Mj0iNDI1LjAwNzgiLz48bGluZSBzdHlsZT0ic3Ryb2tlOiMxODE4MTg7c3Ryb2tlLXdpZHRoOjEuMDsiIHgxPSI1OTgiIHgyPSI2MzkiIHkxPSI0MjUuMDA3OCIgeTI9IjQyNS4wMDc4Ii8+PHBvbHlnb24gZmlsbD0iIzE4MTgxOCIgcG9pbnRzPSI2MDgsNDIxLjAwNzgsNTk4LDQyNS4wMDc4LDYwOCw0MjkuMDA3OCw2MDQsNDI1LjAwNzgiIHN0eWxlPSJzdHJva2U6IzE4MTgxODtzdHJva2Utd2lkdGg6MS4wOyIvPjx0ZXh0IGZpbGw9IiMwMDAwMDAiIGZvbnQtZmFtaWx5PSJTYXJhYnVuIiBmb250LXNpemU9IjEzIiBmb250LXdlaWdodD0iYm9sZCIgbGVuZ3RoQWRqdXN0PSJzcGFjaW5nIiB0ZXh0TGVuZ3RoPSIxNCIgeD0iNjA0IiB5PSI0MDguMzgyOCI+MTA8L3RleHQ+PHRleHQgZmlsbD0iIzAwMDAwMCIgZm9udC1mYW1pbHk9IlNhcmFidW4iIGZvbnQtc2l6ZT0iMTMiIGxlbmd0aEFkanVzdD0ic3BhY2luZyIgdGV4dExlbmd0aD0iMTEyIiB4PSI2MjIiIHk9IjQwOC4zODI4Ij4mIzM2MDU7JiMzNjE5OyYjMzYyMzsmIzM1OTI7JiMzNjI2OyYjMzYyOTsmIzM2MTA7JiMzNTg2OyYjMzY1NzsmIzM2Mjk7JiMzNjE3OyYjMzY0MTsmIzM2MjE7JiMzNjA3OyYjMzYzNzsmIzM2NTY7JiMzNTg1OyYjMzYxOTsmIzM2Mjk7JiMzNTg1OzwvdGV4dD48cGF0aCBkPSJNMjYyLDQ3MC4wMDc4IEwzNDIsNDcwLjAwNzggTDM0Miw0NzUuOTIxOSBMMzMyLDQ4NS45MjE5IEwyNjIsNDg1LjkyMTkgTDI2Miw0NzAuMDA3OCAiIGZpbGw9IiNFRUVFRUUiIHN0eWxlPSJzdHJva2U6IzAwMDAwMDtzdHJva2Utd2lkdGg6MS41OyIvPjxyZWN0IGZpbGw9Im5vbmUiIGhlaWdodD0iMTAxLjc0MjIiIHN0eWxlPSJzdHJva2U6IzAwMDAwMDtzdHJva2Utd2lkdGg6MS41OyIgd2lkdGg9IjU2NS41IiB4PSIyNjIiIHk9IjQ3MC4wMDc4Ii8+PHRleHQgZmlsbD0iIzAwMDAwMCIgZm9udC1mYW1pbHk9IlNhcmFidW4iIGZvbnQtc2l6ZT0iMTMiIGZvbnQtd2VpZ2h0PSJib2xkIiBsZW5ndGhBZGp1c3Q9InNwYWNpbmciIHRleHRMZW5ndGg9IjM1IiB4PSIyNzciIHk9IjQ4My4yOTY5Ij5icmVhazwvdGV4dD48dGV4dCBmaWxsPSIjMDAwMDAwIiBmb250LWZhbWlseT0iU2FyYWJ1biIgZm9udC1zaXplPSIxMSIgZm9udC13ZWlnaHQ9ImJvbGQiIGxlbmd0aEFkanVzdD0ic3BhY2luZyIgdGV4dExlbmd0aD0iOTQiIHg9IjM1NyIgeT0iNDgyLjQwNjMiPlsmIzM1ODY7JiMzNjU3OyYjMzYyOTsmIzM2MTc7JiMzNjQxOyYjMzYyMTsmIzM2MDc7JiMzNjM3OyYjMzY1NjsmIzM1ODU7JiMzNjE5OyYjMzYyOTsmIzM1ODU7JiMzNjA2OyYjMzY0MTsmIzM1ODU7JiMzNjA1OyYjMzY1NzsmIzM2Mjk7JiMzNTkxO108L3RleHQ+PGxpbmUgc3R5bGU9InN0cm9rZTojMTgxODE4O3N0cm9rZS13aWR0aDoxLjA7IiB4MT0iNzcyIiB4Mj0iNzYyIiB5MT0iNTA1LjgzNTkiIHkyPSI1MDEuODM1OSIvPjxsaW5lIHN0eWxlPSJzdHJva2U6IzE4MTgxODtzdHJva2Utd2lkdGg6MS4wOyIgeDE9Ijc3MiIgeDI9Ijc2MiIgeTE9IjUwNS44MzU5IiB5Mj0iNTA5LjgzNTkiLz48bGluZSBzdHlsZT0ic3Ryb2tlOiMxODE4MTg7c3Ryb2tlLXdpZHRoOjEuMDsiIHgxPSI1OTIiIHgyPSI3NzMiIHkxPSI1MDUuODM1OSIgeTI9IjUwNS44MzU5Ii8+PHRleHQgZmlsbD0iIzAwMDAwMCIgZm9udC1mYW1pbHk9IlNhcmFidW4iIGZvbnQtc2l6ZT0iMTMiIGZvbnQtd2VpZ2h0PSJib2xkIiBsZW5ndGhBZGp1c3Q9InNwYWNpbmciIHRleHRMZW5ndGg9IjE0IiB4PSI1OTkiIHk9IjUwMi4yMTA5Ij4xMTwvdGV4dD48dGV4dCBmaWxsPSIjMDAwMDAwIiBmb250LWZhbWlseT0iU2FyYWJ1biIgZm9udC1zaXplPSIxMyIgbGVuZ3RoQWRqdXN0PSJzcGFjaW5nIiB0ZXh0TGVuZ3RoPSIxMDQiIHg9IjYxNyIgeT0iNTAyLjIxMDkiPiYjMzY0ODsmIzM1ODY7JiMzNjM3OyYjMzYxODsmIzM2MDk7JiMzNTg2OyYjMzY1NzsmIzM2Mjk7JiMzNjE3OyYjMzY0MTsmIzM2MjE7JiMzNTg2OyYjMzYyOTsmIzM1OTE7JiMzNTg4OyYjMzYyOTsmIzM2MTk7JiMzNjYwOyYjMzYyNjs8L3RleHQ+PHBvbHlnb24gZmlsbD0iIzE4MTgxOCIgcG9pbnRzPSIzMzQsNTU5Ljc1LDMyNCw1NjMuNzUsMzM0LDU2Ny43NSwzMzAsNTYzLjc1IiBzdHlsZT0ic3Ryb2tlOiMxODE4MTg7c3Ryb2tlLXdpZHRoOjEuMDsiLz48bGluZSBzdHlsZT0ic3Ryb2tlOiMxODE4MTg7c3Ryb2tlLXdpZHRoOjEuMDtzdHJva2UtZGFzaGFycmF5OjIuMCwyLjA7IiB4MT0iMzI4IiB4Mj0iNTg2IiB5MT0iNTYzLjc1IiB5Mj0iNTYzLjc1Ii8+PHRleHQgZmlsbD0iIzAwMDAwMCIgZm9udC1mYW1pbHk9IlNhcmFidW4iIGZvbnQtc2l6ZT0iMTMiIGZvbnQtd2VpZ2h0PSJib2xkIiBsZW5ndGhBZGp1c3Q9InNwYWNpbmciIHRleHRMZW5ndGg9IjE0IiB4PSIzNDAiIHk9IjU2MC4xMjUiPjEyPC90ZXh0Pjx0ZXh0IGZpbGw9IiMwMDAwMDAiIGZvbnQtZmFtaWx5PSJTYXJhYnVuIiBmb250LXNpemU9IjEzIiBsZW5ndGhBZGp1c3Q9InNwYWNpbmciIHRleHRMZW5ndGg9IjkxIiB4PSIzNTgiIHk9IjU2MC4xMjUiPiYjMzYxMjsmIzM2MjE7JiMzNTg1OyYjMzYzNDsmIzM2MTk7JiMzNjI2OyYjMzYxOTsmIzM2NTc7JiMzNjM0OyYjMzU5MTsmIzM1ODg7JiMzNjI5OyYjMzYxOTsmIzM2NjA7JiMzNjI2OzwvdGV4dD48cG9seWdvbiBmaWxsPSIjMTgxODE4IiBwb2ludHM9IjMzNCw1OTQuNjY0MSwzMjQsNTk4LjY2NDEsMzM0LDYwMi42NjQxLDMzMCw1OTguNjY0MSIgc3R5bGU9InN0cm9rZTojMTgxODE4O3N0cm9rZS13aWR0aDoxLjA7Ii8+PGxpbmUgc3R5bGU9InN0cm9rZTojMTgxODE4O3N0cm9rZS13aWR0aDoxLjA7c3Ryb2tlLWRhc2hhcnJheToyLjAsMi4wOyIgeDE9IjMyOCIgeDI9IjU4NiIgeTE9IjU5OC42NjQxIiB5Mj0iNTk4LjY2NDEiLz48dGV4dCBmaWxsPSIjMDAwMDAwIiBmb250LWZhbWlseT0iU2FyYWJ1biIgZm9udC1zaXplPSIxMyIgZm9udC13ZWlnaHQ9ImJvbGQiIGxlbmd0aEFkanVzdD0ic3BhY2luZyIgdGV4dExlbmd0aD0iMTQiIHg9IjM0MCIgeT0iNTk1LjAzOTEiPjEzPC90ZXh0Pjx0ZXh0IGZpbGw9IiMwMDAwMDAiIGZvbnQtZmFtaWx5PSJTYXJhYnVuIiBmb250LXNpemU9IjEzIiBsZW5ndGhBZGp1c3Q9InNwYWNpbmciIHRleHRMZW5ndGg9IjIyMiIgeD0iMzU4IiB5PSI1OTUuMDM5MSI+JiMzNjI2OyYjMzYzMzsmIzM2NTY7JiMzNTkxOyYjMzY1MTsmIzM2Mjc7JiMzNjU3OyYjMzY0OTsmIzM1OTI7JiMzNjU3OyYjMzU5MTsmIzM2NDg7JiMzNjA1OyYjMzYzOTsmIzM2Mjk7JiMzNjA5OyYjMzYxMjsmIzM2NDE7JiMzNjU3OyYjMzY1MTsmIzM1OTQ7JiMzNjU3OyYjMzY1MTsmIzM2Mjc7JiMzNjU3OyYjMzYwNTsmIzM2MTk7JiMzNjIzOyYjMzU5MjsmIzM2MjY7JiMzNjI5OyYjMzYxMDsmIzM1ODY7JiMzNjU3OyYjMzYyOTsmIzM2MTc7JiMzNjQxOyYjMzYyMTsmIzM2MDc7JiMzNjM3OyYjMzY1NjsmIzM1ODU7JiMzNjE5OyYjMzYyOTsmIzM1ODU7PC90ZXh0Pjxwb2x5Z29uIGZpbGw9IiMxODE4MTgiIHBvaW50cz0iODgsNjIyLjU3ODEsNzgsNjI2LjU3ODEsODgsNjMwLjU3ODEsODQsNjI2LjU3ODEiIHN0eWxlPSJzdHJva2U6IzE4MTgxODtzdHJva2Utd2lkdGg6MS4wOyIvPjxsaW5lIHN0eWxlPSJzdHJva2U6IzE4MTgxODtzdHJva2Utd2lkdGg6MS4wO3N0cm9rZS1kYXNoYXJyYXk6Mi4wLDIuMDsiIHgxPSI4MiIgeDI9IjMxMiIgeTE9IjYyNi41NzgxIiB5Mj0iNjI2LjU3ODEiLz48dGV4dCBmaWxsPSIjMDAwMDAwIiBmb250LWZhbWlseT0iU2FyYWJ1biIgZm9udC1zaXplPSIxMyIgZm9udC13ZWlnaHQ9ImJvbGQiIGxlbmd0aEFkanVzdD0ic3BhY2luZyIgdGV4dExlbmd0aD0iMTQiIHg9Ijk0IiB5PSI2MjIuOTUzMSI+MTQ8L3RleHQ+PHRleHQgZmlsbD0iIzAwMDAwMCIgZm9udC1mYW1pbHk9IlNhcmFidW4iIGZvbnQtc2l6ZT0iMTMiIGxlbmd0aEFkanVzdD0ic3BhY2luZyIgdGV4dExlbmd0aD0iMTk0IiB4PSIxMTIiIHk9IjYyMi45NTMxIj4mIzM2NDk7JiMzNTkyOyYjMzY1NzsmIzM1OTE7JiMzNjQ4OyYjMzYwNTsmIzM2Mzk7JiMzNjI5OyYjMzYwOTsmIzM2MTI7JiMzNjQxOyYjMzY1NzsmIzM2NTE7JiMzNTk0OyYjMzY1NzsmIzM2NTE7JiMzNjI3OyYjMzY1NzsmIzM2MDU7JiMzNjE5OyYjMzYyMzsmIzM1OTI7JiMzNjI2OyYjMzYyOTsmIzM2MTA7JiMzNTg2OyYjMzY1NzsmIzM2Mjk7JiMzNjE3OyYjMzY0MTsmIzM2MjE7JiMzNjA3OyYjMzYzNzsmIzM2NTY7JiMzNTg1OyYjMzYxOTsmIzM2Mjk7JiMzNTg1OzwvdGV4dD48cG9seWdvbiBmaWxsPSIjMTgxODE4IiBwb2ludHM9Ijg4LDY1Ny40OTIyLDc4LDY2MS40OTIyLDg4LDY2NS40OTIyLDg0LDY2MS40OTIyIiBzdHlsZT0ic3Ryb2tlOiMxODE4MTg7c3Ryb2tlLXdpZHRoOjEuMDsiLz48bGluZSBzdHlsZT0ic3Ryb2tlOiMxODE4MTg7c3Ryb2tlLXdpZHRoOjEuMDtzdHJva2UtZGFzaGFycmF5OjIuMCwyLjA7IiB4MT0iODIiIHgyPSIzMTIiIHkxPSI2NjEuNDkyMiIgeTI9IjY2MS40OTIyIi8+PHRleHQgZmlsbD0iIzAwMDAwMCIgZm9udC1mYW1pbHk9IlNhcmFidW4iIGZvbnQtc2l6ZT0iMTMiIGZvbnQtd2VpZ2h0PSJib2xkIiBsZW5ndGhBZGp1c3Q9InNwYWNpbmciIHRleHRMZW5ndGg9IjE0IiB4PSI5NCIgeT0iNjU3Ljg2NzIiPjE1PC90ZXh0Pjx0ZXh0IGZpbGw9IiMwMDAwMDAiIGZvbnQtZmFtaWx5PSJTYXJhYnVuIiBmb250LXNpemU9IjEzIiBsZW5ndGhBZGp1c3Q9InNwYWNpbmciIHRleHRMZW5ndGg9IjExOCIgeD0iMTEyIiB5PSI2NTcuODY3MiI+JiMzNjQ5OyYjMzYyNjsmIzM2MDQ7JiMzNTkxOyYjMzYxMjsmIzM2MjE7JiMzNTg1OyYjMzYzNDsmIzM2MTk7JiMzNjI2OyYjMzYxOTsmIzM2NTc7JiMzNjM0OyYjMzU5MTsmIzM1ODg7JiMzNjI5OyYjMzYxOTsmIzM2NjA7JiMzNjI2OzwvdGV4dD48cG9seWdvbiBmaWxsPSIjMTgxODE4IiBwb2ludHM9IjMwMSw2ODUuNDA2MywzMTEsNjg5LjQwNjMsMzAxLDY5My40MDYzLDMwNSw2ODkuNDA2MyIgc3R5bGU9InN0cm9rZTojMTgxODE4O3N0cm9rZS13aWR0aDoxLjA7Ii8+PGxpbmUgc3R5bGU9InN0cm9rZTojMTgxODE4O3N0cm9rZS13aWR0aDoxLjA7IiB4MT0iNzciIHgyPSIzMDciIHkxPSI2ODkuNDA2MyIgeTI9IjY4OS40MDYzIi8+PHRleHQgZmlsbD0iIzAwMDAwMCIgZm9udC1mYW1pbHk9IlNhcmFidW4iIGZvbnQtc2l6ZT0iMTMiIGZvbnQtd2VpZ2h0PSJib2xkIiBsZW5ndGhBZGp1c3Q9InNwYWNpbmciIHRleHRMZW5ndGg9IjE0IiB4PSI4NCIgeT0iNjg1Ljc4MTMiPjE2PC90ZXh0Pjx0ZXh0IGZpbGw9IiMwMDAwMDAiIGZvbnQtZmFtaWx5PSJTYXJhYnVuIiBmb250LXNpemU9IjEzIiBsZW5ndGhBZGp1c3Q9InNwYWNpbmciIHRleHRMZW5ndGg9IjYzIiB4PSIxMDIiIHk9IjY4NS43ODEzIj4mIzM1ODU7JiMzNjA0OyYjMzYxMTsmIzM2NDA7JiMzNjU2OyYjMzYxNzsgIk9LIjwvdGV4dD48cG9seWdvbiBmaWxsPSIjMTgxODE4IiBwb2ludHM9IjU3MCw3MTMuMzIwMyw1ODAsNzE3LjMyMDMsNTcwLDcyMS4zMjAzLDU3NCw3MTcuMzIwMyIgc3R5bGU9InN0cm9rZTojMTgxODE4O3N0cm9rZS13aWR0aDoxLjA7Ii8+PGxpbmUgc3R5bGU9InN0cm9rZTojMTgxODE4O3N0cm9rZS13aWR0aDoxLjA7IiB4MT0iMzIzIiB4Mj0iNTc2IiB5MT0iNzE3LjMyMDMiIHkyPSI3MTcuMzIwMyIvPjx0ZXh0IGZpbGw9IiMwMDAwMDAiIGZvbnQtZmFtaWx5PSJTYXJhYnVuIiBmb250LXNpemU9IjEzIiBmb250LXdlaWdodD0iYm9sZCIgbGVuZ3RoQWRqdXN0PSJzcGFjaW5nIiB0ZXh0TGVuZ3RoPSIxNCIgeD0iMzMwIiB5PSI3MTMuNjk1MyI+MTc8L3RleHQ+PHRleHQgZmlsbD0iIzAwMDAwMCIgZm9udC1mYW1pbHk9IlNhcmFidW4iIGZvbnQtc2l6ZT0iMTMiIGxlbmd0aEFkanVzdD0ic3BhY2luZyIgdGV4dExlbmd0aD0iOTAiIHg9IjM0OCIgeT0iNzEzLjY5NTMiPiYjMzU4NjsmIzM2Mjk7JiMzNjQ4OyYjMzU4NjsmIzM2NTc7JiMzNjM0OyYjMzYwNjsmIzM2Mzg7JiMzNTkxOyYjMzYyNzsmIzM2MDk7JiMzNjU3OyYjMzYzNDsmIzM2Mjc7JiMzNjIxOyYjMzYzMzsmIzM1ODU7PC90ZXh0Pjxwb2x5Z29uIGZpbGw9IiMxODE4MTgiIHBvaW50cz0iMzM0LDc0MS4yMzQ0LDMyNCw3NDUuMjM0NCwzMzQsNzQ5LjIzNDQsMzMwLDc0NS4yMzQ0IiBzdHlsZT0ic3Ryb2tlOiMxODE4MTg7c3Ryb2tlLXdpZHRoOjEuMDsiLz48bGluZSBzdHlsZT0ic3Ryb2tlOiMxODE4MTg7c3Ryb2tlLXdpZHRoOjEuMDtzdHJva2UtZGFzaGFycmF5OjIuMCwyLjA7IiB4MT0iMzI4IiB4Mj0iNTg2IiB5MT0iNzQ1LjIzNDQiIHkyPSI3NDUuMjM0NCIvPjx0ZXh0IGZpbGw9IiMwMDAwMDAiIGZvbnQtZmFtaWx5PSJTYXJhYnVuIiBmb250LXNpemU9IjEzIiBmb250LXdlaWdodD0iYm9sZCIgbGVuZ3RoQWRqdXN0PSJzcGFjaW5nIiB0ZXh0TGVuZ3RoPSIxNCIgeD0iMzQwIiB5PSI3NDEuNjA5NCI+MTg8L3RleHQ+PHRleHQgZmlsbD0iIzAwMDAwMCIgZm9udC1mYW1pbHk9IlNhcmFidW4iIGZvbnQtc2l6ZT0iMTMiIGxlbmd0aEFkanVzdD0ic3BhY2luZyIgdGV4dExlbmd0aD0iNDIiIHg9IjM1OCIgeT0iNzQxLjYwOTQiPiYjMzYyNzsmIzM2MDk7JiMzNjU3OyYjMzYzNDsmIzM2Mjc7JiMzNjIxOyYjMzYzMzsmIzM1ODU7PC90ZXh0Pjxwb2x5Z29uIGZpbGw9IiMxODE4MTgiIHBvaW50cz0iODMsNzY5LjE0ODQsNzMsNzczLjE0ODQsODMsNzc3LjE0ODQsNzksNzczLjE0ODQiIHN0eWxlPSJzdHJva2U6IzE4MTgxODtzdHJva2Utd2lkdGg6MS4wOyIvPjxsaW5lIHN0eWxlPSJzdHJva2U6IzE4MTgxODtzdHJva2Utd2lkdGg6MS4wO3N0cm9rZS1kYXNoYXJyYXk6Mi4wLDIuMDsiIHgxPSI3NyIgeDI9IjMxNyIgeTE9Ijc3My4xNDg0IiB5Mj0iNzczLjE0ODQiLz48dGV4dCBmaWxsPSIjMDAwMDAwIiBmb250LWZhbWlseT0iU2FyYWJ1biIgZm9udC1zaXplPSIxMyIgZm9udC13ZWlnaHQ9ImJvbGQiIGxlbmd0aEFkanVzdD0ic3BhY2luZyIgdGV4dExlbmd0aD0iMTQiIHg9Ijg5IiB5PSI3NjkuNTIzNCI+MTk8L3RleHQ+PHRleHQgZmlsbD0iIzAwMDAwMCIgZm9udC1mYW1pbHk9IlNhcmFidW4iIGZvbnQtc2l6ZT0iMTMiIGxlbmd0aEFkanVzdD0ic3BhY2luZyIgdGV4dExlbmd0aD0iNjkiIHg9IjEwNyIgeT0iNzY5LjUyMzQiPiYjMzY0OTsmIzM2MjY7JiMzNjA0OyYjMzU5MTsmIzM2Mjc7JiMzNjA5OyYjMzY1NzsmIzM2MzQ7JiMzNjI3OyYjMzYyMTsmIzM2MzM7JiMzNTg1OzwvdGV4dD48IS0tU1JDPVtsTExEUnpHbTRCdHhMcll2TDVnZklEbFo3WlltWTBpMjNna0FpeEZoWFFZUlBFS3V4Uk0xSWhpV1poSWVtQUxLTFFMS0lCR0l1Rm9SLUlkT2FwWnhiVDI0YlJXYTR0bHl0aHB2U0E4M0J2V29tTnBnWHE0dVYycjJkckNmT2F3WVNjVjRub29VbzJUWDg5eXBsSnRHZ3N1UzQxUkJDOFh6Ym1qMmYyU2RkRXY3ZEZRUFZrcHJBQVd2ZzVqRzdxNGJlRXYwTk84dzBWTlQ2RGE3SzJkbmNIVUNYSzdpVEE5SGZxRVZpTzJ6dWxxbTVYNGRIOURCUi1YRE1JMmY0cWFzN2xTcWxkMGVZLVowVkF2d3o1dm96djQ4WnduQk9NeXczUld1ajMxZWhoYXlQZkF2TVdId3MwejJhOUJrRmhKMEhjNjJ5YkFLejB2NXBqUDU0WlFLdFk2Smw4WHZ5TXEzQkR1NkVlXzc4QnluOERjbkNHaGFDcjJfNEZ5NnJCYlRSNGdUd3luVlhpWkFBZ2FBN2NyU1dDZjBOUXMxR1BSV3VXekdmeFFRbzZiWWxDUWprb04yQ2N0TWVCamh5aFBkNl81RGtiQllRZnFRZnNtOWl5WlBlWm42MDdPWG5WMUloN3NoVWtwR0lIWEVRUFZXZ29lQmRxM3pYNm9FZE5NOU1tYmE5eVIxQjl3WE1zQUlLWG9TclZRYkZMcjFhWFR5OHhwdzFseTJJYzQwNXpKZjJ3d3B1ckh0Uk9mVWluUWFWLWRIMVVtZm9oZDY2b041dXZ5UjljeUpsd0IyRXpKTGVXdmV6cTZOdjVSSnFqSEtuNGZPY1JEeWMzTTYtY09RdmJ6SUxCUHZZelJfWWozYjNUb3MtdlRwbXVESDdLamdobGd5empiUkNuQVFtV3A5N0Jkb2tUTExfOHJxdm5YTFhaeFEtUnFyeURHc25RdVJyVnlSbk1CQ0NNN3R0WHpqQWpIaUhieXlUUlJ3Z3puV0hCVUx5dEZfMVJqcVVqbGhqMWhBX1pYTnUwdEs3bTAwXS0tPjwvZz48L3N2Zz4=;" parent="1" vertex="1">
            <mxGeometry x="-120" y="-120" width="859" height="840" as="geometry" />
          </mxCell>
        </UserObject>
      </root>
    </mxGraphModel>
  </diagram>
  <diagram id="dhWS3lzKeNj6hQiJ6MbL" name="uc3">
    <mxGraphModel grid="1" page="0" gridSize="10" guides="1" tooltips="1" connect="1" arrows="1" fold="1" pageScale="1" pageWidth="100000" pageHeight="100000" math="0" shadow="0">
      <root>
        <mxCell id="0" />
        <mxCell id="1" parent="0" />
        <UserObject label="" plantUmlData="{&quot;data&quot;:&quot;@startuml\n!pragma teoz true\nskinparam monochrome true\nskinparam defaultFontName Sarabun\n\ntitle Use Case 3: สมัครคอร์ส\nmainframe **sd** EnrollCourse\n\nparticipant \&quot;customer:User\&quot; as Customer\nparticipant \&quot;:WebBrowser\&quot; as Browser\nparticipant \&quot;:WebServer\&quot; as Server\nparticipant \&quot;:Database\&quot; as Database\n\nautonumber\n\nactivate Customer\nCustomer -&gt; Browser: กดปุ่ม \&quot;ENROLL COURSE\&quot;\n\nactivate Browser\nBrowser -&gt; Server: ขอเข้าถึงหน้าสมัครคอร์ส\n\nactivate Server\nServer -&gt; Database: ขอข้อมูลคอร์สและตารางเวลา\n\nactivate Database\nDatabase --&gt; Server: ข้อมูลคอร์สและตารางเวลา\ndeactivate Database\n\nServer --&gt; Browser: หน้าสมัครคอร์ส\ndeactivate Server\n\nBrowser --&gt; Customer: แสดงหน้าสมัครคอร์ส\n\nCustomer -&gt; Browser: เลือกคอร์ส\nCustomer -&gt; Browser: กดปุ่ม \&quot;View\&quot;\nBrowser --&gt; Customer: แสดงหน้ายืนยันรายละเอียดคอร์ส\n\nCustomer -&gt; Browser: กดปุ่ม \&quot;Confirm\&quot;\n\ndeactivate Browser\n\ndeactivate Customer\n@enduml\n&quot;,&quot;format&quot;:&quot;svg&quot;}" id="8nDBpJvPZ1y-AzFFjudE-1">
          <mxCell style="shape=image;noLabel=1;verticalAlign=top;aspect=fixed;imageAspect=0;image=data:image/svg+xml,PD94bWwgdmVyc2lvbj0iMS4wIiBlbmNvZGluZz0idXMtYXNjaWkiIHN0YW5kYWxvbmU9Im5vIj8+PHN2ZyB4bWxucz0iaHR0cDovL3d3dy53My5vcmcvMjAwMC9zdmciIHhtbG5zOnhsaW5rPSJodHRwOi8vd3d3LnczLm9yZy8xOTk5L3hsaW5rIiBjb250ZW50U3R5bGVUeXBlPSJ0ZXh0L2NzcyIgaGVpZ2h0PSI0NTVweCIgcHJlc2VydmVBc3BlY3RSYXRpbz0ibm9uZSIgc3R5bGU9IndpZHRoOjY5MXB4O2hlaWdodDo0NTVweDtiYWNrZ3JvdW5kOiNGRkZGRkY7IiB2ZXJzaW9uPSIxLjEiIHZpZXdCb3g9IjAgMCA2OTEgNDU1IiB3aWR0aD0iNjkxcHgiIHpvb21BbmRQYW49Im1hZ25pZnkiPjxkZWZzLz48Zz48dGV4dCBmaWxsPSIjMDAwMDAwIiBmb250LWZhbWlseT0iU2FyYWJ1biIgZm9udC1zaXplPSIxNCIgZm9udC13ZWlnaHQ9ImJvbGQiIGxlbmd0aEFkanVzdD0ic3BhY2luZyIgdGV4dExlbmd0aD0iMTQxIiB4PSIyNjMuNzUiIHk9IjI4LjIzNDQiPlVzZSBDYXNlIDM6ICYjMzYyNjsmIzM2MTc7JiMzNjMzOyYjMzU4ODsmIzM2MTk7JiMzNTg4OyYjMzYyOTsmIzM2MTk7JiMzNjYwOyYjMzYyNjs8L3RleHQ+PHJlY3QgZmlsbD0iI0ZGRkZGRiIgaGVpZ2h0PSIzOTguMDc4MSIgc3R5bGU9InN0cm9rZTojMTgxODE4O3N0cm9rZS13aWR0aDoxLjU7IiB3aWR0aD0iNjgxLjUiIHg9IjQiIHk9IjUwLjk4NDQiLz48cGF0aCBkPSJNMTE5LDUwLjk4NDQgTDExOSw1OC45Njg4IEwxMDksNjguOTY4OCBMNCw2OC45Njg4ICIgZmlsbD0ibm9uZSIgc3R5bGU9InN0cm9rZTojMTgxODE4O3N0cm9rZS13aWR0aDoxLjU7Ii8+PHRleHQgZmlsbD0iIzAwMDAwMCIgZm9udC1mYW1pbHk9IlNhcmFidW4iIGZvbnQtc2l6ZT0iMTQiIGZvbnQtd2VpZ2h0PSJib2xkIiBsZW5ndGhBZGp1c3Q9InNwYWNpbmciIHRleHRMZW5ndGg9IjE0IiB4PSI3IiB5PSI2NS4yMTg4Ij5zZDwvdGV4dD48dGV4dCBmaWxsPSIjMDAwMDAwIiBmb250LWZhbWlseT0iU2FyYWJ1biIgZm9udC1zaXplPSIxNCIgbGVuZ3RoQWRqdXN0PSJzcGFjaW5nIiB0ZXh0TGVuZ3RoPSI4NCIgeD0iMjgiIHk9IjY1LjIxODgiPkVucm9sbENvdXJzZTwvdGV4dD48bGluZSBzdHlsZT0ic3Ryb2tlOiMxODE4MTg7c3Ryb2tlLXdpZHRoOjAuNTtzdHJva2UtZGFzaGFycmF5OjUuMCw1LjA7IiB4MT0iNjMiIHgyPSI2MyIgeTE9IjEwNy45NTMxIiB5Mj0iNDA1LjA5MzgiLz48cmVjdCBmaWxsPSIjRkZGRkZGIiBoZWlnaHQ9IjI4NC4xNDA2IiBzdHlsZT0ic3Ryb2tlOiMxODE4MTg7c3Ryb2tlLXdpZHRoOjEuMDsiIHdpZHRoPSIxMCIgeD0iNTgiIHk9IjExNS45NTMxIi8+PGxpbmUgc3R5bGU9InN0cm9rZTojMTgxODE4O3N0cm9rZS13aWR0aDowLjU7c3Ryb2tlLWRhc2hhcnJheTo1LjAsNS4wOyIgeDE9IjI3NCIgeDI9IjI3NCIgeTE9IjEwNy45NTMxIiB5Mj0iNDA1LjA5MzgiLz48cmVjdCBmaWxsPSIjRkZGRkZGIiBoZWlnaHQ9IjI1MS4yMjY2IiBzdHlsZT0ic3Ryb2tlOiMxODE4MTg7c3Ryb2tlLXdpZHRoOjEuMDsiIHdpZHRoPSIxMCIgeD0iMjY5IiB5PSIxMzUuODY3MiIvPjxsaW5lIHN0eWxlPSJzdHJva2U6IzE4MTgxODtzdHJva2Utd2lkdGg6MC41O3N0cm9rZS1kYXNoYXJyYXk6NS4wLDUuMDsiIHgxPSI0MzkiIHgyPSI0MzkiIHkxPSIxMDcuOTUzMSIgeTI9IjQwNS4wOTM4Ii8+PHJlY3QgZmlsbD0iI0ZGRkZGRiIgaGVpZ2h0PSI4My43NDIyIiBzdHlsZT0ic3Ryb2tlOiMxODE4MTg7c3Ryb2tlLXdpZHRoOjEuMDsiIHdpZHRoPSIxMCIgeD0iNDM0IiB5PSIxNjMuNzgxMyIvPjxsaW5lIHN0eWxlPSJzdHJva2U6IzE4MTgxODtzdHJva2Utd2lkdGg6MC41O3N0cm9rZS1kYXNoYXJyYXk6NS4wLDUuMDsiIHgxPSI2MzEiIHgyPSI2MzEiIHkxPSIxMDcuOTUzMSIgeTI9IjQwNS4wOTM4Ii8+PHJlY3QgZmlsbD0iI0ZGRkZGRiIgaGVpZ2h0PSIyNy45MTQxIiBzdHlsZT0ic3Ryb2tlOiMxODE4MTg7c3Ryb2tlLXdpZHRoOjEuMDsiIHdpZHRoPSIxMCIgeD0iNjI2IiB5PSIxOTEuNjk1MyIvPjxyZWN0IGZpbGw9IiNFM0UzRTMiIGhlaWdodD0iMjguOTg0NCIgcng9IjIuNSIgcnk9IjIuNSIgc3R5bGU9InN0cm9rZTojMTgxODE4O3N0cm9rZS13aWR0aDowLjU7IiB3aWR0aD0iMTA2IiB4PSIxMCIgeT0iNzcuOTY4OCIvPjx0ZXh0IGZpbGw9IiMwMDAwMDAiIGZvbnQtZmFtaWx5PSJTYXJhYnVuIiBmb250LXNpemU9IjE0IiBsZW5ndGhBZGp1c3Q9InNwYWNpbmciIHRleHRMZW5ndGg9IjkyIiB4PSIxNyIgeT0iOTguMjAzMSI+Y3VzdG9tZXI6VXNlcjwvdGV4dD48cmVjdCBmaWxsPSIjRTNFM0UzIiBoZWlnaHQ9IjI4Ljk4NDQiIHJ4PSIyLjUiIHJ5PSIyLjUiIHN0eWxlPSJzdHJva2U6IzE4MTgxODtzdHJva2Utd2lkdGg6MC41OyIgd2lkdGg9IjkyIiB4PSIyMjgiIHk9Ijc3Ljk2ODgiLz48dGV4dCBmaWxsPSIjMDAwMDAwIiBmb250LWZhbWlseT0iU2FyYWJ1biIgZm9udC1zaXplPSIxNCIgbGVuZ3RoQWRqdXN0PSJzcGFjaW5nIiB0ZXh0TGVuZ3RoPSI3OCIgeD0iMjM1IiB5PSI5OC4yMDMxIj46V2ViQnJvd3NlcjwvdGV4dD48cmVjdCBmaWxsPSIjRTNFM0UzIiBoZWlnaHQ9IjI4Ljk4NDQiIHJ4PSIyLjUiIHJ5PSIyLjUiIHN0eWxlPSJzdHJva2U6IzE4MTgxODtzdHJva2Utd2lkdGg6MC41OyIgd2lkdGg9Ijg0IiB4PSIzOTciIHk9Ijc3Ljk2ODgiLz48dGV4dCBmaWxsPSIjMDAwMDAwIiBmb250LWZhbWlseT0iU2FyYWJ1biIgZm9udC1zaXplPSIxNCIgbGVuZ3RoQWRqdXN0PSJzcGFjaW5nIiB0ZXh0TGVuZ3RoPSI3MCIgeD0iNDA0IiB5PSI5OC4yMDMxIj46V2ViU2VydmVyPC90ZXh0PjxyZWN0IGZpbGw9IiNFM0UzRTMiIGhlaWdodD0iMjguOTg0NCIgcng9IjIuNSIgcnk9IjIuNSIgc3R5bGU9InN0cm9rZTojMTgxODE4O3N0cm9rZS13aWR0aDowLjU7IiB3aWR0aD0iNzciIHg9IjU5Mi41IiB5PSI3Ny45Njg4Ii8+PHRleHQgZmlsbD0iIzAwMDAwMCIgZm9udC1mYW1pbHk9IlNhcmFidW4iIGZvbnQtc2l6ZT0iMTQiIGxlbmd0aEFkanVzdD0ic3BhY2luZyIgdGV4dExlbmd0aD0iNjMiIHg9IjU5OS41IiB5PSI5OC4yMDMxIj46RGF0YWJhc2U8L3RleHQ+PHJlY3QgZmlsbD0iI0UzRTNFMyIgaGVpZ2h0PSIyOC45ODQ0IiByeD0iMi41IiByeT0iMi41IiBzdHlsZT0ic3Ryb2tlOiMxODE4MTg7c3Ryb2tlLXdpZHRoOjAuNTsiIHdpZHRoPSIxMDYiIHg9IjEwIiB5PSI0MDUuMDkzOCIvPjx0ZXh0IGZpbGw9IiMwMDAwMDAiIGZvbnQtZmFtaWx5PSJTYXJhYnVuIiBmb250LXNpemU9IjE0IiBsZW5ndGhBZGp1c3Q9InNwYWNpbmciIHRleHRMZW5ndGg9IjkyIiB4PSIxNyIgeT0iNDI1LjMyODEiPmN1c3RvbWVyOlVzZXI8L3RleHQ+PHJlY3QgZmlsbD0iI0UzRTNFMyIgaGVpZ2h0PSIyOC45ODQ0IiByeD0iMi41IiByeT0iMi41IiBzdHlsZT0ic3Ryb2tlOiMxODE4MTg7c3Ryb2tlLXdpZHRoOjAuNTsiIHdpZHRoPSI5MiIgeD0iMjI4IiB5PSI0MDUuMDkzOCIvPjx0ZXh0IGZpbGw9IiMwMDAwMDAiIGZvbnQtZmFtaWx5PSJTYXJhYnVuIiBmb250LXNpemU9IjE0IiBsZW5ndGhBZGp1c3Q9InNwYWNpbmciIHRleHRMZW5ndGg9Ijc4IiB4PSIyMzUiIHk9IjQyNS4zMjgxIj46V2ViQnJvd3NlcjwvdGV4dD48cmVjdCBmaWxsPSIjRTNFM0UzIiBoZWlnaHQ9IjI4Ljk4NDQiIHJ4PSIyLjUiIHJ5PSIyLjUiIHN0eWxlPSJzdHJva2U6IzE4MTgxODtzdHJva2Utd2lkdGg6MC41OyIgd2lkdGg9Ijg0IiB4PSIzOTciIHk9IjQwNS4wOTM4Ii8+PHRleHQgZmlsbD0iIzAwMDAwMCIgZm9udC1mYW1pbHk9IlNhcmFidW4iIGZvbnQtc2l6ZT0iMTQiIGxlbmd0aEFkanVzdD0ic3BhY2luZyIgdGV4dExlbmd0aD0iNzAiIHg9IjQwNCIgeT0iNDI1LjMyODEiPjpXZWJTZXJ2ZXI8L3RleHQ+PHJlY3QgZmlsbD0iI0UzRTNFMyIgaGVpZ2h0PSIyOC45ODQ0IiByeD0iMi41IiByeT0iMi41IiBzdHlsZT0ic3Ryb2tlOiMxODE4MTg7c3Ryb2tlLXdpZHRoOjAuNTsiIHdpZHRoPSI3NyIgeD0iNTkyLjUiIHk9IjQwNS4wOTM4Ii8+PHRleHQgZmlsbD0iIzAwMDAwMCIgZm9udC1mYW1pbHk9IlNhcmFidW4iIGZvbnQtc2l6ZT0iMTQiIGxlbmd0aEFkanVzdD0ic3BhY2luZyIgdGV4dExlbmd0aD0iNjMiIHg9IjU5OS41IiB5PSI0MjUuMzI4MSI+OkRhdGFiYXNlPC90ZXh0Pjxwb2x5Z29uIGZpbGw9IiMxODE4MTgiIHBvaW50cz0iMjU3LDEzMS44NjcyLDI2NywxMzUuODY3MiwyNTcsMTM5Ljg2NzIsMjYxLDEzNS44NjcyIiBzdHlsZT0ic3Ryb2tlOiMxODE4MTg7c3Ryb2tlLXdpZHRoOjEuMDsiLz48bGluZSBzdHlsZT0ic3Ryb2tlOiMxODE4MTg7c3Ryb2tlLXdpZHRoOjEuMDsiIHgxPSI2OCIgeDI9IjI2MyIgeTE9IjEzNS44NjcyIiB5Mj0iMTM1Ljg2NzIiLz48dGV4dCBmaWxsPSIjMDAwMDAwIiBmb250LWZhbWlseT0iU2FyYWJ1biIgZm9udC1zaXplPSIxMyIgZm9udC13ZWlnaHQ9ImJvbGQiIGxlbmd0aEFkanVzdD0ic3BhY2luZyIgdGV4dExlbmd0aD0iNyIgeD0iNzUiIHk9IjEzMi4yNDIyIj4xPC90ZXh0Pjx0ZXh0IGZpbGw9IiMwMDAwMDAiIGZvbnQtZmFtaWx5PSJTYXJhYnVuIiBmb250LXNpemU9IjEzIiBsZW5ndGhBZGp1c3Q9InNwYWNpbmciIHRleHRMZW5ndGg9IjE0MCIgeD0iODYiIHk9IjEzMi4yNDIyIj4mIzM1ODU7JiMzNjA0OyYjMzYxMTsmIzM2NDA7JiMzNjU2OyYjMzYxNzsgIkVOUk9MTCBDT1VSU0UiPC90ZXh0Pjxwb2x5Z29uIGZpbGw9IiMxODE4MTgiIHBvaW50cz0iNDIyLDE1OS43ODEzLDQzMiwxNjMuNzgxMyw0MjIsMTY3Ljc4MTMsNDI2LDE2My43ODEzIiBzdHlsZT0ic3Ryb2tlOiMxODE4MTg7c3Ryb2tlLXdpZHRoOjEuMDsiLz48bGluZSBzdHlsZT0ic3Ryb2tlOiMxODE4MTg7c3Ryb2tlLXdpZHRoOjEuMDsiIHgxPSIyNzkiIHgyPSI0MjgiIHkxPSIxNjMuNzgxMyIgeTI9IjE2My43ODEzIi8+PHRleHQgZmlsbD0iIzAwMDAwMCIgZm9udC1mYW1pbHk9IlNhcmFidW4iIGZvbnQtc2l6ZT0iMTMiIGZvbnQtd2VpZ2h0PSJib2xkIiBsZW5ndGhBZGp1c3Q9InNwYWNpbmciIHRleHRMZW5ndGg9IjciIHg9IjI4NiIgeT0iMTYwLjE1NjMiPjI8L3RleHQ+PHRleHQgZmlsbD0iIzAwMDAwMCIgZm9udC1mYW1pbHk9IlNhcmFidW4iIGZvbnQtc2l6ZT0iMTMiIGxlbmd0aEFkanVzdD0ic3BhY2luZyIgdGV4dExlbmd0aD0iMTI1IiB4PSIyOTciIHk9IjE2MC4xNTYzIj4mIzM1ODY7JiMzNjI5OyYjMzY0ODsmIzM1ODY7JiMzNjU3OyYjMzYzNDsmIzM2MDY7JiMzNjM4OyYjMzU5MTsmIzM2Mjc7JiMzNjA5OyYjMzY1NzsmIzM2MzQ7JiMzNjI2OyYjMzYxNzsmIzM2MzM7JiMzNTg4OyYjMzYxOTsmIzM1ODg7JiMzNjI5OyYjMzYxOTsmIzM2NjA7JiMzNjI2OzwvdGV4dD48cG9seWdvbiBmaWxsPSIjMTgxODE4IiBwb2ludHM9IjYxNCwxODcuNjk1Myw2MjQsMTkxLjY5NTMsNjE0LDE5NS42OTUzLDYxOCwxOTEuNjk1MyIgc3R5bGU9InN0cm9rZTojMTgxODE4O3N0cm9rZS13aWR0aDoxLjA7Ii8+PGxpbmUgc3R5bGU9InN0cm9rZTojMTgxODE4O3N0cm9rZS13aWR0aDoxLjA7IiB4MT0iNDQ0IiB4Mj0iNjIwIiB5MT0iMTkxLjY5NTMiIHkyPSIxOTEuNjk1MyIvPjx0ZXh0IGZpbGw9IiMwMDAwMDAiIGZvbnQtZmFtaWx5PSJTYXJhYnVuIiBmb250LXNpemU9IjEzIiBmb250LXdlaWdodD0iYm9sZCIgbGVuZ3RoQWRqdXN0PSJzcGFjaW5nIiB0ZXh0TGVuZ3RoPSI3IiB4PSI0NTEiIHk9IjE4OC4wNzAzIj4zPC90ZXh0Pjx0ZXh0IGZpbGw9IiMwMDAwMDAiIGZvbnQtZmFtaWx5PSJTYXJhYnVuIiBmb250LXNpemU9IjEzIiBsZW5ndGhBZGp1c3Q9InNwYWNpbmciIHRleHRMZW5ndGg9IjE1MiIgeD0iNDYyIiB5PSIxODguMDcwMyI+JiMzNTg2OyYjMzYyOTsmIzM1ODY7JiMzNjU3OyYjMzYyOTsmIzM2MTc7JiMzNjQxOyYjMzYyMTsmIzM1ODg7JiMzNjI5OyYjMzYxOTsmIzM2NjA7JiMzNjI2OyYjMzY0OTsmIzM2MjE7JiMzNjMyOyYjMzYwNTsmIzM2MzQ7JiMzNjE5OyYjMzYzNDsmIzM1OTE7JiMzNjQ4OyYjMzYyMzsmIzM2MjE7JiMzNjM0OzwvdGV4dD48cG9seWdvbiBmaWxsPSIjMTgxODE4IiBwb2ludHM9IjQ1NSwyMTUuNjA5NCw0NDUsMjE5LjYwOTQsNDU1LDIyMy42MDk0LDQ1MSwyMTkuNjA5NCIgc3R5bGU9InN0cm9rZTojMTgxODE4O3N0cm9rZS13aWR0aDoxLjA7Ii8+PGxpbmUgc3R5bGU9InN0cm9rZTojMTgxODE4O3N0cm9rZS13aWR0aDoxLjA7c3Ryb2tlLWRhc2hhcnJheToyLjAsMi4wOyIgeDE9IjQ0OSIgeDI9IjYyNSIgeTE9IjIxOS42MDk0IiB5Mj0iMjE5LjYwOTQiLz48dGV4dCBmaWxsPSIjMDAwMDAwIiBmb250LWZhbWlseT0iU2FyYWJ1biIgZm9udC1zaXplPSIxMyIgZm9udC13ZWlnaHQ9ImJvbGQiIGxlbmd0aEFkanVzdD0ic3BhY2luZyIgdGV4dExlbmd0aD0iNyIgeD0iNDYxIiB5PSIyMTUuOTg0NCI+NDwvdGV4dD48dGV4dCBmaWxsPSIjMDAwMDAwIiBmb250LWZhbWlseT0iU2FyYWJ1biIgZm9udC1zaXplPSIxMyIgbGVuZ3RoQWRqdXN0PSJzcGFjaW5nIiB0ZXh0TGVuZ3RoPSIxMzgiIHg9IjQ3MiIgeT0iMjE1Ljk4NDQiPiYjMzU4NjsmIzM2NTc7JiMzNjI5OyYjMzYxNzsmIzM2NDE7JiMzNjIxOyYjMzU4ODsmIzM2Mjk7JiMzNjE5OyYjMzY2MDsmIzM2MjY7JiMzNjQ5OyYjMzYyMTsmIzM2MzI7JiMzNjA1OyYjMzYzNDsmIzM2MTk7JiMzNjM0OyYjMzU5MTsmIzM2NDg7JiMzNjIzOyYjMzYyMTsmIzM2MzQ7PC90ZXh0Pjxwb2x5Z29uIGZpbGw9IiMxODE4MTgiIHBvaW50cz0iMjkwLDI0My41MjM0LDI4MCwyNDcuNTIzNCwyOTAsMjUxLjUyMzQsMjg2LDI0Ny41MjM0IiBzdHlsZT0ic3Ryb2tlOiMxODE4MTg7c3Ryb2tlLXdpZHRoOjEuMDsiLz48bGluZSBzdHlsZT0ic3Ryb2tlOiMxODE4MTg7c3Ryb2tlLXdpZHRoOjEuMDtzdHJva2UtZGFzaGFycmF5OjIuMCwyLjA7IiB4MT0iMjg0IiB4Mj0iNDMzIiB5MT0iMjQ3LjUyMzQiIHkyPSIyNDcuNTIzNCIvPjx0ZXh0IGZpbGw9IiMwMDAwMDAiIGZvbnQtZmFtaWx5PSJTYXJhYnVuIiBmb250LXNpemU9IjEzIiBmb250LXdlaWdodD0iYm9sZCIgbGVuZ3RoQWRqdXN0PSJzcGFjaW5nIiB0ZXh0TGVuZ3RoPSI3IiB4PSIyOTYiIHk9IjI0My44OTg0Ij41PC90ZXh0Pjx0ZXh0IGZpbGw9IiMwMDAwMDAiIGZvbnQtZmFtaWx5PSJTYXJhYnVuIiBmb250LXNpemU9IjEzIiBsZW5ndGhBZGp1c3Q9InNwYWNpbmciIHRleHRMZW5ndGg9Ijc3IiB4PSIzMDciIHk9IjI0My44OTg0Ij4mIzM2Mjc7JiMzNjA5OyYjMzY1NzsmIzM2MzQ7JiMzNjI2OyYjMzYxNzsmIzM2MzM7JiMzNTg4OyYjMzYxOTsmIzM1ODg7JiMzNjI5OyYjMzYxOTsmIzM2NjA7JiMzNjI2OzwvdGV4dD48cG9seWdvbiBmaWxsPSIjMTgxODE4IiBwb2ludHM9Ijc5LDI3MS40Mzc1LDY5LDI3NS40Mzc1LDc5LDI3OS40Mzc1LDc1LDI3NS40Mzc1IiBzdHlsZT0ic3Ryb2tlOiMxODE4MTg7c3Ryb2tlLXdpZHRoOjEuMDsiLz48bGluZSBzdHlsZT0ic3Ryb2tlOiMxODE4MTg7c3Ryb2tlLXdpZHRoOjEuMDtzdHJva2UtZGFzaGFycmF5OjIuMCwyLjA7IiB4MT0iNzMiIHgyPSIyNjgiIHkxPSIyNzUuNDM3NSIgeTI9IjI3NS40Mzc1Ii8+PHRleHQgZmlsbD0iIzAwMDAwMCIgZm9udC1mYW1pbHk9IlNhcmFidW4iIGZvbnQtc2l6ZT0iMTMiIGZvbnQtd2VpZ2h0PSJib2xkIiBsZW5ndGhBZGp1c3Q9InNwYWNpbmciIHRleHRMZW5ndGg9IjciIHg9Ijg1IiB5PSIyNzEuODEyNSI+NjwvdGV4dD48dGV4dCBmaWxsPSIjMDAwMDAwIiBmb250LWZhbWlseT0iU2FyYWJ1biIgZm9udC1zaXplPSIxMyIgbGVuZ3RoQWRqdXN0PSJzcGFjaW5nIiB0ZXh0TGVuZ3RoPSIxMDQiIHg9Ijk2IiB5PSIyNzEuODEyNSI+JiMzNjQ5OyYjMzYyNjsmIzM2MDQ7JiMzNTkxOyYjMzYyNzsmIzM2MDk7JiMzNjU3OyYjMzYzNDsmIzM2MjY7JiMzNjE3OyYjMzYzMzsmIzM1ODg7JiMzNjE5OyYjMzU4ODsmIzM2Mjk7JiMzNjE5OyYjMzY2MDsmIzM2MjY7PC90ZXh0Pjxwb2x5Z29uIGZpbGw9IiMxODE4MTgiIHBvaW50cz0iMjU3LDI5OS4zNTE2LDI2NywzMDMuMzUxNiwyNTcsMzA3LjM1MTYsMjYxLDMwMy4zNTE2IiBzdHlsZT0ic3Ryb2tlOiMxODE4MTg7c3Ryb2tlLXdpZHRoOjEuMDsiLz48bGluZSBzdHlsZT0ic3Ryb2tlOiMxODE4MTg7c3Ryb2tlLXdpZHRoOjEuMDsiIHgxPSI2OCIgeDI9IjI2MyIgeTE9IjMwMy4zNTE2IiB5Mj0iMzAzLjM1MTYiLz48dGV4dCBmaWxsPSIjMDAwMDAwIiBmb250LWZhbWlseT0iU2FyYWJ1biIgZm9udC1zaXplPSIxMyIgZm9udC13ZWlnaHQ9ImJvbGQiIGxlbmd0aEFkanVzdD0ic3BhY2luZyIgdGV4dExlbmd0aD0iNyIgeD0iNzUiIHk9IjI5OS43MjY2Ij43PC90ZXh0Pjx0ZXh0IGZpbGw9IiMwMDAwMDAiIGZvbnQtZmFtaWx5PSJTYXJhYnVuIiBmb250LXNpemU9IjEzIiBsZW5ndGhBZGp1c3Q9InNwYWNpbmciIHRleHRMZW5ndGg9IjU1IiB4PSI4NiIgeT0iMjk5LjcyNjYiPiYjMzY0ODsmIzM2MjE7JiMzNjM5OyYjMzYyOTsmIzM1ODU7JiMzNTg4OyYjMzYyOTsmIzM2MTk7JiMzNjYwOyYjMzYyNjs8L3RleHQ+PHBvbHlnb24gZmlsbD0iIzE4MTgxOCIgcG9pbnRzPSIyNTcsMzI3LjI2NTYsMjY3LDMzMS4yNjU2LDI1NywzMzUuMjY1NiwyNjEsMzMxLjI2NTYiIHN0eWxlPSJzdHJva2U6IzE4MTgxODtzdHJva2Utd2lkdGg6MS4wOyIvPjxsaW5lIHN0eWxlPSJzdHJva2U6IzE4MTgxODtzdHJva2Utd2lkdGg6MS4wOyIgeDE9IjY4IiB4Mj0iMjYzIiB5MT0iMzMxLjI2NTYiIHkyPSIzMzEuMjY1NiIvPjx0ZXh0IGZpbGw9IiMwMDAwMDAiIGZvbnQtZmFtaWx5PSJTYXJhYnVuIiBmb250LXNpemU9IjEzIiBmb250LXdlaWdodD0iYm9sZCIgbGVuZ3RoQWRqdXN0PSJzcGFjaW5nIiB0ZXh0TGVuZ3RoPSI3IiB4PSI3NSIgeT0iMzI3LjY0MDYiPjg8L3RleHQ+PHRleHQgZmlsbD0iIzAwMDAwMCIgZm9udC1mYW1pbHk9IlNhcmFidW4iIGZvbnQtc2l6ZT0iMTMiIGxlbmd0aEFkanVzdD0ic3BhY2luZyIgdGV4dExlbmd0aD0iNzUiIHg9Ijg2IiB5PSIzMjcuNjQwNiI+JiMzNTg1OyYjMzYwNDsmIzM2MTE7JiMzNjQwOyYjMzY1NjsmIzM2MTc7ICJWaWV3IjwvdGV4dD48cG9seWdvbiBmaWxsPSIjMTgxODE4IiBwb2ludHM9Ijc5LDM1NS4xNzk3LDY5LDM1OS4xNzk3LDc5LDM2My4xNzk3LDc1LDM1OS4xNzk3IiBzdHlsZT0ic3Ryb2tlOiMxODE4MTg7c3Ryb2tlLXdpZHRoOjEuMDsiLz48bGluZSBzdHlsZT0ic3Ryb2tlOiMxODE4MTg7c3Ryb2tlLXdpZHRoOjEuMDtzdHJva2UtZGFzaGFycmF5OjIuMCwyLjA7IiB4MT0iNzMiIHgyPSIyNjgiIHkxPSIzNTkuMTc5NyIgeTI9IjM1OS4xNzk3Ii8+PHRleHQgZmlsbD0iIzAwMDAwMCIgZm9udC1mYW1pbHk9IlNhcmFidW4iIGZvbnQtc2l6ZT0iMTMiIGZvbnQtd2VpZ2h0PSJib2xkIiBsZW5ndGhBZGp1c3Q9InNwYWNpbmciIHRleHRMZW5ndGg9IjciIHg9Ijg1IiB5PSIzNTUuNTU0NyI+OTwvdGV4dD48dGV4dCBmaWxsPSIjMDAwMDAwIiBmb250LWZhbWlseT0iU2FyYWJ1biIgZm9udC1zaXplPSIxMyIgbGVuZ3RoQWRqdXN0PSJzcGFjaW5nIiB0ZXh0TGVuZ3RoPSIxNjYiIHg9Ijk2IiB5PSIzNTUuNTU0NyI+JiMzNjQ5OyYjMzYyNjsmIzM2MDQ7JiMzNTkxOyYjMzYyNzsmIzM2MDk7JiMzNjU3OyYjMzYzNDsmIzM2MTg7JiMzNjM5OyYjMzYwOTsmIzM2MTg7JiMzNjMzOyYjMzYwOTsmIzM2MTk7JiMzNjM0OyYjMzYxODsmIzM2MjE7JiMzNjMyOyYjMzY0ODsmIzM2Mjk7JiMzNjM3OyYjMzYxODsmIzM2MDQ7JiMzNTg4OyYjMzYyOTsmIzM2MTk7JiMzNjYwOyYjMzYyNjs8L3RleHQ+PHBvbHlnb24gZmlsbD0iIzE4MTgxOCIgcG9pbnRzPSIyNTcsMzgzLjA5MzgsMjY3LDM4Ny4wOTM4LDI1NywzOTEuMDkzOCwyNjEsMzg3LjA5MzgiIHN0eWxlPSJzdHJva2U6IzE4MTgxODtzdHJva2Utd2lkdGg6MS4wOyIvPjxsaW5lIHN0eWxlPSJzdHJva2U6IzE4MTgxODtzdHJva2Utd2lkdGg6MS4wOyIgeDE9IjY4IiB4Mj0iMjYzIiB5MT0iMzg3LjA5MzgiIHkyPSIzODcuMDkzOCIvPjx0ZXh0IGZpbGw9IiMwMDAwMDAiIGZvbnQtZmFtaWx5PSJTYXJhYnVuIiBmb250LXNpemU9IjEzIiBmb250LXdlaWdodD0iYm9sZCIgbGVuZ3RoQWRqdXN0PSJzcGFjaW5nIiB0ZXh0TGVuZ3RoPSIxNCIgeD0iNzUiIHk9IjM4My40Njg4Ij4xMDwvdGV4dD48dGV4dCBmaWxsPSIjMDAwMDAwIiBmb250LWZhbWlseT0iU2FyYWJ1biIgZm9udC1zaXplPSIxMyIgbGVuZ3RoQWRqdXN0PSJzcGFjaW5nIiB0ZXh0TGVuZ3RoPSI5NSIgeD0iOTMiIHk9IjM4My40Njg4Ij4mIzM1ODU7JiMzNjA0OyYjMzYxMTsmIzM2NDA7JiMzNjU2OyYjMzYxNzsgIkNvbmZpcm0iPC90ZXh0PjwhLS1TUkM9W2ZMRjFJV0NuNEJ0ZEEtOFUydnd5elUzMWpQdjRtUUFVcXBSTG5NdklpYmFCZGdtOExWMmVXZFpJOGU4WWdBM0VfaXJ5WWFjd1FSVWhJOGtOUDdSb3pocXRDeWIyTHg2emM1N0R2SDdMQWtLYUVPWDRib2FNcXJXQXNUbk5Da1JiYW5QbGl4SVpyd0pHNnltU3Jxc3NhR2YyVEFHeGQ2dWRkOFJDQjRqTFlsMjRTOFZtWGQyQUM3SmhZbXNvMnRENE9YUTlqaDhTYktoSWdiSGVKSVpQd09Hb0xHYWRuQ1pmZzFicmNUMHFRQVE5RGNQS3JWMmhXQkE0WGRiYzZiVlR2T3FMOU5pVWJTU19HTk1rM2RGQ0EybjFMZmJjM0xFN0dfV0ZHYllnZktaWlhpNEpyakpIOFREeU9pSzdUNzdQQXppa3oxNGs0TXVIMEJDcHFuNFFyM1FzRGpWTlFSWXZsTE1sMUdLZ3hwVlZCVDc4ZGtLdmlVdEJaY3NHZElFeThybVpWMjhDNDl1SFJkcG9wd1BGZkZBb0h2aUx5Yk1FZk5BVDV5VU44Sm9LbzMzaGstR2htZkxKN2hmcnUzbS1rZ0Z0V2sydVlwd1dZd05vX2dfTXVaX2JuWUxFSnNOY2JYS3V5dnZEbmNDZV9UMERmdE51djhPenJxWC1scFFzQjVGSmJ5RnNvcF9EVkRMczhqdUJ2WlB5eHVIbE5GM2NXZzdGa241T1N5UkRYeWpTcGJaSEItdjJBVGdIWWlxSkE3SlBGdTlZcFpELTBtMDBdLS0+PC9nPjwvc3ZnPg==;" vertex="1" parent="1">
            <mxGeometry x="-120" y="-160" width="691" height="455" as="geometry" />
          </mxCell>
        </UserObject>
      </root>
    </mxGraphModel>
  </diagram>
  <diagram name="uc3-lap-uc4" id="ESOIJtjmRpXZ56Y3iTVr">
    <mxGraphModel dx="1340" dy="1004" grid="1" gridSize="10" guides="1" tooltips="1" connect="1" arrows="1" fold="1" page="0" pageScale="1" pageWidth="100000" pageHeight="100000" math="0" shadow="0">
      <root>
        <mxCell id="exxmyn7PiPJbCx3NZvYi-0" />
        <mxCell id="exxmyn7PiPJbCx3NZvYi-1" parent="exxmyn7PiPJbCx3NZvYi-0" />
        <UserObject label="" plantUmlData="{&quot;data&quot;:&quot;@startuml\n!pragma teoz true\nskinparam monochrome true\nskinparam defaultFontName Sarabun\n\ntitle Use Case 3: สมัครคอร์ส\nmainframe **sd** EnrollCourse\n\nparticipant \&quot;customer:User\&quot; as Customer\nparticipant \&quot;:WebBrowser\&quot; as Browser\nparticipant \&quot;:WebServer\&quot; as Server\nparticipant \&quot;:Database\&quot; as Database\n\nautonumber\n\nactivate Customer\nCustomer -&gt; Browser: กดปุ่ม \&quot;ENROLL COURSE\&quot;\n\nactivate Browser\nBrowser -&gt; Server: ขอเข้าถึงหน้าสมัครคอร์ส\n\nactivate Server\nServer -&gt; Database: ขอข้อมูลคอร์สและตารางเวลา\n\nactivate Database\nDatabase --&gt; Server: ข้อมูลคอร์สและตารางเวลา\ndeactivate Database\n\nServer --&gt; Browser: หน้าสมัครคอร์ส\ndeactivate Server\n\nBrowser --&gt; Customer: แสดงหน้าสมัครคอร์ส\n\nCustomer -&gt; Browser: เลือกคอร์ส\nCustomer -&gt; Browser: กดปุ่ม \&quot;Confirm\&quot;\nBrowser --&gt; Customer: แสดงหน้ายืนยันรายละเอียดคอร์ส\n\nCustomer -&gt; Browser: กดปุ่ม \&quot;Confirm\&quot;\n\n{start} Browser -[hidden]&gt; Server\n\nautonumber 11\n&amp; Browser --&gt; Customer: แสดงหน้าชำระเงิน\n\nCustomer -&gt;(90) Browser: อัปโหลด\\nหลักฐานการชำระเงิน\n\n&#39; alt 1\nalt เวลาไม่เกิน 5 นาที\n\n{end} Customer -&gt; Browser: กดปุ่ม \&quot;Confirm\&quot;\n{end} Browser -[hidden]&gt; Server\n\n{start} &lt;-&gt; {end}: {0..5 min}\n\nautonumber 14\nBrowser -&gt; Server: ส่งข้อมูลการสมัครคอร์ส\n\nactivate Server\n&#39; Server -&gt; Server: ตรวจสอบข้อมูลการสมัครคอร์ส\n\n&#39; activate Server\n&#39; deactivate Server\n\nServer -&gt;&gt; Database: เขียนข้อมูลการสมัครคอร์ส\n\nactivate Database\ndeactivate Database\n\nServer --&gt; Browser: ผลการสมัครคอร์ส\ndeactivate Server\n\nBrowser --&gt; Customer: แสดงผลการสมัครคอร์ส\n\nelse เวลาเกิน 5 นาที\n\nCustomer -&gt; Browser: กดปุ่ม \&quot;Go to Refund Page\&quot;\nBrowser -&gt; Server: ขอเข้าถึงหน้าสร้างคำขอคืนเงิน\n\nactivate Server\nServer --&gt; Browser: หน้าสร้างคำขอคืนเงิน\ndeactivate Server\n\nBrowser --&gt; Customer: หน้าสร้างคำขอคืนเงิน\nCustomer -&gt; Browser: กรอกข้อมูลคำขอคืนเงิน\nCustomer -&gt; Browser: กดปุ่ม \&quot;Send\&quot;\nBrowser -&gt; Server: ส่งข้อมูลคำขอคืนเงิน\n\nactivate Server\nServer -&gt;&gt; Database: เขียนคำขอคืนเงิน\n\nactivate Database\ndeactivate Database\n\nServer --&gt; Browser: ผลการสร้างคำขอคืนเงิน\ndeactivate Server\n\nBrowser --&gt; Customer: แสดงผลการสร้างคำขอคืนเงิน\n\n&#39;alt 1\nend\n\nCustomer -&gt; Browser: กดปุ่ม \&quot;OK\&quot;\nBrowser -&gt; Server: ขอเข้าถึงหน้าหลัก\n\nactivate Server\nServer --&gt; Browser: หน้าหลัก\ndeactivate Server\n\nBrowser --&gt; Customer: แสดงหน้าหลัก\ndeactivate Browser\n\ndeactivate Customer\n@enduml\n&quot;,&quot;format&quot;:&quot;svg&quot;}" id="exxmyn7PiPJbCx3NZvYi-2">
          <mxCell style="shape=image;noLabel=1;verticalAlign=top;aspect=fixed;imageAspect=0;image=data:image/svg+xml,PD94bWwgdmVyc2lvbj0iMS4wIiBlbmNvZGluZz0idXMtYXNjaWkiIHN0YW5kYWxvbmU9Im5vIj8+PHN2ZyB4bWxucz0iaHR0cDovL3d3dy53My5vcmcvMjAwMC9zdmciIHhtbG5zOnhsaW5rPSJodHRwOi8vd3d3LnczLm9yZy8xOTk5L3hsaW5rIiBjb250ZW50U3R5bGVUeXBlPSJ0ZXh0L2NzcyIgaGVpZ2h0PSIxMjQ2cHgiIHByZXNlcnZlQXNwZWN0UmF0aW89Im5vbmUiIHN0eWxlPSJ3aWR0aDo3NTFweDtoZWlnaHQ6MTI0NnB4O2JhY2tncm91bmQ6I0ZGRkZGRjsiIHZlcnNpb249IjEuMSIgdmlld0JveD0iMCAwIDc1MSAxMjQ2IiB3aWR0aD0iNzUxcHgiIHpvb21BbmRQYW49Im1hZ25pZnkiPjxkZWZzLz48Zz48dGV4dCBmaWxsPSIjMDAwMDAwIiBmb250LWZhbWlseT0iU2FyYWJ1biIgZm9udC1zaXplPSIxNCIgZm9udC13ZWlnaHQ9ImJvbGQiIGxlbmd0aEFkanVzdD0ic3BhY2luZyIgdGV4dExlbmd0aD0iMTQxIiB4PSIyOTcuNzUiIHk9IjI4LjIzNDQiPlVzZSBDYXNlIDM6ICYjMzYyNjsmIzM2MTc7JiMzNjMzOyYjMzU4ODsmIzM2MTk7JiMzNTg4OyYjMzYyOTsmIzM2MTk7JiMzNjYwOyYjMzYyNjs8L3RleHQ+PHJlY3QgZmlsbD0iI0ZGRkZGRiIgaGVpZ2h0PSIxMTg5Ljc4OTEiIHN0eWxlPSJzdHJva2U6IzE4MTgxODtzdHJva2Utd2lkdGg6MS41OyIgd2lkdGg9Ijc0MS41IiB4PSI0IiB5PSI1MC45ODQ0Ii8+PHBhdGggZD0iTTExOSw1MC45ODQ0IEwxMTksNTguOTY4OCBMMTA5LDY4Ljk2ODggTDQsNjguOTY4OCAiIGZpbGw9Im5vbmUiIHN0eWxlPSJzdHJva2U6IzE4MTgxODtzdHJva2Utd2lkdGg6MS41OyIvPjx0ZXh0IGZpbGw9IiMwMDAwMDAiIGZvbnQtZmFtaWx5PSJTYXJhYnVuIiBmb250LXNpemU9IjE0IiBmb250LXdlaWdodD0iYm9sZCIgbGVuZ3RoQWRqdXN0PSJzcGFjaW5nIiB0ZXh0TGVuZ3RoPSIxNCIgeD0iNyIgeT0iNjUuMjE4OCI+c2Q8L3RleHQ+PHRleHQgZmlsbD0iIzAwMDAwMCIgZm9udC1mYW1pbHk9IlNhcmFidW4iIGZvbnQtc2l6ZT0iMTQiIGxlbmd0aEFkanVzdD0ic3BhY2luZyIgdGV4dExlbmd0aD0iODQiIHg9IjI4IiB5PSI2NS4yMTg4Ij5FbnJvbGxDb3Vyc2U8L3RleHQ+PGxpbmUgc3R5bGU9InN0cm9rZTojMTgxODE4O3N0cm9rZS13aWR0aDoxLjA7IiB4MT0iMjIxIiB4Mj0iMjIxIiB5MT0iNDE3LjAwNzgiIHkyPSI2MDIuNjY0MSIvPjxwb2x5Z29uIGZpbGw9IiMxODE4MTgiIHBvaW50cz0iMjE3LDQyNy4wMDc4LDIyMSw0MTcuMDA3OCwyMjUsNDI3LjAwNzgsMjIxLDQyMy4wMDc4IiBzdHlsZT0ic3Ryb2tlOiMxODE4MTg7c3Ryb2tlLXdpZHRoOjEuMDsiLz48cG9seWdvbiBmaWxsPSIjMTgxODE4IiBwb2ludHM9IjIxNyw1OTIuNjY0MSwyMjEsNjAyLjY2NDEsMjI1LDU5Mi42NjQxLDIyMSw1OTYuNjY0MSIgc3R5bGU9InN0cm9rZTojMTgxODE4O3N0cm9rZS13aWR0aDoxLjA7Ii8+PHRleHQgZmlsbD0iIzAwMDAwMCIgZm9udC1mYW1pbHk9IlNhcmFidW4iIGZvbnQtc2l6ZT0iMTMiIGxlbmd0aEFkanVzdD0ic3BhY2luZyIgdGV4dExlbmd0aD0iNjQiIHg9IjIyNSIgeT0iNTE1LjE2OCI+ezAuLjUgbWlufTwvdGV4dD48bGluZSBzdHlsZT0ic3Ryb2tlOiMxODE4MTg7c3Ryb2tlLXdpZHRoOjAuNTtzdHJva2UtZGFzaGFycmF5OjUuMCw1LjA7IiB4MT0iNjMiIHgyPSI2MyIgeTE9IjEwNy45NTMxIiB5Mj0iMTE5Ni44MDQ3Ii8+PHJlY3QgZmlsbD0iI0ZGRkZGRiIgaGVpZ2h0PSIxMDc1Ljg1MTYiIHN0eWxlPSJzdHJva2U6IzE4MTgxODtzdHJva2Utd2lkdGg6MS4wOyIgd2lkdGg9IjEwIiB4PSI1OCIgeT0iMTE1Ljk1MzEiLz48bGluZSBzdHlsZT0ic3Ryb2tlOiMxODE4MTg7c3Ryb2tlLXdpZHRoOjAuNTtzdHJva2UtZGFzaGFycmF5OjUuMCw1LjA7IiB4MT0iMjc2IiB4Mj0iMjc2IiB5MT0iMTA3Ljk1MzEiIHkyPSIxMTk2LjgwNDciLz48cmVjdCBmaWxsPSIjRkZGRkZGIiBoZWlnaHQ9IjEwNDIuOTM3NSIgc3R5bGU9InN0cm9rZTojMTgxODE4O3N0cm9rZS13aWR0aDoxLjA7IiB3aWR0aD0iMTAiIHg9IjI3MSIgeT0iMTM1Ljg2NzIiLz48bGluZSBzdHlsZT0ic3Ryb2tlOiMxODE4MTg7c3Ryb2tlLXdpZHRoOjAuNTtzdHJva2UtZGFzaGFycmF5OjUuMCw1LjA7IiB4MT0iNDgyIiB4Mj0iNDgyIiB5MT0iMTA3Ljk1MzEiIHkyPSIxMTk2LjgwNDciLz48cmVjdCBmaWxsPSIjRkZGRkZGIiBoZWlnaHQ9IjgzLjc0MjIiIHN0eWxlPSJzdHJva2U6IzE4MTgxODtzdHJva2Utd2lkdGg6MS4wOyIgd2lkdGg9IjEwIiB4PSI0NzciIHk9IjE2My43ODEzIi8+PHJlY3QgZmlsbD0iI0ZGRkZGRiIgaGVpZ2h0PSI1NS44MjgxIiBzdHlsZT0ic3Ryb2tlOiMxODE4MTg7c3Ryb2tlLXdpZHRoOjEuMDsiIHdpZHRoPSIxMCIgeD0iNDc3IiB5PSI2NjAuNDkyMiIvPjxyZWN0IGZpbGw9IiNGRkZGRkYiIGhlaWdodD0iMjcuOTE0MSIgc3R5bGU9InN0cm9rZTojMTgxODE4O3N0cm9rZS13aWR0aDoxLjA7IiB3aWR0aD0iMTAiIHg9IjQ3NyIgeT0iODI5LjgzNTkiLz48cmVjdCBmaWxsPSIjRkZGRkZGIiBoZWlnaHQ9IjU1LjgyODEiIHN0eWxlPSJzdHJva2U6IzE4MTgxODtzdHJva2Utd2lkdGg6MS4wOyIgd2lkdGg9IjEwIiB4PSI0NzciIHk9Ijk2OS40MDYzIi8+PHJlY3QgZmlsbD0iI0ZGRkZGRiIgaGVpZ2h0PSIyNy45MTQxIiBzdHlsZT0ic3Ryb2tlOiMxODE4MTg7c3Ryb2tlLXdpZHRoOjEuMDsiIHdpZHRoPSIxMCIgeD0iNDc3IiB5PSIxMTIyLjk3NjYiLz48bGluZSBzdHlsZT0ic3Ryb2tlOiMxODE4MTg7c3Ryb2tlLXdpZHRoOjAuNTtzdHJva2UtZGFzaGFycmF5OjUuMCw1LjA7IiB4MT0iNjc0IiB4Mj0iNjc0IiB5MT0iMTA3Ljk1MzEiIHkyPSIxMTk2LjgwNDciLz48cmVjdCBmaWxsPSIjRkZGRkZGIiBoZWlnaHQ9IjI3LjkxNDEiIHN0eWxlPSJzdHJva2U6IzE4MTgxODtzdHJva2Utd2lkdGg6MS4wOyIgd2lkdGg9IjEwIiB4PSI2NjkiIHk9IjE5MS42OTUzIi8+PHJlY3QgZmlsbD0iI0ZGRkZGRiIgaGVpZ2h0PSIxMyIgc3R5bGU9InN0cm9rZTojMTgxODE4O3N0cm9rZS13aWR0aDoxLjA7IiB3aWR0aD0iMTAiIHg9IjY2OSIgeT0iNjg4LjQwNjMiLz48cmVjdCBmaWxsPSIjRkZGRkZGIiBoZWlnaHQ9IjEzIiBzdHlsZT0ic3Ryb2tlOiMxODE4MTg7c3Ryb2tlLXdpZHRoOjEuMDsiIHdpZHRoPSIxMCIgeD0iNjY5IiB5PSI5OTcuMzIwMyIvPjxyZWN0IGZpbGw9IiNFM0UzRTMiIGhlaWdodD0iMjguOTg0NCIgcng9IjIuNSIgcnk9IjIuNSIgc3R5bGU9InN0cm9rZTojMTgxODE4O3N0cm9rZS13aWR0aDowLjU7IiB3aWR0aD0iMTA2IiB4PSIxMCIgeT0iNzcuOTY4OCIvPjx0ZXh0IGZpbGw9IiMwMDAwMDAiIGZvbnQtZmFtaWx5PSJTYXJhYnVuIiBmb250LXNpemU9IjE0IiBsZW5ndGhBZGp1c3Q9InNwYWNpbmciIHRleHRMZW5ndGg9IjkyIiB4PSIxNyIgeT0iOTguMjAzMSI+Y3VzdG9tZXI6VXNlcjwvdGV4dD48cmVjdCBmaWxsPSIjRTNFM0UzIiBoZWlnaHQ9IjI4Ljk4NDQiIHJ4PSIyLjUiIHJ5PSIyLjUiIHN0eWxlPSJzdHJva2U6IzE4MTgxODtzdHJva2Utd2lkdGg6MC41OyIgd2lkdGg9IjkyIiB4PSIyMzAiIHk9Ijc3Ljk2ODgiLz48dGV4dCBmaWxsPSIjMDAwMDAwIiBmb250LWZhbWlseT0iU2FyYWJ1biIgZm9udC1zaXplPSIxNCIgbGVuZ3RoQWRqdXN0PSJzcGFjaW5nIiB0ZXh0TGVuZ3RoPSI3OCIgeD0iMjM3IiB5PSI5OC4yMDMxIj46V2ViQnJvd3NlcjwvdGV4dD48cmVjdCBmaWxsPSIjRTNFM0UzIiBoZWlnaHQ9IjI4Ljk4NDQiIHJ4PSIyLjUiIHJ5PSIyLjUiIHN0eWxlPSJzdHJva2U6IzE4MTgxODtzdHJva2Utd2lkdGg6MC41OyIgd2lkdGg9Ijg0IiB4PSI0NDAiIHk9Ijc3Ljk2ODgiLz48dGV4dCBmaWxsPSIjMDAwMDAwIiBmb250LWZhbWlseT0iU2FyYWJ1biIgZm9udC1zaXplPSIxNCIgbGVuZ3RoQWRqdXN0PSJzcGFjaW5nIiB0ZXh0TGVuZ3RoPSI3MCIgeD0iNDQ3IiB5PSI5OC4yMDMxIj46V2ViU2VydmVyPC90ZXh0PjxyZWN0IGZpbGw9IiNFM0UzRTMiIGhlaWdodD0iMjguOTg0NCIgcng9IjIuNSIgcnk9IjIuNSIgc3R5bGU9InN0cm9rZTojMTgxODE4O3N0cm9rZS13aWR0aDowLjU7IiB3aWR0aD0iNzciIHg9IjYzNS41IiB5PSI3Ny45Njg4Ii8+PHRleHQgZmlsbD0iIzAwMDAwMCIgZm9udC1mYW1pbHk9IlNhcmFidW4iIGZvbnQtc2l6ZT0iMTQiIGxlbmd0aEFkanVzdD0ic3BhY2luZyIgdGV4dExlbmd0aD0iNjMiIHg9IjY0Mi41IiB5PSI5OC4yMDMxIj46RGF0YWJhc2U8L3RleHQ+PHJlY3QgZmlsbD0iI0UzRTNFMyIgaGVpZ2h0PSIyOC45ODQ0IiByeD0iMi41IiByeT0iMi41IiBzdHlsZT0ic3Ryb2tlOiMxODE4MTg7c3Ryb2tlLXdpZHRoOjAuNTsiIHdpZHRoPSIxMDYiIHg9IjEwIiB5PSIxMTk2LjgwNDciLz48dGV4dCBmaWxsPSIjMDAwMDAwIiBmb250LWZhbWlseT0iU2FyYWJ1biIgZm9udC1zaXplPSIxNCIgbGVuZ3RoQWRqdXN0PSJzcGFjaW5nIiB0ZXh0TGVuZ3RoPSI5MiIgeD0iMTciIHk9IjEyMTcuMDM5MSI+Y3VzdG9tZXI6VXNlcjwvdGV4dD48cmVjdCBmaWxsPSIjRTNFM0UzIiBoZWlnaHQ9IjI4Ljk4NDQiIHJ4PSIyLjUiIHJ5PSIyLjUiIHN0eWxlPSJzdHJva2U6IzE4MTgxODtzdHJva2Utd2lkdGg6MC41OyIgd2lkdGg9IjkyIiB4PSIyMzAiIHk9IjExOTYuODA0NyIvPjx0ZXh0IGZpbGw9IiMwMDAwMDAiIGZvbnQtZmFtaWx5PSJTYXJhYnVuIiBmb250LXNpemU9IjE0IiBsZW5ndGhBZGp1c3Q9InNwYWNpbmciIHRleHRMZW5ndGg9Ijc4IiB4PSIyMzciIHk9IjEyMTcuMDM5MSI+OldlYkJyb3dzZXI8L3RleHQ+PHJlY3QgZmlsbD0iI0UzRTNFMyIgaGVpZ2h0PSIyOC45ODQ0IiByeD0iMi41IiByeT0iMi41IiBzdHlsZT0ic3Ryb2tlOiMxODE4MTg7c3Ryb2tlLXdpZHRoOjAuNTsiIHdpZHRoPSI4NCIgeD0iNDQwIiB5PSIxMTk2LjgwNDciLz48dGV4dCBmaWxsPSIjMDAwMDAwIiBmb250LWZhbWlseT0iU2FyYWJ1biIgZm9udC1zaXplPSIxNCIgbGVuZ3RoQWRqdXN0PSJzcGFjaW5nIiB0ZXh0TGVuZ3RoPSI3MCIgeD0iNDQ3IiB5PSIxMjE3LjAzOTEiPjpXZWJTZXJ2ZXI8L3RleHQ+PHJlY3QgZmlsbD0iI0UzRTNFMyIgaGVpZ2h0PSIyOC45ODQ0IiByeD0iMi41IiByeT0iMi41IiBzdHlsZT0ic3Ryb2tlOiMxODE4MTg7c3Ryb2tlLXdpZHRoOjAuNTsiIHdpZHRoPSI3NyIgeD0iNjM1LjUiIHk9IjExOTYuODA0NyIvPjx0ZXh0IGZpbGw9IiMwMDAwMDAiIGZvbnQtZmFtaWx5PSJTYXJhYnVuIiBmb250LXNpemU9IjE0IiBsZW5ndGhBZGp1c3Q9InNwYWNpbmciIHRleHRMZW5ndGg9IjYzIiB4PSI2NDIuNSIgeT0iMTIxNy4wMzkxIj46RGF0YWJhc2U8L3RleHQ+PHBvbHlnb24gZmlsbD0iIzE4MTgxOCIgcG9pbnRzPSIyNTksMTMxLjg2NzIsMjY5LDEzNS44NjcyLDI1OSwxMzkuODY3MiwyNjMsMTM1Ljg2NzIiIHN0eWxlPSJzdHJva2U6IzE4MTgxODtzdHJva2Utd2lkdGg6MS4wOyIvPjxsaW5lIHN0eWxlPSJzdHJva2U6IzE4MTgxODtzdHJva2Utd2lkdGg6MS4wOyIgeDE9IjY4IiB4Mj0iMjY1IiB5MT0iMTM1Ljg2NzIiIHkyPSIxMzUuODY3MiIvPjx0ZXh0IGZpbGw9IiMwMDAwMDAiIGZvbnQtZmFtaWx5PSJTYXJhYnVuIiBmb250LXNpemU9IjEzIiBmb250LXdlaWdodD0iYm9sZCIgbGVuZ3RoQWRqdXN0PSJzcGFjaW5nIiB0ZXh0TGVuZ3RoPSI3IiB4PSI3NSIgeT0iMTMyLjI0MjIiPjE8L3RleHQ+PHRleHQgZmlsbD0iIzAwMDAwMCIgZm9udC1mYW1pbHk9IlNhcmFidW4iIGZvbnQtc2l6ZT0iMTMiIGxlbmd0aEFkanVzdD0ic3BhY2luZyIgdGV4dExlbmd0aD0iMTQwIiB4PSI4NiIgeT0iMTMyLjI0MjIiPiYjMzU4NTsmIzM2MDQ7JiMzNjExOyYjMzY0MDsmIzM2NTY7JiMzNjE3OyAiRU5ST0xMIENPVVJTRSI8L3RleHQ+PHBvbHlnb24gZmlsbD0iIzE4MTgxOCIgcG9pbnRzPSI0NjUsMTU5Ljc4MTMsNDc1LDE2My43ODEzLDQ2NSwxNjcuNzgxMyw0NjksMTYzLjc4MTMiIHN0eWxlPSJzdHJva2U6IzE4MTgxODtzdHJva2Utd2lkdGg6MS4wOyIvPjxsaW5lIHN0eWxlPSJzdHJva2U6IzE4MTgxODtzdHJva2Utd2lkdGg6MS4wOyIgeDE9IjI4MSIgeDI9IjQ3MSIgeTE9IjE2My43ODEzIiB5Mj0iMTYzLjc4MTMiLz48dGV4dCBmaWxsPSIjMDAwMDAwIiBmb250LWZhbWlseT0iU2FyYWJ1biIgZm9udC1zaXplPSIxMyIgZm9udC13ZWlnaHQ9ImJvbGQiIGxlbmd0aEFkanVzdD0ic3BhY2luZyIgdGV4dExlbmd0aD0iNyIgeD0iMjg4IiB5PSIxNjAuMTU2MyI+MjwvdGV4dD48dGV4dCBmaWxsPSIjMDAwMDAwIiBmb250LWZhbWlseT0iU2FyYWJ1biIgZm9udC1zaXplPSIxMyIgbGVuZ3RoQWRqdXN0PSJzcGFjaW5nIiB0ZXh0TGVuZ3RoPSIxMjUiIHg9IjI5OSIgeT0iMTYwLjE1NjMiPiYjMzU4NjsmIzM2Mjk7JiMzNjQ4OyYjMzU4NjsmIzM2NTc7JiMzNjM0OyYjMzYwNjsmIzM2Mzg7JiMzNTkxOyYjMzYyNzsmIzM2MDk7JiMzNjU3OyYjMzYzNDsmIzM2MjY7JiMzNjE3OyYjMzYzMzsmIzM1ODg7JiMzNjE5OyYjMzU4ODsmIzM2Mjk7JiMzNjE5OyYjMzY2MDsmIzM2MjY7PC90ZXh0Pjxwb2x5Z29uIGZpbGw9IiMxODE4MTgiIHBvaW50cz0iNjU3LDE4Ny42OTUzLDY2NywxOTEuNjk1Myw2NTcsMTk1LjY5NTMsNjYxLDE5MS42OTUzIiBzdHlsZT0ic3Ryb2tlOiMxODE4MTg7c3Ryb2tlLXdpZHRoOjEuMDsiLz48bGluZSBzdHlsZT0ic3Ryb2tlOiMxODE4MTg7c3Ryb2tlLXdpZHRoOjEuMDsiIHgxPSI0ODciIHgyPSI2NjMiIHkxPSIxOTEuNjk1MyIgeTI9IjE5MS42OTUzIi8+PHRleHQgZmlsbD0iIzAwMDAwMCIgZm9udC1mYW1pbHk9IlNhcmFidW4iIGZvbnQtc2l6ZT0iMTMiIGZvbnQtd2VpZ2h0PSJib2xkIiBsZW5ndGhBZGp1c3Q9InNwYWNpbmciIHRleHRMZW5ndGg9IjciIHg9IjQ5NCIgeT0iMTg4LjA3MDMiPjM8L3RleHQ+PHRleHQgZmlsbD0iIzAwMDAwMCIgZm9udC1mYW1pbHk9IlNhcmFidW4iIGZvbnQtc2l6ZT0iMTMiIGxlbmd0aEFkanVzdD0ic3BhY2luZyIgdGV4dExlbmd0aD0iMTUyIiB4PSI1MDUiIHk9IjE4OC4wNzAzIj4mIzM1ODY7JiMzNjI5OyYjMzU4NjsmIzM2NTc7JiMzNjI5OyYjMzYxNzsmIzM2NDE7JiMzNjIxOyYjMzU4ODsmIzM2Mjk7JiMzNjE5OyYjMzY2MDsmIzM2MjY7JiMzNjQ5OyYjMzYyMTsmIzM2MzI7JiMzNjA1OyYjMzYzNDsmIzM2MTk7JiMzNjM0OyYjMzU5MTsmIzM2NDg7JiMzNjIzOyYjMzYyMTsmIzM2MzQ7PC90ZXh0Pjxwb2x5Z29uIGZpbGw9IiMxODE4MTgiIHBvaW50cz0iNDk4LDIxNS42MDk0LDQ4OCwyMTkuNjA5NCw0OTgsMjIzLjYwOTQsNDk0LDIxOS42MDk0IiBzdHlsZT0ic3Ryb2tlOiMxODE4MTg7c3Ryb2tlLXdpZHRoOjEuMDsiLz48bGluZSBzdHlsZT0ic3Ryb2tlOiMxODE4MTg7c3Ryb2tlLXdpZHRoOjEuMDtzdHJva2UtZGFzaGFycmF5OjIuMCwyLjA7IiB4MT0iNDkyIiB4Mj0iNjY4IiB5MT0iMjE5LjYwOTQiIHkyPSIyMTkuNjA5NCIvPjx0ZXh0IGZpbGw9IiMwMDAwMDAiIGZvbnQtZmFtaWx5PSJTYXJhYnVuIiBmb250LXNpemU9IjEzIiBmb250LXdlaWdodD0iYm9sZCIgbGVuZ3RoQWRqdXN0PSJzcGFjaW5nIiB0ZXh0TGVuZ3RoPSI3IiB4PSI1MDQiIHk9IjIxNS45ODQ0Ij40PC90ZXh0Pjx0ZXh0IGZpbGw9IiMwMDAwMDAiIGZvbnQtZmFtaWx5PSJTYXJhYnVuIiBmb250LXNpemU9IjEzIiBsZW5ndGhBZGp1c3Q9InNwYWNpbmciIHRleHRMZW5ndGg9IjEzOCIgeD0iNTE1IiB5PSIyMTUuOTg0NCI+JiMzNTg2OyYjMzY1NzsmIzM2Mjk7JiMzNjE3OyYjMzY0MTsmIzM2MjE7JiMzNTg4OyYjMzYyOTsmIzM2MTk7JiMzNjYwOyYjMzYyNjsmIzM2NDk7JiMzNjIxOyYjMzYzMjsmIzM2MDU7JiMzNjM0OyYjMzYxOTsmIzM2MzQ7JiMzNTkxOyYjMzY0ODsmIzM2MjM7JiMzNjIxOyYjMzYzNDs8L3RleHQ+PHBvbHlnb24gZmlsbD0iIzE4MTgxOCIgcG9pbnRzPSIyOTIsMjQzLjUyMzQsMjgyLDI0Ny41MjM0LDI5MiwyNTEuNTIzNCwyODgsMjQ3LjUyMzQiIHN0eWxlPSJzdHJva2U6IzE4MTgxODtzdHJva2Utd2lkdGg6MS4wOyIvPjxsaW5lIHN0eWxlPSJzdHJva2U6IzE4MTgxODtzdHJva2Utd2lkdGg6MS4wO3N0cm9rZS1kYXNoYXJyYXk6Mi4wLDIuMDsiIHgxPSIyODYiIHgyPSI0NzYiIHkxPSIyNDcuNTIzNCIgeTI9IjI0Ny41MjM0Ii8+PHRleHQgZmlsbD0iIzAwMDAwMCIgZm9udC1mYW1pbHk9IlNhcmFidW4iIGZvbnQtc2l6ZT0iMTMiIGZvbnQtd2VpZ2h0PSJib2xkIiBsZW5ndGhBZGp1c3Q9InNwYWNpbmciIHRleHRMZW5ndGg9IjciIHg9IjI5OCIgeT0iMjQzLjg5ODQiPjU8L3RleHQ+PHRleHQgZmlsbD0iIzAwMDAwMCIgZm9udC1mYW1pbHk9IlNhcmFidW4iIGZvbnQtc2l6ZT0iMTMiIGxlbmd0aEFkanVzdD0ic3BhY2luZyIgdGV4dExlbmd0aD0iNzciIHg9IjMwOSIgeT0iMjQzLjg5ODQiPiYjMzYyNzsmIzM2MDk7JiMzNjU3OyYjMzYzNDsmIzM2MjY7JiMzNjE3OyYjMzYzMzsmIzM1ODg7JiMzNjE5OyYjMzU4ODsmIzM2Mjk7JiMzNjE5OyYjMzY2MDsmIzM2MjY7PC90ZXh0Pjxwb2x5Z29uIGZpbGw9IiMxODE4MTgiIHBvaW50cz0iNzksMjcxLjQzNzUsNjksMjc1LjQzNzUsNzksMjc5LjQzNzUsNzUsMjc1LjQzNzUiIHN0eWxlPSJzdHJva2U6IzE4MTgxODtzdHJva2Utd2lkdGg6MS4wOyIvPjxsaW5lIHN0eWxlPSJzdHJva2U6IzE4MTgxODtzdHJva2Utd2lkdGg6MS4wO3N0cm9rZS1kYXNoYXJyYXk6Mi4wLDIuMDsiIHgxPSI3MyIgeDI9IjI3MCIgeTE9IjI3NS40Mzc1IiB5Mj0iMjc1LjQzNzUiLz48dGV4dCBmaWxsPSIjMDAwMDAwIiBmb250LWZhbWlseT0iU2FyYWJ1biIgZm9udC1zaXplPSIxMyIgZm9udC13ZWlnaHQ9ImJvbGQiIGxlbmd0aEFkanVzdD0ic3BhY2luZyIgdGV4dExlbmd0aD0iNyIgeD0iODUiIHk9IjI3MS44MTI1Ij42PC90ZXh0Pjx0ZXh0IGZpbGw9IiMwMDAwMDAiIGZvbnQtZmFtaWx5PSJTYXJhYnVuIiBmb250LXNpemU9IjEzIiBsZW5ndGhBZGp1c3Q9InNwYWNpbmciIHRleHRMZW5ndGg9IjEwNCIgeD0iOTYiIHk9IjI3MS44MTI1Ij4mIzM2NDk7JiMzNjI2OyYjMzYwNDsmIzM1OTE7JiMzNjI3OyYjMzYwOTsmIzM2NTc7JiMzNjM0OyYjMzYyNjsmIzM2MTc7JiMzNjMzOyYjMzU4ODsmIzM2MTk7JiMzNTg4OyYjMzYyOTsmIzM2MTk7JiMzNjYwOyYjMzYyNjs8L3RleHQ+PHBvbHlnb24gZmlsbD0iIzE4MTgxOCIgcG9pbnRzPSIyNTksMjk5LjM1MTYsMjY5LDMwMy4zNTE2LDI1OSwzMDcuMzUxNiwyNjMsMzAzLjM1MTYiIHN0eWxlPSJzdHJva2U6IzE4MTgxODtzdHJva2Utd2lkdGg6MS4wOyIvPjxsaW5lIHN0eWxlPSJzdHJva2U6IzE4MTgxODtzdHJva2Utd2lkdGg6MS4wOyIgeDE9IjY4IiB4Mj0iMjY1IiB5MT0iMzAzLjM1MTYiIHkyPSIzMDMuMzUxNiIvPjx0ZXh0IGZpbGw9IiMwMDAwMDAiIGZvbnQtZmFtaWx5PSJTYXJhYnVuIiBmb250LXNpemU9IjEzIiBmb250LXdlaWdodD0iYm9sZCIgbGVuZ3RoQWRqdXN0PSJzcGFjaW5nIiB0ZXh0TGVuZ3RoPSI3IiB4PSI3NSIgeT0iMjk5LjcyNjYiPjc8L3RleHQ+PHRleHQgZmlsbD0iIzAwMDAwMCIgZm9udC1mYW1pbHk9IlNhcmFidW4iIGZvbnQtc2l6ZT0iMTMiIGxlbmd0aEFkanVzdD0ic3BhY2luZyIgdGV4dExlbmd0aD0iNTUiIHg9Ijg2IiB5PSIyOTkuNzI2NiI+JiMzNjQ4OyYjMzYyMTsmIzM2Mzk7JiMzNjI5OyYjMzU4NTsmIzM1ODg7JiMzNjI5OyYjMzYxOTsmIzM2NjA7JiMzNjI2OzwvdGV4dD48cG9seWdvbiBmaWxsPSIjMTgxODE4IiBwb2ludHM9IjI1OSwzMjcuMjY1NiwyNjksMzMxLjI2NTYsMjU5LDMzNS4yNjU2LDI2MywzMzEuMjY1NiIgc3R5bGU9InN0cm9rZTojMTgxODE4O3N0cm9rZS13aWR0aDoxLjA7Ii8+PGxpbmUgc3R5bGU9InN0cm9rZTojMTgxODE4O3N0cm9rZS13aWR0aDoxLjA7IiB4MT0iNjgiIHgyPSIyNjUiIHkxPSIzMzEuMjY1NiIgeTI9IjMzMS4yNjU2Ii8+PHRleHQgZmlsbD0iIzAwMDAwMCIgZm9udC1mYW1pbHk9IlNhcmFidW4iIGZvbnQtc2l6ZT0iMTMiIGZvbnQtd2VpZ2h0PSJib2xkIiBsZW5ndGhBZGp1c3Q9InNwYWNpbmciIHRleHRMZW5ndGg9IjciIHg9Ijc1IiB5PSIzMjcuNjQwNiI+ODwvdGV4dD48dGV4dCBmaWxsPSIjMDAwMDAwIiBmb250LWZhbWlseT0iU2FyYWJ1biIgZm9udC1zaXplPSIxMyIgbGVuZ3RoQWRqdXN0PSJzcGFjaW5nIiB0ZXh0TGVuZ3RoPSI5NSIgeD0iODYiIHk9IjMyNy42NDA2Ij4mIzM1ODU7JiMzNjA0OyYjMzYxMTsmIzM2NDA7JiMzNjU2OyYjMzYxNzsgIkNvbmZpcm0iPC90ZXh0Pjxwb2x5Z29uIGZpbGw9IiMxODE4MTgiIHBvaW50cz0iNzksMzU1LjE3OTcsNjksMzU5LjE3OTcsNzksMzYzLjE3OTcsNzUsMzU5LjE3OTciIHN0eWxlPSJzdHJva2U6IzE4MTgxODtzdHJva2Utd2lkdGg6MS4wOyIvPjxsaW5lIHN0eWxlPSJzdHJva2U6IzE4MTgxODtzdHJva2Utd2lkdGg6MS4wO3N0cm9rZS1kYXNoYXJyYXk6Mi4wLDIuMDsiIHgxPSI3MyIgeDI9IjI3MCIgeTE9IjM1OS4xNzk3IiB5Mj0iMzU5LjE3OTciLz48dGV4dCBmaWxsPSIjMDAwMDAwIiBmb250LWZhbWlseT0iU2FyYWJ1biIgZm9udC1zaXplPSIxMyIgZm9udC13ZWlnaHQ9ImJvbGQiIGxlbmd0aEFkanVzdD0ic3BhY2luZyIgdGV4dExlbmd0aD0iNyIgeD0iODUiIHk9IjM1NS41NTQ3Ij45PC90ZXh0Pjx0ZXh0IGZpbGw9IiMwMDAwMDAiIGZvbnQtZmFtaWx5PSJTYXJhYnVuIiBmb250LXNpemU9IjEzIiBsZW5ndGhBZGp1c3Q9InNwYWNpbmciIHRleHRMZW5ndGg9IjE2NiIgeD0iOTYiIHk9IjM1NS41NTQ3Ij4mIzM2NDk7JiMzNjI2OyYjMzYwNDsmIzM1OTE7JiMzNjI3OyYjMzYwOTsmIzM2NTc7JiMzNjM0OyYjMzYxODsmIzM2Mzk7JiMzNjA5OyYjMzYxODsmIzM2MzM7JiMzNjA5OyYjMzYxOTsmIzM2MzQ7JiMzNjE4OyYjMzYyMTsmIzM2MzI7JiMzNjQ4OyYjMzYyOTsmIzM2Mzc7JiMzNjE4OyYjMzYwNDsmIzM1ODg7JiMzNjI5OyYjMzYxOTsmIzM2NjA7JiMzNjI2OzwvdGV4dD48cG9seWdvbiBmaWxsPSIjMTgxODE4IiBwb2ludHM9IjI1OSwzODMuMDkzOCwyNjksMzg3LjA5MzgsMjU5LDM5MS4wOTM4LDI2MywzODcuMDkzOCIgc3R5bGU9InN0cm9rZTojMTgxODE4O3N0cm9rZS13aWR0aDoxLjA7Ii8+PGxpbmUgc3R5bGU9InN0cm9rZTojMTgxODE4O3N0cm9rZS13aWR0aDoxLjA7IiB4MT0iNjgiIHgyPSIyNjUiIHkxPSIzODcuMDkzOCIgeTI9IjM4Ny4wOTM4Ii8+PHRleHQgZmlsbD0iIzAwMDAwMCIgZm9udC1mYW1pbHk9IlNhcmFidW4iIGZvbnQtc2l6ZT0iMTMiIGZvbnQtd2VpZ2h0PSJib2xkIiBsZW5ndGhBZGp1c3Q9InNwYWNpbmciIHRleHRMZW5ndGg9IjE0IiB4PSI3NSIgeT0iMzgzLjQ2ODgiPjEwPC90ZXh0Pjx0ZXh0IGZpbGw9IiMwMDAwMDAiIGZvbnQtZmFtaWx5PSJTYXJhYnVuIiBmb250LXNpemU9IjEzIiBsZW5ndGhBZGp1c3Q9InNwYWNpbmciIHRleHRMZW5ndGg9Ijk1IiB4PSI5MyIgeT0iMzgzLjQ2ODgiPiYjMzU4NTsmIzM2MDQ7JiMzNjExOyYjMzY0MDsmIzM2NTY7JiMzNjE3OyAiQ29uZmlybSI8L3RleHQ+PHBvbHlnb24gZmlsbD0iIzE4MTgxOCIgcG9pbnRzPSI3OSw0MTEuMDA3OCw2OSw0MTUuMDA3OCw3OSw0MTkuMDA3OCw3NSw0MTUuMDA3OCIgc3R5bGU9InN0cm9rZTojMTgxODE4O3N0cm9rZS13aWR0aDoxLjA7Ii8+PGxpbmUgc3R5bGU9InN0cm9rZTojMTgxODE4O3N0cm9rZS13aWR0aDoxLjA7c3Ryb2tlLWRhc2hhcnJheToyLjAsMi4wOyIgeDE9IjczIiB4Mj0iMjcwIiB5MT0iNDE1LjAwNzgiIHkyPSI0MTUuMDA3OCIvPjx0ZXh0IGZpbGw9IiMwMDAwMDAiIGZvbnQtZmFtaWx5PSJTYXJhYnVuIiBmb250LXNpemU9IjEzIiBmb250LXdlaWdodD0iYm9sZCIgbGVuZ3RoQWRqdXN0PSJzcGFjaW5nIiB0ZXh0TGVuZ3RoPSIxNCIgeD0iODUiIHk9IjQxMS4zODI4Ij4xMTwvdGV4dD48dGV4dCBmaWxsPSIjMDAwMDAwIiBmb250LWZhbWlseT0iU2FyYWJ1biIgZm9udC1zaXplPSIxMyIgbGVuZ3RoQWRqdXN0PSJzcGFjaW5nIiB0ZXh0TGVuZ3RoPSI5NiIgeD0iMTAzIiB5PSI0MTEuMzgyOCI+JiMzNjQ5OyYjMzYyNjsmIzM2MDQ7JiMzNTkxOyYjMzYyNzsmIzM2MDk7JiMzNjU3OyYjMzYzNDsmIzM1OTQ7JiMzNjM1OyYjMzYxOTsmIzM2MzI7JiMzNjQ4OyYjMzU5MTsmIzM2MzY7JiMzNjA5OzwvdGV4dD48cG9seWdvbiBmaWxsPSIjMTgxODE4IiBwb2ludHM9IjI2MS40Nzk0LDUzOS4xMjYyLDI2OSw1NDYuODM1OSwyNTguMjM3LDU0Ni40Mzk2LDI2My41MTQ5LDU0NC40MDQxIiBzdHlsZT0ic3Ryb2tlOiMxODE4MTg7c3Ryb2tlLXdpZHRoOjEuMDsiLz48bGluZSBzdHlsZT0ic3Ryb2tlOiMxODE4MTg7c3Ryb2tlLXdpZHRoOjEuMDsiIHgxPSI2OCIgeDI9IjI2OSIgeTE9IjQ1Ni44MzU5IiB5Mj0iNTQ2LjgzNTkiLz48dGV4dCBmaWxsPSIjMDAwMDAwIiBmb250LWZhbWlseT0iU2FyYWJ1biIgZm9udC1zaXplPSIxMyIgZm9udC13ZWlnaHQ9ImJvbGQiIGxlbmd0aEFkanVzdD0ic3BhY2luZyIgdGV4dExlbmd0aD0iMTQiIHg9Ijc1IiB5PSI0NDYuMjUzOSI+MTI8L3RleHQ+PHRleHQgZmlsbD0iIzAwMDAwMCIgZm9udC1mYW1pbHk9IlNhcmFidW4iIGZvbnQtc2l6ZT0iMTMiIGxlbmd0aEFkanVzdD0ic3BhY2luZyIgdGV4dExlbmd0aD0iNDIiIHg9IjkzIiB5PSI0MzkuMjk2OSI+JiMzNjI5OyYjMzYzMzsmIzM2MTE7JiMzNjUwOyYjMzYyNzsmIzM2MjE7JiMzNjA0OzwvdGV4dD48dGV4dCBmaWxsPSIjMDAwMDAwIiBmb250LWZhbWlseT0iU2FyYWJ1biIgZm9udC1zaXplPSIxMyIgbGVuZ3RoQWRqdXN0PSJzcGFjaW5nIiB0ZXh0TGVuZ3RoPSIxMTAiIHg9IjkzIiB5PSI0NTMuMjEwOSI+JiMzNjI3OyYjMzYyMTsmIzM2MzM7JiMzNTg1OyYjMzYwMDsmIzM2MzQ7JiMzNjA5OyYjMzU4NTsmIzM2MzQ7JiMzNjE5OyYjMzU5NDsmIzM2MzU7JiMzNjE5OyYjMzYzMjsmIzM2NDg7JiMzNTkxOyYjMzYzNjsmIzM2MDk7PC90ZXh0PjxwYXRoIGQ9Ik00Nyw1NTguODM1OSBMMTExLDU1OC44MzU5IEwxMTEsNTY0Ljc1IEwxMDEsNTc0Ljc1IEw0Nyw1NzQuNzUgTDQ3LDU1OC44MzU5ICIgZmlsbD0iI0VFRUVFRSIgc3R5bGU9InN0cm9rZTojMDAwMDAwO3N0cm9rZS13aWR0aDoxLjU7Ii8+PHJlY3QgZmlsbD0ibm9uZSIgaGVpZ2h0PSI1MDIuMzEyNSIgc3R5bGU9InN0cm9rZTojMDAwMDAwO3N0cm9rZS13aWR0aDoxLjU7IiB3aWR0aD0iNjgxLjUiIHg9IjQ3IiB5PSI1NTguODM1OSIvPjx0ZXh0IGZpbGw9IiMwMDAwMDAiIGZvbnQtZmFtaWx5PSJTYXJhYnVuIiBmb250LXNpemU9IjEzIiBmb250LXdlaWdodD0iYm9sZCIgbGVuZ3RoQWRqdXN0PSJzcGFjaW5nIiB0ZXh0TGVuZ3RoPSIxOSIgeD0iNjIiIHk9IjU3Mi4xMjUiPmFsdDwvdGV4dD48dGV4dCBmaWxsPSIjMDAwMDAwIiBmb250LWZhbWlseT0iU2FyYWJ1biIgZm9udC1zaXplPSIxMSIgZm9udC13ZWlnaHQ9ImJvbGQiIGxlbmd0aEFkanVzdD0ic3BhY2luZyIgdGV4dExlbmd0aD0iOTgiIHg9IjEyNiIgeT0iNTcxLjIzNDQiPlsmIzM2NDg7JiMzNjIzOyYjMzYyMTsmIzM2MzQ7JiMzNjUyOyYjMzYxNzsmIzM2NTY7JiMzNjQ4OyYjMzU4NTsmIzM2MzY7JiMzNjA5OyA1ICYjMzYwOTsmIzM2MzQ7JiMzNjA3OyYjMzYzNztdPC90ZXh0PjxsaW5lIHN0eWxlPSJzdHJva2U6IzAwMDAwMDtzdHJva2Utd2lkdGg6MS4wO3N0cm9rZS1kYXNoYXJyYXk6Mi4wLDIuMDsiIHgxPSI0NyIgeDI9IjcyOC41IiB5MT0iNzYzLjIzNDQiIHkyPSI3NjMuMjM0NCIvPjx0ZXh0IGZpbGw9IiMwMDAwMDAiIGZvbnQtZmFtaWx5PSJTYXJhYnVuIiBmb250LXNpemU9IjExIiBmb250LXdlaWdodD0iYm9sZCIgbGVuZ3RoQWRqdXN0PSJzcGFjaW5nIiB0ZXh0TGVuZ3RoPSI4NyIgeD0iNTIiIHk9Ijc3NS42MzI4Ij5bJiMzNjQ4OyYjMzYyMzsmIzM2MjE7JiMzNjM0OyYjMzY0ODsmIzM1ODU7JiMzNjM2OyYjMzYwOTsgNSAmIzM2MDk7JiMzNjM0OyYjMzYwNzsmIzM2Mzc7XTwvdGV4dD48cG9seWdvbiBmaWxsPSIjMTgxODE4IiBwb2ludHM9IjI1OSw2MDAuNjY0MSwyNjksNjA0LjY2NDEsMjU5LDYwOC42NjQxLDI2Myw2MDQuNjY0MSIgc3R5bGU9InN0cm9rZTojMTgxODE4O3N0cm9rZS13aWR0aDoxLjA7Ii8+PGxpbmUgc3R5bGU9InN0cm9rZTojMTgxODE4O3N0cm9rZS13aWR0aDoxLjA7IiB4MT0iNjgiIHgyPSIyNjUiIHkxPSI2MDQuNjY0MSIgeTI9IjYwNC42NjQxIi8+PHRleHQgZmlsbD0iIzAwMDAwMCIgZm9udC1mYW1pbHk9IlNhcmFidW4iIGZvbnQtc2l6ZT0iMTMiIGZvbnQtd2VpZ2h0PSJib2xkIiBsZW5ndGhBZGp1c3Q9InNwYWNpbmciIHRleHRMZW5ndGg9IjE0IiB4PSI3NSIgeT0iNjAxLjAzOTEiPjEzPC90ZXh0Pjx0ZXh0IGZpbGw9IiMwMDAwMDAiIGZvbnQtZmFtaWx5PSJTYXJhYnVuIiBmb250LXNpemU9IjEzIiBsZW5ndGhBZGp1c3Q9InNwYWNpbmciIHRleHRMZW5ndGg9Ijk1IiB4PSI5MyIgeT0iNjAxLjAzOTEiPiYjMzU4NTsmIzM2MDQ7JiMzNjExOyYjMzY0MDsmIzM2NTY7JiMzNjE3OyAiQ29uZmlybSI8L3RleHQ+PHBvbHlnb24gZmlsbD0iIzE4MTgxOCIgcG9pbnRzPSI0NjUsNjU2LjQ5MjIsNDc1LDY2MC40OTIyLDQ2NSw2NjQuNDkyMiw0NjksNjYwLjQ5MjIiIHN0eWxlPSJzdHJva2U6IzE4MTgxODtzdHJva2Utd2lkdGg6MS4wOyIvPjxsaW5lIHN0eWxlPSJzdHJva2U6IzE4MTgxODtzdHJva2Utd2lkdGg6MS4wOyIgeDE9IjI4MSIgeDI9IjQ3MSIgeTE9IjY2MC40OTIyIiB5Mj0iNjYwLjQ5MjIiLz48dGV4dCBmaWxsPSIjMDAwMDAwIiBmb250LWZhbWlseT0iU2FyYWJ1biIgZm9udC1zaXplPSIxMyIgZm9udC13ZWlnaHQ9ImJvbGQiIGxlbmd0aEFkanVzdD0ic3BhY2luZyIgdGV4dExlbmd0aD0iMTQiIHg9IjI4OCIgeT0iNjU2Ljg2NzIiPjE0PC90ZXh0Pjx0ZXh0IGZpbGw9IiMwMDAwMDAiIGZvbnQtZmFtaWx5PSJTYXJhYnVuIiBmb250LXNpemU9IjEzIiBsZW5ndGhBZGp1c3Q9InNwYWNpbmciIHRleHRMZW5ndGg9IjExOSIgeD0iMzA2IiB5PSI2NTYuODY3MiI+JiMzNjI2OyYjMzY1NjsmIzM1OTE7JiMzNTg2OyYjMzY1NzsmIzM2Mjk7JiMzNjE3OyYjMzY0MTsmIzM2MjE7JiMzNTg1OyYjMzYzNDsmIzM2MTk7JiMzNjI2OyYjMzYxNzsmIzM2MzM7JiMzNTg4OyYjMzYxOTsmIzM1ODg7JiMzNjI5OyYjMzYxOTsmIzM2NjA7JiMzNjI2OzwvdGV4dD48bGluZSBzdHlsZT0ic3Ryb2tlOiMxODE4MTg7c3Ryb2tlLXdpZHRoOjEuMDsiIHgxPSI2NjciIHgyPSI2NTciIHkxPSI2ODguNDA2MyIgeTI9IjY4NC40MDYzIi8+PGxpbmUgc3R5bGU9InN0cm9rZTojMTgxODE4O3N0cm9rZS13aWR0aDoxLjA7IiB4MT0iNjY3IiB4Mj0iNjU3IiB5MT0iNjg4LjQwNjMiIHkyPSI2OTIuNDA2MyIvPjxsaW5lIHN0eWxlPSJzdHJva2U6IzE4MTgxODtzdHJva2Utd2lkdGg6MS4wOyIgeDE9IjQ4NyIgeDI9IjY2OCIgeTE9IjY4OC40MDYzIiB5Mj0iNjg4LjQwNjMiLz48dGV4dCBmaWxsPSIjMDAwMDAwIiBmb250LWZhbWlseT0iU2FyYWJ1biIgZm9udC1zaXplPSIxMyIgZm9udC13ZWlnaHQ9ImJvbGQiIGxlbmd0aEFkanVzdD0ic3BhY2luZyIgdGV4dExlbmd0aD0iMTQiIHg9IjQ5NCIgeT0iNjg0Ljc4MTMiPjE1PC90ZXh0Pjx0ZXh0IGZpbGw9IiMwMDAwMDAiIGZvbnQtZmFtaWx5PSJTYXJhYnVuIiBmb250LXNpemU9IjEzIiBsZW5ndGhBZGp1c3Q9InNwYWNpbmciIHRleHRMZW5ndGg9IjEzMiIgeD0iNTEyIiB5PSI2ODQuNzgxMyI+JiMzNjQ4OyYjMzU4NjsmIzM2Mzc7JiMzNjE4OyYjMzYwOTsmIzM1ODY7JiMzNjU3OyYjMzYyOTsmIzM2MTc7JiMzNjQxOyYjMzYyMTsmIzM1ODU7JiMzNjM0OyYjMzYxOTsmIzM2MjY7JiMzNjE3OyYjMzYzMzsmIzM1ODg7JiMzNjE5OyYjMzU4ODsmIzM2Mjk7JiMzNjE5OyYjMzY2MDsmIzM2MjY7PC90ZXh0Pjxwb2x5Z29uIGZpbGw9IiMxODE4MTgiIHBvaW50cz0iMjkyLDcxMi4zMjAzLDI4Miw3MTYuMzIwMywyOTIsNzIwLjMyMDMsMjg4LDcxNi4zMjAzIiBzdHlsZT0ic3Ryb2tlOiMxODE4MTg7c3Ryb2tlLXdpZHRoOjEuMDsiLz48bGluZSBzdHlsZT0ic3Ryb2tlOiMxODE4MTg7c3Ryb2tlLXdpZHRoOjEuMDtzdHJva2UtZGFzaGFycmF5OjIuMCwyLjA7IiB4MT0iMjg2IiB4Mj0iNDc2IiB5MT0iNzE2LjMyMDMiIHkyPSI3MTYuMzIwMyIvPjx0ZXh0IGZpbGw9IiMwMDAwMDAiIGZvbnQtZmFtaWx5PSJTYXJhYnVuIiBmb250LXNpemU9IjEzIiBmb250LXdlaWdodD0iYm9sZCIgbGVuZ3RoQWRqdXN0PSJzcGFjaW5nIiB0ZXh0TGVuZ3RoPSIxNCIgeD0iMjk4IiB5PSI3MTIuNjk1MyI+MTY8L3RleHQ+PHRleHQgZmlsbD0iIzAwMDAwMCIgZm9udC1mYW1pbHk9IlNhcmFidW4iIGZvbnQtc2l6ZT0iMTMiIGxlbmd0aEFkanVzdD0ic3BhY2luZyIgdGV4dExlbmd0aD0iOTEiIHg9IjMxNiIgeT0iNzEyLjY5NTMiPiYjMzYxMjsmIzM2MjE7JiMzNTg1OyYjMzYzNDsmIzM2MTk7JiMzNjI2OyYjMzYxNzsmIzM2MzM7JiMzNTg4OyYjMzYxOTsmIzM1ODg7JiMzNjI5OyYjMzYxOTsmIzM2NjA7JiMzNjI2OzwvdGV4dD48cG9seWdvbiBmaWxsPSIjMTgxODE4IiBwb2ludHM9Ijc5LDc0MC4yMzQ0LDY5LDc0NC4yMzQ0LDc5LDc0OC4yMzQ0LDc1LDc0NC4yMzQ0IiBzdHlsZT0ic3Ryb2tlOiMxODE4MTg7c3Ryb2tlLXdpZHRoOjEuMDsiLz48bGluZSBzdHlsZT0ic3Ryb2tlOiMxODE4MTg7c3Ryb2tlLXdpZHRoOjEuMDtzdHJva2UtZGFzaGFycmF5OjIuMCwyLjA7IiB4MT0iNzMiIHgyPSIyNzAiIHkxPSI3NDQuMjM0NCIgeTI9Ijc0NC4yMzQ0Ii8+PHRleHQgZmlsbD0iIzAwMDAwMCIgZm9udC1mYW1pbHk9IlNhcmFidW4iIGZvbnQtc2l6ZT0iMTMiIGZvbnQtd2VpZ2h0PSJib2xkIiBsZW5ndGhBZGp1c3Q9InNwYWNpbmciIHRleHRMZW5ndGg9IjE0IiB4PSI4NSIgeT0iNzQwLjYwOTQiPjE3PC90ZXh0Pjx0ZXh0IGZpbGw9IiMwMDAwMDAiIGZvbnQtZmFtaWx5PSJTYXJhYnVuIiBmb250LXNpemU9IjEzIiBsZW5ndGhBZGp1c3Q9InNwYWNpbmciIHRleHRMZW5ndGg9IjExOCIgeD0iMTAzIiB5PSI3NDAuNjA5NCI+JiMzNjQ5OyYjMzYyNjsmIzM2MDQ7JiMzNTkxOyYjMzYxMjsmIzM2MjE7JiMzNTg1OyYjMzYzNDsmIzM2MTk7JiMzNjI2OyYjMzYxNzsmIzM2MzM7JiMzNTg4OyYjMzYxOTsmIzM1ODg7JiMzNjI5OyYjMzYxOTsmIzM2NjA7JiMzNjI2OzwvdGV4dD48cG9seWdvbiBmaWxsPSIjMTgxODE4IiBwb2ludHM9IjI1OSw3OTcuOTIxOSwyNjksODAxLjkyMTksMjU5LDgwNS45MjE5LDI2Myw4MDEuOTIxOSIgc3R5bGU9InN0cm9rZTojMTgxODE4O3N0cm9rZS13aWR0aDoxLjA7Ii8+PGxpbmUgc3R5bGU9InN0cm9rZTojMTgxODE4O3N0cm9rZS13aWR0aDoxLjA7IiB4MT0iNjgiIHgyPSIyNjUiIHkxPSI4MDEuOTIxOSIgeTI9IjgwMS45MjE5Ii8+PHRleHQgZmlsbD0iIzAwMDAwMCIgZm9udC1mYW1pbHk9IlNhcmFidW4iIGZvbnQtc2l6ZT0iMTMiIGZvbnQtd2VpZ2h0PSJib2xkIiBsZW5ndGhBZGp1c3Q9InNwYWNpbmciIHRleHRMZW5ndGg9IjE0IiB4PSI3NSIgeT0iNzk4LjI5NjkiPjE4PC90ZXh0Pjx0ZXh0IGZpbGw9IiMwMDAwMDAiIGZvbnQtZmFtaWx5PSJTYXJhYnVuIiBmb250LXNpemU9IjEzIiBsZW5ndGhBZGp1c3Q9InNwYWNpbmciIHRleHRMZW5ndGg9IjE2NiIgeD0iOTMiIHk9Ijc5OC4yOTY5Ij4mIzM1ODU7JiMzNjA0OyYjMzYxMTsmIzM2NDA7JiMzNjU2OyYjMzYxNzsgIkdvIHRvIFJlZnVuZCBQYWdlIjwvdGV4dD48cG9seWdvbiBmaWxsPSIjMTgxODE4IiBwb2ludHM9IjQ2NSw4MjUuODM1OSw0NzUsODI5LjgzNTksNDY1LDgzMy44MzU5LDQ2OSw4MjkuODM1OSIgc3R5bGU9InN0cm9rZTojMTgxODE4O3N0cm9rZS13aWR0aDoxLjA7Ii8+PGxpbmUgc3R5bGU9InN0cm9rZTojMTgxODE4O3N0cm9rZS13aWR0aDoxLjA7IiB4MT0iMjgxIiB4Mj0iNDcxIiB5MT0iODI5LjgzNTkiIHkyPSI4MjkuODM1OSIvPjx0ZXh0IGZpbGw9IiMwMDAwMDAiIGZvbnQtZmFtaWx5PSJTYXJhYnVuIiBmb250LXNpemU9IjEzIiBmb250LXdlaWdodD0iYm9sZCIgbGVuZ3RoQWRqdXN0PSJzcGFjaW5nIiB0ZXh0TGVuZ3RoPSIxNCIgeD0iMjg4IiB5PSI4MjYuMjEwOSI+MTk8L3RleHQ+PHRleHQgZmlsbD0iIzAwMDAwMCIgZm9udC1mYW1pbHk9IlNhcmFidW4iIGZvbnQtc2l6ZT0iMTMiIGxlbmd0aEFkanVzdD0ic3BhY2luZyIgdGV4dExlbmd0aD0iMTU5IiB4PSIzMDYiIHk9IjgyNi4yMTA5Ij4mIzM1ODY7JiMzNjI5OyYjMzY0ODsmIzM1ODY7JiMzNjU3OyYjMzYzNDsmIzM2MDY7JiMzNjM4OyYjMzU5MTsmIzM2Mjc7JiMzNjA5OyYjMzY1NzsmIzM2MzQ7JiMzNjI2OyYjMzYxOTsmIzM2NTc7JiMzNjM0OyYjMzU5MTsmIzM1ODg7JiMzNjM1OyYjMzU4NjsmIzM2Mjk7JiMzNTg4OyYjMzYzOTsmIzM2MDk7JiMzNjQ4OyYjMzU5MTsmIzM2MzY7JiMzNjA5OzwvdGV4dD48cG9seWdvbiBmaWxsPSIjMTgxODE4IiBwb2ludHM9IjI5Miw4NTMuNzUsMjgyLDg1Ny43NSwyOTIsODYxLjc1LDI4OCw4NTcuNzUiIHN0eWxlPSJzdHJva2U6IzE4MTgxODtzdHJva2Utd2lkdGg6MS4wOyIvPjxsaW5lIHN0eWxlPSJzdHJva2U6IzE4MTgxODtzdHJva2Utd2lkdGg6MS4wO3N0cm9rZS1kYXNoYXJyYXk6Mi4wLDIuMDsiIHgxPSIyODYiIHgyPSI0NzYiIHkxPSI4NTcuNzUiIHkyPSI4NTcuNzUiLz48dGV4dCBmaWxsPSIjMDAwMDAwIiBmb250LWZhbWlseT0iU2FyYWJ1biIgZm9udC1zaXplPSIxMyIgZm9udC13ZWlnaHQ9ImJvbGQiIGxlbmd0aEFkanVzdD0ic3BhY2luZyIgdGV4dExlbmd0aD0iMTQiIHg9IjI5OCIgeT0iODU0LjEyNSI+MjA8L3RleHQ+PHRleHQgZmlsbD0iIzAwMDAwMCIgZm9udC1mYW1pbHk9IlNhcmFidW4iIGZvbnQtc2l6ZT0iMTMiIGxlbmd0aEFkanVzdD0ic3BhY2luZyIgdGV4dExlbmd0aD0iMTExIiB4PSIzMTYiIHk9Ijg1NC4xMjUiPiYjMzYyNzsmIzM2MDk7JiMzNjU3OyYjMzYzNDsmIzM2MjY7JiMzNjE5OyYjMzY1NzsmIzM2MzQ7JiMzNTkxOyYjMzU4ODsmIzM2MzU7JiMzNTg2OyYjMzYyOTsmIzM1ODg7JiMzNjM5OyYjMzYwOTsmIzM2NDg7JiMzNTkxOyYjMzYzNjsmIzM2MDk7PC90ZXh0Pjxwb2x5Z29uIGZpbGw9IiMxODE4MTgiIHBvaW50cz0iNzksODgxLjY2NDEsNjksODg1LjY2NDEsNzksODg5LjY2NDEsNzUsODg1LjY2NDEiIHN0eWxlPSJzdHJva2U6IzE4MTgxODtzdHJva2Utd2lkdGg6MS4wOyIvPjxsaW5lIHN0eWxlPSJzdHJva2U6IzE4MTgxODtzdHJva2Utd2lkdGg6MS4wO3N0cm9rZS1kYXNoYXJyYXk6Mi4wLDIuMDsiIHgxPSI3MyIgeDI9IjI3MCIgeTE9Ijg4NS42NjQxIiB5Mj0iODg1LjY2NDEiLz48dGV4dCBmaWxsPSIjMDAwMDAwIiBmb250LWZhbWlseT0iU2FyYWJ1biIgZm9udC1zaXplPSIxMyIgZm9udC13ZWlnaHQ9ImJvbGQiIGxlbmd0aEFkanVzdD0ic3BhY2luZyIgdGV4dExlbmd0aD0iMTQiIHg9Ijg1IiB5PSI4ODIuMDM5MSI+MjE8L3RleHQ+PHRleHQgZmlsbD0iIzAwMDAwMCIgZm9udC1mYW1pbHk9IlNhcmFidW4iIGZvbnQtc2l6ZT0iMTMiIGxlbmd0aEFkanVzdD0ic3BhY2luZyIgdGV4dExlbmd0aD0iMTExIiB4PSIxMDMiIHk9Ijg4Mi4wMzkxIj4mIzM2Mjc7JiMzNjA5OyYjMzY1NzsmIzM2MzQ7JiMzNjI2OyYjMzYxOTsmIzM2NTc7JiMzNjM0OyYjMzU5MTsmIzM1ODg7JiMzNjM1OyYjMzU4NjsmIzM2Mjk7JiMzNTg4OyYjMzYzOTsmIzM2MDk7JiMzNjQ4OyYjMzU5MTsmIzM2MzY7JiMzNjA5OzwvdGV4dD48cG9seWdvbiBmaWxsPSIjMTgxODE4IiBwb2ludHM9IjI1OSw5MDkuNTc4MSwyNjksOTEzLjU3ODEsMjU5LDkxNy41NzgxLDI2Myw5MTMuNTc4MSIgc3R5bGU9InN0cm9rZTojMTgxODE4O3N0cm9rZS13aWR0aDoxLjA7Ii8+PGxpbmUgc3R5bGU9InN0cm9rZTojMTgxODE4O3N0cm9rZS13aWR0aDoxLjA7IiB4MT0iNjgiIHgyPSIyNjUiIHkxPSI5MTMuNTc4MSIgeTI9IjkxMy41NzgxIi8+PHRleHQgZmlsbD0iIzAwMDAwMCIgZm9udC1mYW1pbHk9IlNhcmFidW4iIGZvbnQtc2l6ZT0iMTMiIGZvbnQtd2VpZ2h0PSJib2xkIiBsZW5ndGhBZGp1c3Q9InNwYWNpbmciIHRleHRMZW5ndGg9IjE0IiB4PSI3NSIgeT0iOTA5Ljk1MzEiPjIyPC90ZXh0Pjx0ZXh0IGZpbGw9IiMwMDAwMDAiIGZvbnQtZmFtaWx5PSJTYXJhYnVuIiBmb250LXNpemU9IjEzIiBsZW5ndGhBZGp1c3Q9InNwYWNpbmciIHRleHRMZW5ndGg9IjExOCIgeD0iOTMiIHk9IjkwOS45NTMxIj4mIzM1ODU7JiMzNjE5OyYjMzYyOTsmIzM1ODU7JiMzNTg2OyYjMzY1NzsmIzM2Mjk7JiMzNjE3OyYjMzY0MTsmIzM2MjE7JiMzNTg4OyYjMzYzNTsmIzM1ODY7JiMzNjI5OyYjMzU4ODsmIzM2Mzk7JiMzNjA5OyYjMzY0ODsmIzM1OTE7JiMzNjM2OyYjMzYwOTs8L3RleHQ+PHBvbHlnb24gZmlsbD0iIzE4MTgxOCIgcG9pbnRzPSIyNTksOTM3LjQ5MjIsMjY5LDk0MS40OTIyLDI1OSw5NDUuNDkyMiwyNjMsOTQxLjQ5MjIiIHN0eWxlPSJzdHJva2U6IzE4MTgxODtzdHJva2Utd2lkdGg6MS4wOyIvPjxsaW5lIHN0eWxlPSJzdHJva2U6IzE4MTgxODtzdHJva2Utd2lkdGg6MS4wOyIgeDE9IjY4IiB4Mj0iMjY1IiB5MT0iOTQxLjQ5MjIiIHkyPSI5NDEuNDkyMiIvPjx0ZXh0IGZpbGw9IiMwMDAwMDAiIGZvbnQtZmFtaWx5PSJTYXJhYnVuIiBmb250LXNpemU9IjEzIiBmb250LXdlaWdodD0iYm9sZCIgbGVuZ3RoQWRqdXN0PSJzcGFjaW5nIiB0ZXh0TGVuZ3RoPSIxNCIgeD0iNzUiIHk9IjkzNy44NjcyIj4yMzwvdGV4dD48dGV4dCBmaWxsPSIjMDAwMDAwIiBmb250LWZhbWlseT0iU2FyYWJ1biIgZm9udC1zaXplPSIxMyIgbGVuZ3RoQWRqdXN0PSJzcGFjaW5nIiB0ZXh0TGVuZ3RoPSI3NyIgeD0iOTMiIHk9IjkzNy44NjcyIj4mIzM1ODU7JiMzNjA0OyYjMzYxMTsmIzM2NDA7JiMzNjU2OyYjMzYxNzsgIlNlbmQiPC90ZXh0Pjxwb2x5Z29uIGZpbGw9IiMxODE4MTgiIHBvaW50cz0iNDY1LDk2NS40MDYzLDQ3NSw5NjkuNDA2Myw0NjUsOTczLjQwNjMsNDY5LDk2OS40MDYzIiBzdHlsZT0ic3Ryb2tlOiMxODE4MTg7c3Ryb2tlLXdpZHRoOjEuMDsiLz48bGluZSBzdHlsZT0ic3Ryb2tlOiMxODE4MTg7c3Ryb2tlLXdpZHRoOjEuMDsiIHgxPSIyODEiIHgyPSI0NzEiIHkxPSI5NjkuNDA2MyIgeTI9Ijk2OS40MDYzIi8+PHRleHQgZmlsbD0iIzAwMDAwMCIgZm9udC1mYW1pbHk9IlNhcmFidW4iIGZvbnQtc2l6ZT0iMTMiIGZvbnQtd2VpZ2h0PSJib2xkIiBsZW5ndGhBZGp1c3Q9InNwYWNpbmciIHRleHRMZW5ndGg9IjE0IiB4PSIyODgiIHk9Ijk2NS43ODEzIj4yNDwvdGV4dD48dGV4dCBmaWxsPSIjMDAwMDAwIiBmb250LWZhbWlseT0iU2FyYWJ1biIgZm9udC1zaXplPSIxMyIgbGVuZ3RoQWRqdXN0PSJzcGFjaW5nIiB0ZXh0TGVuZ3RoPSIxMDQiIHg9IjMwNiIgeT0iOTY1Ljc4MTMiPiYjMzYyNjsmIzM2NTY7JiMzNTkxOyYjMzU4NjsmIzM2NTc7JiMzNjI5OyYjMzYxNzsmIzM2NDE7JiMzNjIxOyYjMzU4ODsmIzM2MzU7JiMzNTg2OyYjMzYyOTsmIzM1ODg7JiMzNjM5OyYjMzYwOTsmIzM2NDg7JiMzNTkxOyYjMzYzNjsmIzM2MDk7PC90ZXh0PjxsaW5lIHN0eWxlPSJzdHJva2U6IzE4MTgxODtzdHJva2Utd2lkdGg6MS4wOyIgeDE9IjY2NyIgeDI9IjY1NyIgeTE9Ijk5Ny4zMjAzIiB5Mj0iOTkzLjMyMDMiLz48bGluZSBzdHlsZT0ic3Ryb2tlOiMxODE4MTg7c3Ryb2tlLXdpZHRoOjEuMDsiIHgxPSI2NjciIHgyPSI2NTciIHkxPSI5OTcuMzIwMyIgeTI9IjEwMDEuMzIwMyIvPjxsaW5lIHN0eWxlPSJzdHJva2U6IzE4MTgxODtzdHJva2Utd2lkdGg6MS4wOyIgeDE9IjQ4NyIgeDI9IjY2OCIgeTE9Ijk5Ny4zMjAzIiB5Mj0iOTk3LjMyMDMiLz48dGV4dCBmaWxsPSIjMDAwMDAwIiBmb250LWZhbWlseT0iU2FyYWJ1biIgZm9udC1zaXplPSIxMyIgZm9udC13ZWlnaHQ9ImJvbGQiIGxlbmd0aEFkanVzdD0ic3BhY2luZyIgdGV4dExlbmd0aD0iMTQiIHg9IjQ5NCIgeT0iOTkzLjY5NTMiPjI1PC90ZXh0Pjx0ZXh0IGZpbGw9IiMwMDAwMDAiIGZvbnQtZmFtaWx5PSJTYXJhYnVuIiBmb250LXNpemU9IjEzIiBsZW5ndGhBZGp1c3Q9InNwYWNpbmciIHRleHRMZW5ndGg9Ijg5IiB4PSI1MTIiIHk9Ijk5My42OTUzIj4mIzM2NDg7JiMzNTg2OyYjMzYzNzsmIzM2MTg7JiMzNjA5OyYjMzU4ODsmIzM2MzU7JiMzNTg2OyYjMzYyOTsmIzM1ODg7JiMzNjM5OyYjMzYwOTsmIzM2NDg7JiMzNTkxOyYjMzYzNjsmIzM2MDk7PC90ZXh0Pjxwb2x5Z29uIGZpbGw9IiMxODE4MTgiIHBvaW50cz0iMjkyLDEwMjEuMjM0NCwyODIsMTAyNS4yMzQ0LDI5MiwxMDI5LjIzNDQsMjg4LDEwMjUuMjM0NCIgc3R5bGU9InN0cm9rZTojMTgxODE4O3N0cm9rZS13aWR0aDoxLjA7Ii8+PGxpbmUgc3R5bGU9InN0cm9rZTojMTgxODE4O3N0cm9rZS13aWR0aDoxLjA7c3Ryb2tlLWRhc2hhcnJheToyLjAsMi4wOyIgeDE9IjI4NiIgeDI9IjQ3NiIgeTE9IjEwMjUuMjM0NCIgeTI9IjEwMjUuMjM0NCIvPjx0ZXh0IGZpbGw9IiMwMDAwMDAiIGZvbnQtZmFtaWx5PSJTYXJhYnVuIiBmb250LXNpemU9IjEzIiBmb250LXdlaWdodD0iYm9sZCIgbGVuZ3RoQWRqdXN0PSJzcGFjaW5nIiB0ZXh0TGVuZ3RoPSIxNCIgeD0iMjk4IiB5PSIxMDIxLjYwOTQiPjI2PC90ZXh0Pjx0ZXh0IGZpbGw9IiMwMDAwMDAiIGZvbnQtZmFtaWx5PSJTYXJhYnVuIiBmb250LXNpemU9IjEzIiBsZW5ndGhBZGp1c3Q9InNwYWNpbmciIHRleHRMZW5ndGg9IjEyNSIgeD0iMzE2IiB5PSIxMDIxLjYwOTQiPiYjMzYxMjsmIzM2MjE7JiMzNTg1OyYjMzYzNDsmIzM2MTk7JiMzNjI2OyYjMzYxOTsmIzM2NTc7JiMzNjM0OyYjMzU5MTsmIzM1ODg7JiMzNjM1OyYjMzU4NjsmIzM2Mjk7JiMzNTg4OyYjMzYzOTsmIzM2MDk7JiMzNjQ4OyYjMzU5MTsmIzM2MzY7JiMzNjA5OzwvdGV4dD48cG9seWdvbiBmaWxsPSIjMTgxODE4IiBwb2ludHM9Ijc5LDEwNDkuMTQ4NCw2OSwxMDUzLjE0ODQsNzksMTA1Ny4xNDg0LDc1LDEwNTMuMTQ4NCIgc3R5bGU9InN0cm9rZTojMTgxODE4O3N0cm9rZS13aWR0aDoxLjA7Ii8+PGxpbmUgc3R5bGU9InN0cm9rZTojMTgxODE4O3N0cm9rZS13aWR0aDoxLjA7c3Ryb2tlLWRhc2hhcnJheToyLjAsMi4wOyIgeDE9IjczIiB4Mj0iMjcwIiB5MT0iMTA1My4xNDg0IiB5Mj0iMTA1My4xNDg0Ii8+PHRleHQgZmlsbD0iIzAwMDAwMCIgZm9udC1mYW1pbHk9IlNhcmFidW4iIGZvbnQtc2l6ZT0iMTMiIGZvbnQtd2VpZ2h0PSJib2xkIiBsZW5ndGhBZGp1c3Q9InNwYWNpbmciIHRleHRMZW5ndGg9IjE0IiB4PSI4NSIgeT0iMTA0OS41MjM0Ij4yNzwvdGV4dD48dGV4dCBmaWxsPSIjMDAwMDAwIiBmb250LWZhbWlseT0iU2FyYWJ1biIgZm9udC1zaXplPSIxMyIgbGVuZ3RoQWRqdXN0PSJzcGFjaW5nIiB0ZXh0TGVuZ3RoPSIxNTIiIHg9IjEwMyIgeT0iMTA0OS41MjM0Ij4mIzM2NDk7JiMzNjI2OyYjMzYwNDsmIzM1OTE7JiMzNjEyOyYjMzYyMTsmIzM1ODU7JiMzNjM0OyYjMzYxOTsmIzM2MjY7JiMzNjE5OyYjMzY1NzsmIzM2MzQ7JiMzNTkxOyYjMzU4ODsmIzM2MzU7JiMzNTg2OyYjMzYyOTsmIzM1ODg7JiMzNjM5OyYjMzYwOTsmIzM2NDg7JiMzNTkxOyYjMzYzNjsmIzM2MDk7PC90ZXh0Pjxwb2x5Z29uIGZpbGw9IiMxODE4MTgiIHBvaW50cz0iMjU5LDEwOTEuMDYyNSwyNjksMTA5NS4wNjI1LDI1OSwxMDk5LjA2MjUsMjYzLDEwOTUuMDYyNSIgc3R5bGU9InN0cm9rZTojMTgxODE4O3N0cm9rZS13aWR0aDoxLjA7Ii8+PGxpbmUgc3R5bGU9InN0cm9rZTojMTgxODE4O3N0cm9rZS13aWR0aDoxLjA7IiB4MT0iNjgiIHgyPSIyNjUiIHkxPSIxMDk1LjA2MjUiIHkyPSIxMDk1LjA2MjUiLz48dGV4dCBmaWxsPSIjMDAwMDAwIiBmb250LWZhbWlseT0iU2FyYWJ1biIgZm9udC1zaXplPSIxMyIgZm9udC13ZWlnaHQ9ImJvbGQiIGxlbmd0aEFkanVzdD0ic3BhY2luZyIgdGV4dExlbmd0aD0iMTQiIHg9Ijc1IiB5PSIxMDkxLjQzNzUiPjI4PC90ZXh0Pjx0ZXh0IGZpbGw9IiMwMDAwMDAiIGZvbnQtZmFtaWx5PSJTYXJhYnVuIiBmb250LXNpemU9IjEzIiBsZW5ndGhBZGp1c3Q9InNwYWNpbmciIHRleHRMZW5ndGg9IjYzIiB4PSI5MyIgeT0iMTA5MS40Mzc1Ij4mIzM1ODU7JiMzNjA0OyYjMzYxMTsmIzM2NDA7JiMzNjU2OyYjMzYxNzsgIk9LIjwvdGV4dD48cG9seWdvbiBmaWxsPSIjMTgxODE4IiBwb2ludHM9IjQ2NSwxMTE4Ljk3NjYsNDc1LDExMjIuOTc2Niw0NjUsMTEyNi45NzY2LDQ2OSwxMTIyLjk3NjYiIHN0eWxlPSJzdHJva2U6IzE4MTgxODtzdHJva2Utd2lkdGg6MS4wOyIvPjxsaW5lIHN0eWxlPSJzdHJva2U6IzE4MTgxODtzdHJva2Utd2lkdGg6MS4wOyIgeDE9IjI4MSIgeDI9IjQ3MSIgeTE9IjExMjIuOTc2NiIgeTI9IjExMjIuOTc2NiIvPjx0ZXh0IGZpbGw9IiMwMDAwMDAiIGZvbnQtZmFtaWx5PSJTYXJhYnVuIiBmb250LXNpemU9IjEzIiBmb250LXdlaWdodD0iYm9sZCIgbGVuZ3RoQWRqdXN0PSJzcGFjaW5nIiB0ZXh0TGVuZ3RoPSIxNCIgeD0iMjg4IiB5PSIxMTE5LjM1MTYiPjI5PC90ZXh0Pjx0ZXh0IGZpbGw9IiMwMDAwMDAiIGZvbnQtZmFtaWx5PSJTYXJhYnVuIiBmb250LXNpemU9IjEzIiBsZW5ndGhBZGp1c3Q9InNwYWNpbmciIHRleHRMZW5ndGg9IjkwIiB4PSIzMDYiIHk9IjExMTkuMzUxNiI+JiMzNTg2OyYjMzYyOTsmIzM2NDg7JiMzNTg2OyYjMzY1NzsmIzM2MzQ7JiMzNjA2OyYjMzYzODsmIzM1OTE7JiMzNjI3OyYjMzYwOTsmIzM2NTc7JiMzNjM0OyYjMzYyNzsmIzM2MjE7JiMzNjMzOyYjMzU4NTs8L3RleHQ+PHBvbHlnb24gZmlsbD0iIzE4MTgxOCIgcG9pbnRzPSIyOTIsMTE0Ni44OTA2LDI4MiwxMTUwLjg5MDYsMjkyLDExNTQuODkwNiwyODgsMTE1MC44OTA2IiBzdHlsZT0ic3Ryb2tlOiMxODE4MTg7c3Ryb2tlLXdpZHRoOjEuMDsiLz48bGluZSBzdHlsZT0ic3Ryb2tlOiMxODE4MTg7c3Ryb2tlLXdpZHRoOjEuMDtzdHJva2UtZGFzaGFycmF5OjIuMCwyLjA7IiB4MT0iMjg2IiB4Mj0iNDc2IiB5MT0iMTE1MC44OTA2IiB5Mj0iMTE1MC44OTA2Ii8+PHRleHQgZmlsbD0iIzAwMDAwMCIgZm9udC1mYW1pbHk9IlNhcmFidW4iIGZvbnQtc2l6ZT0iMTMiIGZvbnQtd2VpZ2h0PSJib2xkIiBsZW5ndGhBZGp1c3Q9InNwYWNpbmciIHRleHRMZW5ndGg9IjE0IiB4PSIyOTgiIHk9IjExNDcuMjY1NiI+MzA8L3RleHQ+PHRleHQgZmlsbD0iIzAwMDAwMCIgZm9udC1mYW1pbHk9IlNhcmFidW4iIGZvbnQtc2l6ZT0iMTMiIGxlbmd0aEFkanVzdD0ic3BhY2luZyIgdGV4dExlbmd0aD0iNDIiIHg9IjMxNiIgeT0iMTE0Ny4yNjU2Ij4mIzM2Mjc7JiMzNjA5OyYjMzY1NzsmIzM2MzQ7JiMzNjI3OyYjMzYyMTsmIzM2MzM7JiMzNTg1OzwvdGV4dD48cG9seWdvbiBmaWxsPSIjMTgxODE4IiBwb2ludHM9Ijc5LDExNzQuODA0Nyw2OSwxMTc4LjgwNDcsNzksMTE4Mi44MDQ3LDc1LDExNzguODA0NyIgc3R5bGU9InN0cm9rZTojMTgxODE4O3N0cm9rZS13aWR0aDoxLjA7Ii8+PGxpbmUgc3R5bGU9InN0cm9rZTojMTgxODE4O3N0cm9rZS13aWR0aDoxLjA7c3Ryb2tlLWRhc2hhcnJheToyLjAsMi4wOyIgeDE9IjczIiB4Mj0iMjcwIiB5MT0iMTE3OC44MDQ3IiB5Mj0iMTE3OC44MDQ3Ii8+PHRleHQgZmlsbD0iIzAwMDAwMCIgZm9udC1mYW1pbHk9IlNhcmFidW4iIGZvbnQtc2l6ZT0iMTMiIGZvbnQtd2VpZ2h0PSJib2xkIiBsZW5ndGhBZGp1c3Q9InNwYWNpbmciIHRleHRMZW5ndGg9IjE0IiB4PSI4NSIgeT0iMTE3NS4xNzk3Ij4zMTwvdGV4dD48dGV4dCBmaWxsPSIjMDAwMDAwIiBmb250LWZhbWlseT0iU2FyYWJ1biIgZm9udC1zaXplPSIxMyIgbGVuZ3RoQWRqdXN0PSJzcGFjaW5nIiB0ZXh0TGVuZ3RoPSI2OSIgeD0iMTAzIiB5PSIxMTc1LjE3OTciPiYjMzY0OTsmIzM2MjY7JiMzNjA0OyYjMzU5MTsmIzM2Mjc7JiMzNjA5OyYjMzY1NzsmIzM2MzQ7JiMzNjI3OyYjMzYyMTsmIzM2MzM7JiMzNTg1OzwvdGV4dD48bGluZSBzdHlsZT0ic3Ryb2tlOiMxODE4MTg7c3Ryb2tlLXdpZHRoOjEuMDsiIHgxPSIyMjEiIHgyPSIyMjEiIHkxPSI0MTcuMDA3OCIgeTI9IjYwMi42NjQxIi8+PHBvbHlnb24gZmlsbD0iIzE4MTgxOCIgcG9pbnRzPSIyMTcsNDI3LjAwNzgsMjIxLDQxNy4wMDc4LDIyNSw0MjcuMDA3OCwyMjEsNDIzLjAwNzgiIHN0eWxlPSJzdHJva2U6IzE4MTgxODtzdHJva2Utd2lkdGg6MS4wOyIvPjxwb2x5Z29uIGZpbGw9IiMxODE4MTgiIHBvaW50cz0iMjE3LDU5Mi42NjQxLDIyMSw2MDIuNjY0MSwyMjUsNTkyLjY2NDEsMjIxLDU5Ni42NjQxIiBzdHlsZT0ic3Ryb2tlOiMxODE4MTg7c3Ryb2tlLXdpZHRoOjEuMDsiLz48dGV4dCBmaWxsPSIjMDAwMDAwIiBmb250LWZhbWlseT0iU2FyYWJ1biIgZm9udC1zaXplPSIxMyIgbGVuZ3RoQWRqdXN0PSJzcGFjaW5nIiB0ZXh0TGVuZ3RoPSI2NCIgeD0iMjI1IiB5PSI1MTUuMTY4Ij57MC4uNSBtaW59PC90ZXh0PjwhLS1TUkM9W2pMUERKbkQxNkJ4bGh0WlRXc1dKMjRHdnMxV0VMbEdXMEtEM0ZBWTdRSms1WlRyVGlaa0JZT1I0NGZBWXlVMDFEMUtsc1hXSjM4YzA3eEZfUGR3QXh5cGt4NFNmalRsWVBWZnN2ZnRkVVJ6ZGhzbndQRHFjbUFaeDBmV05LQ0RfUFpjUm4yQ3NzQXhaclpTeXJ3Uno5bXRROTQ2QnROQ1RqYXBtazhneGpTMG4zNlFuNWVLcmRxQTV1N0FaMzg4VjJWdlB5MUYxVG1ObGdWTE8yazVSRjM5aU9aYkRKc0FLSWR3Wkw4OTVudERSaE9lUlUzdXIzQUhaTGp0UTkwdTNpbnh1Mzh0bm9lWmxjSzF5Z0NHeFVSdG84cmd4dXhkRmpMT2lkclVnS2N5aHJlZDRGZk14WDk0US1nNHF6MV8zODA1cGRTMmtlUnYxd2lwUThlb2NmY1cxZlhTcWl1bjJNXzF6bUd5NXZvQlNtdVkwa1JZeWtoQXExOU1MalROZ2VmYzFxbFI2bG44ZUNhX1l4Q1ptWFEtYTRCdU1fNUptenVCXzVobVotN1Yxa3RmcFFEMUpnalpqdzRTSVFJeUpnZlpkTUU2NVdkX2owbkRYTXN0LTRGbjBDVlZLc2I0c1ZiRDdmbmQyOThmUVdFYS16b1BkUXozcFQ4Y0ItUW9DN0I4Q1BYb3BEM3E4Z1BFRWNEQjI4dk5pR1lhUE4zUklCVkpmWno5anpyeVFrVEdnaGpFcUZEaWlSRkNOblRyTG1lYUlVZGZWUEs3UVhtUnpLWmx4OHBlcnA0M1pmUy1tMXhTWGlWSm5YakxlS0VWZkdYQnVqRnpXUml3dTJhTVRVWUZ1Y044YWlYekZWLTlmcGpmaGpzUWxQb3EtTGt1VllkMTdHUTdsLXF5U0JQdWVaenVmeEF3SWV5QXlZNlNBSThsMWQyN05SRTZBUzVVTTI4UDRSaE9aVFBXN1hPZ0c3cDNHNjIzZ0RCUVhVNklaVXFGMmdZRF82bzZMU1hiVXBpeENwOERqRVRsdmdEeVNGOWtFNTZiZEsxU2RHSWFzY0FPVzdLcWZwdTZ3WWI3Ukt0Vzh5NzQySmFwN0VUTzF4UHVPYVhrSXFJSUU2dzF4NlB1ZDh3bDA2RmpLVzZkQ0lMUTRtZzBqN0VwdnFYdklxSUZOeWRxTmMwa2hqMWF1M05YOHJnYXZ3SGxQcXQ5Ny1OMmM3eHRUVUV4Yi1sUVlMdEZlYXJBNE9WSktKQzlvU1JYeC1mYVAtMGdGMlRnTm1vZkU1aEZtLTFXeER5RXhUTkpPby1kQV9yQ0NfLVpKR1pLLTVKckRjQUcyVlJkb09COTZKOV9IU1BlaVNfaUlsajg2ZS1iRnlrb1VIbGlCXS0tPjwvZz48L3N2Zz4=;" parent="exxmyn7PiPJbCx3NZvYi-1" vertex="1">
            <mxGeometry x="-120" y="-160" width="751" height="1246" as="geometry" />
          </mxCell>
        </UserObject>
      </root>
    </mxGraphModel>
  </diagram>
  <diagram id="oU5T3T8HP9SNY1uqTr-H" name="uc4">
    <mxGraphModel dx="2350" dy="1783" grid="1" gridSize="10" guides="1" tooltips="1" connect="1" arrows="1" fold="1" page="0" pageScale="1" pageWidth="850" pageHeight="1100" math="0" shadow="0">
      <root>
        <mxCell id="0" />
        <mxCell id="1" parent="0" />
        <mxCell id="CwVl6Nk5Yj1LNCS9jzRH-1" style="edgeStyle=orthogonalEdgeStyle;rounded=0;orthogonalLoop=1;jettySize=auto;html=1;exitX=0.5;exitY=0.5;exitDx=0;exitDy=0;exitPerimeter=0;dashed=1;shape=link;strokeColor=none;" edge="1" parent="1">
          <mxGeometry relative="1" as="geometry">
            <mxPoint x="85" y="545" as="targetPoint" />
            <mxPoint x="64.99999999999989" y="310" as="sourcePoint" />
          </mxGeometry>
        </mxCell>
        <mxCell id="CwVl6Nk5Yj1LNCS9jzRH-2" value="c:Customer" style="shape=umlActor;verticalLabelPosition=bottom;verticalAlign=top;html=1;outlineConnect=0;" vertex="1" parent="1">
          <mxGeometry x="50" y="110" width="30" height="60" as="geometry" />
        </mxCell>
        <mxCell id="CwVl6Nk5Yj1LNCS9jzRH-3" value="" style="endArrow=none;dashed=1;html=1;rounded=0;entryX=0.5;entryY=0.5;entryDx=0;entryDy=0;entryPerimeter=0;fillColor=#eeeeee;strokeColor=#36393d;" edge="1" parent="1" source="CwVl6Nk5Yj1LNCS9jzRH-10">
          <mxGeometry width="50" height="50" relative="1" as="geometry">
            <mxPoint x="65" y="440" as="sourcePoint" />
            <mxPoint x="65" y="140" as="targetPoint" />
          </mxGeometry>
        </mxCell>
        <mxCell id="CwVl6Nk5Yj1LNCS9jzRH-4" value="" style="endArrow=none;dashed=1;html=1;rounded=0;entryX=0.5;entryY=0.5;entryDx=0;entryDy=0;entryPerimeter=0;" edge="1" parent="1">
          <mxGeometry width="50" height="50" relative="1" as="geometry">
            <mxPoint x="65" y="890" as="sourcePoint" />
            <mxPoint x="64.99999999999989" y="310" as="targetPoint" />
          </mxGeometry>
        </mxCell>
        <mxCell id="CwVl6Nk5Yj1LNCS9jzRH-5" value="pv: paymentView" style="rounded=1;whiteSpace=wrap;html=1;fillColor=#f0a30a;strokeColor=#BD7000;fontColor=#000000;" vertex="1" parent="1">
          <mxGeometry x="210" y="80" width="120" height="60" as="geometry" />
        </mxCell>
        <mxCell id="CwVl6Nk5Yj1LNCS9jzRH-6" value="pc: PaymentController" style="rounded=1;whiteSpace=wrap;html=1;fillColor=#f0a30a;strokeColor=#BD7000;fontColor=#000000;" vertex="1" parent="1">
          <mxGeometry x="480" y="80" width="130" height="60" as="geometry" />
        </mxCell>
        <mxCell id="CwVl6Nk5Yj1LNCS9jzRH-7" value="db : DBConnected" style="rounded=1;whiteSpace=wrap;html=1;fillColor=#f0a30a;strokeColor=#BD7000;fontColor=#000000;" vertex="1" parent="1">
          <mxGeometry x="1210" y="80" width="120" height="60" as="geometry" />
        </mxCell>
        <mxCell id="CwVl6Nk5Yj1LNCS9jzRH-8" value="" style="edgeStyle=orthogonalEdgeStyle;rounded=0;orthogonalLoop=1;jettySize=auto;html=1;dashed=1;shape=link;strokeColor=none;" edge="1" parent="1" source="CwVl6Nk5Yj1LNCS9jzRH-2" target="CwVl6Nk5Yj1LNCS9jzRH-10">
          <mxGeometry relative="1" as="geometry">
            <mxPoint x="65" y="510" as="targetPoint" />
            <mxPoint x="65" y="140" as="sourcePoint" />
          </mxGeometry>
        </mxCell>
        <mxCell id="CwVl6Nk5Yj1LNCS9jzRH-9" style="edgeStyle=orthogonalEdgeStyle;rounded=0;orthogonalLoop=1;jettySize=auto;html=1;entryX=0.224;entryY=0.074;entryDx=0;entryDy=0;entryPerimeter=0;exitX=1.176;exitY=0.114;exitDx=0;exitDy=0;exitPerimeter=0;" edge="1" parent="1" source="CwVl6Nk5Yj1LNCS9jzRH-10">
          <mxGeometry relative="1" as="geometry">
            <mxPoint x="87.76" y="278" as="sourcePoint" />
            <mxPoint x="265.0000000000001" y="277.55999999999995" as="targetPoint" />
          </mxGeometry>
        </mxCell>
        <mxCell id="CwVl6Nk5Yj1LNCS9jzRH-10" value="" style="rounded=1;whiteSpace=wrap;html=1;fillColor=#eeeeee;strokeColor=#36393d;" vertex="1" parent="1">
          <mxGeometry x="60" y="210" width="10" height="600" as="geometry" />
        </mxCell>
        <mxCell id="CwVl6Nk5Yj1LNCS9jzRH-11" value="" style="endArrow=none;dashed=1;html=1;rounded=0;entryX=0.5;entryY=1;entryDx=0;entryDy=0;" edge="1" parent="1" target="CwVl6Nk5Yj1LNCS9jzRH-5">
          <mxGeometry width="50" height="50" relative="1" as="geometry">
            <mxPoint x="270" y="720" as="sourcePoint" />
            <mxPoint x="230" y="260" as="targetPoint" />
          </mxGeometry>
        </mxCell>
        <mxCell id="CwVl6Nk5Yj1LNCS9jzRH-12" value="" style="endArrow=none;dashed=1;html=1;rounded=0;entryX=0.5;entryY=1;entryDx=0;entryDy=0;" edge="1" parent="1" source="CwVl6Nk5Yj1LNCS9jzRH-16" target="CwVl6Nk5Yj1LNCS9jzRH-6">
          <mxGeometry width="50" height="50" relative="1" as="geometry">
            <mxPoint x="540" y="545" as="sourcePoint" />
            <mxPoint x="610" y="225" as="targetPoint" />
          </mxGeometry>
        </mxCell>
        <mxCell id="CwVl6Nk5Yj1LNCS9jzRH-13" value="" style="endArrow=none;dashed=1;html=1;rounded=0;entryX=0.5;entryY=1;entryDx=0;entryDy=0;" edge="1" parent="1" source="CwVl6Nk5Yj1LNCS9jzRH-28" target="CwVl6Nk5Yj1LNCS9jzRH-7">
          <mxGeometry width="50" height="50" relative="1" as="geometry">
            <mxPoint x="1270" y="920" as="sourcePoint" />
            <mxPoint x="1180" y="230" as="targetPoint" />
          </mxGeometry>
        </mxCell>
        <mxCell id="CwVl6Nk5Yj1LNCS9jzRH-14" value="" style="rounded=1;whiteSpace=wrap;html=1;fillColor=#eeeeee;strokeColor=#36393d;" vertex="1" parent="1">
          <mxGeometry x="265" y="210" width="10" height="440" as="geometry" />
        </mxCell>
        <mxCell id="CwVl6Nk5Yj1LNCS9jzRH-15" value="" style="endArrow=none;dashed=1;html=1;rounded=0;entryX=0.5;entryY=1;entryDx=0;entryDy=0;" edge="1" parent="1" target="CwVl6Nk5Yj1LNCS9jzRH-16">
          <mxGeometry width="50" height="50" relative="1" as="geometry">
            <mxPoint x="545" y="900" as="sourcePoint" />
            <mxPoint x="540" y="125" as="targetPoint" />
          </mxGeometry>
        </mxCell>
        <mxCell id="CwVl6Nk5Yj1LNCS9jzRH-16" value="" style="rounded=1;whiteSpace=wrap;html=1;fillColor=#eeeeee;strokeColor=#36393d;" vertex="1" parent="1">
          <mxGeometry x="540" y="390" width="10" height="230" as="geometry" />
        </mxCell>
        <mxCell id="CwVl6Nk5Yj1LNCS9jzRH-17" value="" style="endArrow=classic;html=1;rounded=0;exitX=0.218;exitY=0.083;exitDx=0;exitDy=0;exitPerimeter=0;entryX=0.5;entryY=0.032;entryDx=0;entryDy=0;entryPerimeter=0;" edge="1" parent="1" source="CwVl6Nk5Yj1LNCS9jzRH-28" target="CwVl6Nk5Yj1LNCS9jzRH-14">
          <mxGeometry width="50" height="50" relative="1" as="geometry">
            <mxPoint x="840" y="330" as="sourcePoint" />
            <mxPoint x="270" y="220" as="targetPoint" />
          </mxGeometry>
        </mxCell>
        <mxCell id="CwVl6Nk5Yj1LNCS9jzRH-18" value="&lt;p style=&quot;line-height: 1.2; margin-top: 0pt; margin-bottom: 0pt;&quot; dir=&quot;ltr&quot;&gt;&lt;/p&gt;&lt;p style=&quot;line-height: 1.2; margin-top: 0pt; margin-bottom: 0pt;&quot; dir=&quot;ltr&quot;&gt;&lt;/p&gt;&lt;div&gt;&lt;/div&gt;&lt;div&gt;&lt;font face=&quot;Sarabun, sans-serif&quot;&gt;1.ดึงข้อมูลราคาและรายละเอียดของคอร์สเรียน&lt;/font&gt;&lt;/div&gt;&lt;div&gt;&lt;font face=&quot;Sarabun, sans-serif&quot;&gt;&lt;span style=&quot;font-size: 14.6667px;&quot;&gt;(Q4.1.1)&lt;/span&gt;&lt;/font&gt;&lt;/div&gt;&lt;div&gt;&lt;br&gt;&lt;/div&gt;&lt;span id=&quot;docs-internal-guid-5b47f503-7fff-2f61-a643-0d3faabaed96&quot;&gt;&lt;/span&gt;" style="text;html=1;align=center;verticalAlign=middle;resizable=0;points=[];autosize=1;strokeColor=none;fillColor=none;" vertex="1" parent="1">
          <mxGeometry x="455" y="180" width="250" height="60" as="geometry" />
        </mxCell>
        <mxCell id="CwVl6Nk5Yj1LNCS9jzRH-19" value="3.ตรวจสอบข้อมูล" style="text;html=1;align=center;verticalAlign=middle;resizable=0;points=[];autosize=1;strokeColor=none;fillColor=none;" vertex="1" parent="1">
          <mxGeometry x="107.76" y="275" width="110" height="30" as="geometry" />
        </mxCell>
        <mxCell id="CwVl6Nk5Yj1LNCS9jzRH-20" value="" style="endArrow=classic;html=1;rounded=0;exitX=1.105;exitY=0.446;exitDx=0;exitDy=0;exitPerimeter=0;entryX=0.072;entryY=0.132;entryDx=0;entryDy=0;entryPerimeter=0;" edge="1" parent="1">
          <mxGeometry width="50" height="50" relative="1" as="geometry">
            <mxPoint x="68.09000000000002" y="309.67" as="sourcePoint" />
            <mxPoint x="262.76" y="309.7699999999999" as="targetPoint" />
          </mxGeometry>
        </mxCell>
        <mxCell id="CwVl6Nk5Yj1LNCS9jzRH-21" value="3.1 ทำการชำระเงินภายในเวลา&lt;br&gt;ภายในเวลาที่กำหนด" style="text;html=1;align=center;verticalAlign=middle;resizable=0;points=[];autosize=1;strokeColor=none;fillColor=none;" vertex="1" parent="1">
          <mxGeometry x="77.76" y="310" width="170" height="40" as="geometry" />
        </mxCell>
        <mxCell id="CwVl6Nk5Yj1LNCS9jzRH-22" value="" style="endArrow=classic;html=1;rounded=0;entryX=0;entryY=0.25;entryDx=0;entryDy=0;" edge="1" parent="1">
          <mxGeometry width="50" height="50" relative="1" as="geometry">
            <mxPoint x="67.76" y="355" as="sourcePoint" />
            <mxPoint x="262.76" y="355.0000000000002" as="targetPoint" />
          </mxGeometry>
        </mxCell>
        <mxCell id="CwVl6Nk5Yj1LNCS9jzRH-23" value="4. ใส่รูปสลิปการโอนเงิน" style="text;html=1;align=center;verticalAlign=middle;resizable=0;points=[];autosize=1;strokeColor=none;fillColor=none;" vertex="1" parent="1">
          <mxGeometry x="92.76" y="355" width="140" height="30" as="geometry" />
        </mxCell>
        <mxCell id="CwVl6Nk5Yj1LNCS9jzRH-24" value="" style="endArrow=classic;html=1;rounded=0;exitX=0.844;exitY=0.457;exitDx=0;exitDy=0;exitPerimeter=0;entryX=-0.1;entryY=0.096;entryDx=0;entryDy=0;entryPerimeter=0;" edge="1" parent="1" source="CwVl6Nk5Yj1LNCS9jzRH-14" target="CwVl6Nk5Yj1LNCS9jzRH-16">
          <mxGeometry width="50" height="50" relative="1" as="geometry">
            <mxPoint x="520" y="360" as="sourcePoint" />
            <mxPoint x="570" y="310" as="targetPoint" />
          </mxGeometry>
        </mxCell>
        <mxCell id="CwVl6Nk5Yj1LNCS9jzRH-25" value="5.ส่งข้อมูลสลิป" style="text;html=1;align=center;verticalAlign=middle;resizable=0;points=[];autosize=1;strokeColor=none;fillColor=none;" vertex="1" parent="1">
          <mxGeometry x="360" y="390" width="100" height="30" as="geometry" />
        </mxCell>
        <mxCell id="CwVl6Nk5Yj1LNCS9jzRH-26" value="6.เจ้าหน้าที่ตรวจสอบข้อมูล" style="text;html=1;align=center;verticalAlign=middle;resizable=0;points=[];autosize=1;strokeColor=none;fillColor=none;" vertex="1" parent="1">
          <mxGeometry x="1060" y="490" width="160" height="30" as="geometry" />
        </mxCell>
        <mxCell id="CwVl6Nk5Yj1LNCS9jzRH-27" value="" style="endArrow=none;dashed=1;html=1;rounded=0;entryX=0.5;entryY=1;entryDx=0;entryDy=0;" edge="1" parent="1" target="CwVl6Nk5Yj1LNCS9jzRH-28">
          <mxGeometry width="50" height="50" relative="1" as="geometry">
            <mxPoint x="1270" y="920" as="sourcePoint" />
            <mxPoint x="1270" y="130" as="targetPoint" />
          </mxGeometry>
        </mxCell>
        <mxCell id="CwVl6Nk5Yj1LNCS9jzRH-28" value="" style="rounded=1;whiteSpace=wrap;html=1;fillColor=#eeeeee;strokeColor=#36393d;" vertex="1" parent="1">
          <mxGeometry x="1265" y="170" width="10" height="630" as="geometry" />
        </mxCell>
        <mxCell id="CwVl6Nk5Yj1LNCS9jzRH-29" value="sc: staffcontroller" style="rounded=1;whiteSpace=wrap;html=1;fillColor=#f0a30a;strokeColor=#BD7000;fontColor=#000000;" vertex="1" parent="1">
          <mxGeometry x="710" y="80" width="120" height="60" as="geometry" />
        </mxCell>
        <mxCell id="CwVl6Nk5Yj1LNCS9jzRH-30" value="" style="endArrow=none;dashed=1;html=1;rounded=0;entryX=0.5;entryY=1;entryDx=0;entryDy=0;" edge="1" parent="1" target="CwVl6Nk5Yj1LNCS9jzRH-29">
          <mxGeometry width="50" height="50" relative="1" as="geometry">
            <mxPoint x="770" y="900" as="sourcePoint" />
            <mxPoint x="680" y="230" as="targetPoint" />
          </mxGeometry>
        </mxCell>
        <mxCell id="CwVl6Nk5Yj1LNCS9jzRH-31" value="" style="rounded=1;whiteSpace=wrap;html=1;fillColor=#eeeeee;strokeColor=#36393d;" vertex="1" parent="1">
          <mxGeometry x="765" y="430" width="10" height="210" as="geometry" />
        </mxCell>
        <mxCell id="CwVl6Nk5Yj1LNCS9jzRH-32" value="sv: staffView" style="rounded=1;whiteSpace=wrap;html=1;fillColor=#f0a30a;strokeColor=#BD7000;fontColor=#000000;" vertex="1" parent="1">
          <mxGeometry x="940" y="80" width="120" height="60" as="geometry" />
        </mxCell>
        <mxCell id="CwVl6Nk5Yj1LNCS9jzRH-33" value="" style="endArrow=none;dashed=1;html=1;rounded=0;entryX=0.5;entryY=1;entryDx=0;entryDy=0;" edge="1" parent="1" source="CwVl6Nk5Yj1LNCS9jzRH-34" target="CwVl6Nk5Yj1LNCS9jzRH-32">
          <mxGeometry width="50" height="50" relative="1" as="geometry">
            <mxPoint x="1000" y="930" as="sourcePoint" />
            <mxPoint x="910" y="240" as="targetPoint" />
          </mxGeometry>
        </mxCell>
        <mxCell id="CwVl6Nk5Yj1LNCS9jzRH-34" value="" style="rounded=1;whiteSpace=wrap;html=1;fillColor=#eeeeee;strokeColor=#36393d;" vertex="1" parent="1">
          <mxGeometry x="995" y="430" width="10" height="170" as="geometry" />
        </mxCell>
        <mxCell id="CwVl6Nk5Yj1LNCS9jzRH-35" value="" style="endArrow=classic;html=1;rounded=0;exitX=1;exitY=0.75;exitDx=0;exitDy=0;" edge="1" parent="1">
          <mxGeometry width="50" height="50" relative="1" as="geometry">
            <mxPoint x="555" y="450" as="sourcePoint" />
            <mxPoint x="775" y="450.5" as="targetPoint" />
          </mxGeometry>
        </mxCell>
        <mxCell id="CwVl6Nk5Yj1LNCS9jzRH-36" value="5.1 ตรวจสอบความถูกต้องของสลิป" style="edgeLabel;html=1;align=center;verticalAlign=middle;resizable=0;points=[];" connectable="0" vertex="1" parent="CwVl6Nk5Yj1LNCS9jzRH-35">
          <mxGeometry x="-0.6332" y="1" relative="1" as="geometry">
            <mxPoint x="65" y="-9" as="offset" />
          </mxGeometry>
        </mxCell>
        <mxCell id="CwVl6Nk5Yj1LNCS9jzRH-37" value="" style="endArrow=classic;html=1;rounded=0;entryX=1;entryY=0;entryDx=0;entryDy=0;exitX=0;exitY=0;exitDx=0;exitDy=0;" edge="1" parent="1">
          <mxGeometry width="50" height="50" relative="1" as="geometry">
            <mxPoint x="265.0000000000001" y="240.0000000000016" as="sourcePoint" />
            <mxPoint x="69.99999999999989" y="240" as="targetPoint" />
          </mxGeometry>
        </mxCell>
        <mxCell id="CwVl6Nk5Yj1LNCS9jzRH-38" value="2.แสดงข้อมูล" style="text;html=1;align=center;verticalAlign=middle;resizable=0;points=[];autosize=1;strokeColor=none;fillColor=none;" vertex="1" parent="1">
          <mxGeometry x="120" y="240" width="90" height="30" as="geometry" />
        </mxCell>
        <mxCell id="CwVl6Nk5Yj1LNCS9jzRH-39" value="" style="endArrow=classic;html=1;rounded=0;exitX=1;exitY=0.75;exitDx=0;exitDy=0;" edge="1" parent="1">
          <mxGeometry width="50" height="50" relative="1" as="geometry">
            <mxPoint x="775" y="470" as="sourcePoint" />
            <mxPoint x="995" y="470.5" as="targetPoint" />
          </mxGeometry>
        </mxCell>
        <mxCell id="CwVl6Nk5Yj1LNCS9jzRH-40" value="" style="endArrow=classic;html=1;rounded=0;" edge="1" parent="1">
          <mxGeometry width="50" height="50" relative="1" as="geometry">
            <mxPoint x="1005" y="480" as="sourcePoint" />
            <mxPoint x="1005" y="530" as="targetPoint" />
            <Array as="points">
              <mxPoint x="1060" y="480" />
              <mxPoint x="1060" y="530" />
            </Array>
          </mxGeometry>
        </mxCell>
        <mxCell id="CwVl6Nk5Yj1LNCS9jzRH-41" value="" style="endArrow=classic;html=1;rounded=0;exitX=0.5;exitY=0.882;exitDx=0;exitDy=0;exitPerimeter=0;" edge="1" parent="1" source="CwVl6Nk5Yj1LNCS9jzRH-34">
          <mxGeometry width="50" height="50" relative="1" as="geometry">
            <mxPoint x="1000" y="500" as="sourcePoint" />
            <mxPoint x="780" y="580" as="targetPoint" />
          </mxGeometry>
        </mxCell>
        <mxCell id="CwVl6Nk5Yj1LNCS9jzRH-42" value="7. ยินยันความถูกต้อง&lt;br&gt;(Q4.1.3)" style="text;html=1;align=center;verticalAlign=middle;resizable=0;points=[];autosize=1;strokeColor=none;fillColor=none;" vertex="1" parent="1">
          <mxGeometry x="820" y="545" width="130" height="40" as="geometry" />
        </mxCell>
        <mxCell id="CwVl6Nk5Yj1LNCS9jzRH-43" value="" style="endArrow=classic;html=1;rounded=0;" edge="1" parent="1">
          <mxGeometry width="50" height="50" relative="1" as="geometry">
            <mxPoint x="775" y="630" as="sourcePoint" />
            <mxPoint x="1260" y="630" as="targetPoint" />
          </mxGeometry>
        </mxCell>
        <mxCell id="CwVl6Nk5Yj1LNCS9jzRH-44" value="8. บันทึกข้อมูล(Q4.1.4)" style="text;html=1;align=center;verticalAlign=middle;resizable=0;points=[];autosize=1;strokeColor=none;fillColor=none;" vertex="1" parent="1">
          <mxGeometry x="940" y="630" width="140" height="30" as="geometry" />
        </mxCell>
        <mxCell id="CwVl6Nk5Yj1LNCS9jzRH-45" value="" style="endArrow=classic;html=1;rounded=0;exitX=0.5;exitY=0.873;exitDx=0;exitDy=0;exitPerimeter=0;entryX=0.287;entryY=0.843;entryDx=0;entryDy=0;entryPerimeter=0;" edge="1" parent="1" source="CwVl6Nk5Yj1LNCS9jzRH-28" target="CwVl6Nk5Yj1LNCS9jzRH-10">
          <mxGeometry width="50" height="50" relative="1" as="geometry">
            <mxPoint x="880" y="630" as="sourcePoint" />
            <mxPoint x="930" y="580" as="targetPoint" />
          </mxGeometry>
        </mxCell>
        <mxCell id="CwVl6Nk5Yj1LNCS9jzRH-46" value="9.แสดงใบเสร็จ" style="text;html=1;align=center;verticalAlign=middle;resizable=0;points=[];autosize=1;strokeColor=none;fillColor=none;" vertex="1" parent="1">
          <mxGeometry x="550" y="688" width="100" height="30" as="geometry" />
        </mxCell>
      </root>
    </mxGraphModel>
  </diagram>
  <diagram id="GBtUN7nRkThmk7A-8fQ_" name="uc4-alt1">
    <mxGraphModel dx="1880" dy="1426" grid="1" gridSize="10" guides="1" tooltips="1" connect="1" arrows="1" fold="1" page="0" pageScale="1" pageWidth="100000" pageHeight="100000" math="0" shadow="0">
      <root>
        <mxCell id="0" />
        <mxCell id="1" parent="0" />
        <mxCell id="1432KbA3HsOirkNIjWRa-1" style="edgeStyle=orthogonalEdgeStyle;rounded=0;orthogonalLoop=1;jettySize=auto;html=1;exitX=0.5;exitY=0.5;exitDx=0;exitDy=0;exitPerimeter=0;dashed=1;shape=link;strokeColor=none;" parent="1" edge="1">
          <mxGeometry relative="1" as="geometry">
            <mxPoint x="325" y="685" as="targetPoint" />
            <mxPoint x="305" y="450" as="sourcePoint" />
          </mxGeometry>
        </mxCell>
        <mxCell id="1432KbA3HsOirkNIjWRa-2" value="c:Customer" style="shape=umlActor;verticalLabelPosition=bottom;verticalAlign=top;html=1;outlineConnect=0;" parent="1" vertex="1">
          <mxGeometry x="290" y="250" width="30" height="60" as="geometry" />
        </mxCell>
        <mxCell id="1432KbA3HsOirkNIjWRa-3" value="" style="endArrow=none;dashed=1;html=1;rounded=0;entryX=0.5;entryY=0.5;entryDx=0;entryDy=0;entryPerimeter=0;fillColor=#eeeeee;strokeColor=#36393d;" parent="1" source="1432KbA3HsOirkNIjWRa-10" edge="1">
          <mxGeometry width="50" height="50" relative="1" as="geometry">
            <mxPoint x="305" y="580" as="sourcePoint" />
            <mxPoint x="305" y="280" as="targetPoint" />
          </mxGeometry>
        </mxCell>
        <mxCell id="1432KbA3HsOirkNIjWRa-4" value="" style="endArrow=none;dashed=1;html=1;rounded=0;entryX=0.5;entryY=0.5;entryDx=0;entryDy=0;entryPerimeter=0;" parent="1" edge="1">
          <mxGeometry width="50" height="50" relative="1" as="geometry">
            <mxPoint x="305" y="1030" as="sourcePoint" />
            <mxPoint x="305" y="450" as="targetPoint" />
          </mxGeometry>
        </mxCell>
        <mxCell id="1432KbA3HsOirkNIjWRa-5" value="pv: paymentView" style="rounded=1;whiteSpace=wrap;html=1;fillColor=#f0a30a;strokeColor=#BD7000;fontColor=#000000;" parent="1" vertex="1">
          <mxGeometry x="450" y="220" width="120" height="60" as="geometry" />
        </mxCell>
        <mxCell id="1432KbA3HsOirkNIjWRa-6" value="pc: PaymentController" style="rounded=1;whiteSpace=wrap;html=1;fillColor=#f0a30a;strokeColor=#BD7000;fontColor=#000000;" parent="1" vertex="1">
          <mxGeometry x="720" y="220" width="130" height="60" as="geometry" />
        </mxCell>
        <mxCell id="1432KbA3HsOirkNIjWRa-7" value="db : DBConnected" style="rounded=1;whiteSpace=wrap;html=1;fillColor=#f0a30a;strokeColor=#BD7000;fontColor=#000000;" parent="1" vertex="1">
          <mxGeometry x="1450" y="220" width="120" height="60" as="geometry" />
        </mxCell>
        <mxCell id="1432KbA3HsOirkNIjWRa-8" value="" style="edgeStyle=orthogonalEdgeStyle;rounded=0;orthogonalLoop=1;jettySize=auto;html=1;dashed=1;shape=link;strokeColor=none;" parent="1" source="1432KbA3HsOirkNIjWRa-2" target="1432KbA3HsOirkNIjWRa-10" edge="1">
          <mxGeometry relative="1" as="geometry">
            <mxPoint x="305" y="650" as="targetPoint" />
            <mxPoint x="305" y="280" as="sourcePoint" />
          </mxGeometry>
        </mxCell>
        <mxCell id="1432KbA3HsOirkNIjWRa-9" style="edgeStyle=orthogonalEdgeStyle;rounded=0;orthogonalLoop=1;jettySize=auto;html=1;entryX=0.224;entryY=0.074;entryDx=0;entryDy=0;entryPerimeter=0;exitX=1.176;exitY=0.114;exitDx=0;exitDy=0;exitPerimeter=0;" parent="1" source="1432KbA3HsOirkNIjWRa-10" edge="1">
          <mxGeometry relative="1" as="geometry">
            <mxPoint x="327.76" y="418" as="sourcePoint" />
            <mxPoint x="505" y="417.55999999999995" as="targetPoint" />
          </mxGeometry>
        </mxCell>
        <mxCell id="1432KbA3HsOirkNIjWRa-10" value="" style="rounded=1;whiteSpace=wrap;html=1;fillColor=#eeeeee;strokeColor=#36393d;" parent="1" vertex="1">
          <mxGeometry x="300" y="350" width="10" height="600" as="geometry" />
        </mxCell>
        <mxCell id="1432KbA3HsOirkNIjWRa-11" value="" style="endArrow=none;dashed=1;html=1;rounded=0;entryX=0.5;entryY=1;entryDx=0;entryDy=0;" parent="1" target="1432KbA3HsOirkNIjWRa-5" edge="1">
          <mxGeometry width="50" height="50" relative="1" as="geometry">
            <mxPoint x="510" y="860" as="sourcePoint" />
            <mxPoint x="470" y="400" as="targetPoint" />
          </mxGeometry>
        </mxCell>
        <mxCell id="1432KbA3HsOirkNIjWRa-12" value="" style="endArrow=none;dashed=1;html=1;rounded=0;entryX=0.5;entryY=1;entryDx=0;entryDy=0;" parent="1" source="1432KbA3HsOirkNIjWRa-16" target="1432KbA3HsOirkNIjWRa-6" edge="1">
          <mxGeometry width="50" height="50" relative="1" as="geometry">
            <mxPoint x="780" y="685" as="sourcePoint" />
            <mxPoint x="850" y="365" as="targetPoint" />
          </mxGeometry>
        </mxCell>
        <mxCell id="1432KbA3HsOirkNIjWRa-13" value="" style="endArrow=none;dashed=1;html=1;rounded=0;entryX=0.5;entryY=1;entryDx=0;entryDy=0;" parent="1" source="1432KbA3HsOirkNIjWRa-28" target="1432KbA3HsOirkNIjWRa-7" edge="1">
          <mxGeometry width="50" height="50" relative="1" as="geometry">
            <mxPoint x="1510" y="1060" as="sourcePoint" />
            <mxPoint x="1420" y="370" as="targetPoint" />
          </mxGeometry>
        </mxCell>
        <mxCell id="1432KbA3HsOirkNIjWRa-14" value="" style="rounded=1;whiteSpace=wrap;html=1;fillColor=#eeeeee;strokeColor=#36393d;" parent="1" vertex="1">
          <mxGeometry x="505" y="350" width="10" height="440" as="geometry" />
        </mxCell>
        <mxCell id="1432KbA3HsOirkNIjWRa-15" value="" style="endArrow=none;dashed=1;html=1;rounded=0;entryX=0.5;entryY=1;entryDx=0;entryDy=0;" parent="1" target="1432KbA3HsOirkNIjWRa-16" edge="1">
          <mxGeometry width="50" height="50" relative="1" as="geometry">
            <mxPoint x="785" y="1040" as="sourcePoint" />
            <mxPoint x="780" y="265" as="targetPoint" />
          </mxGeometry>
        </mxCell>
        <mxCell id="1432KbA3HsOirkNIjWRa-16" value="" style="rounded=1;whiteSpace=wrap;html=1;fillColor=#eeeeee;strokeColor=#36393d;" parent="1" vertex="1">
          <mxGeometry x="780" y="530" width="10" height="230" as="geometry" />
        </mxCell>
        <mxCell id="1432KbA3HsOirkNIjWRa-17" value="" style="endArrow=classic;html=1;rounded=0;exitX=0.218;exitY=0.083;exitDx=0;exitDy=0;exitPerimeter=0;entryX=0.5;entryY=0.032;entryDx=0;entryDy=0;entryPerimeter=0;" parent="1" source="1432KbA3HsOirkNIjWRa-28" target="1432KbA3HsOirkNIjWRa-14" edge="1">
          <mxGeometry width="50" height="50" relative="1" as="geometry">
            <mxPoint x="1080" y="470" as="sourcePoint" />
            <mxPoint x="510" y="360" as="targetPoint" />
          </mxGeometry>
        </mxCell>
        <mxCell id="1432KbA3HsOirkNIjWRa-18" value="&lt;p style=&quot;line-height: 1.2; margin-top: 0pt; margin-bottom: 0pt;&quot; dir=&quot;ltr&quot;&gt;&lt;/p&gt;&lt;p style=&quot;line-height: 1.2; margin-top: 0pt; margin-bottom: 0pt;&quot; dir=&quot;ltr&quot;&gt;&lt;/p&gt;&lt;div&gt;&lt;/div&gt;&lt;div&gt;&lt;font face=&quot;Sarabun, sans-serif&quot;&gt;1.ดึงข้อมูลราคาและรายละเอียดของคอร์สเรียน&lt;/font&gt;&lt;/div&gt;&lt;div&gt;&lt;font face=&quot;Sarabun, sans-serif&quot;&gt;&lt;span style=&quot;font-size: 14.6667px;&quot;&gt;(Q4.1.1)&lt;/span&gt;&lt;/font&gt;&lt;/div&gt;&lt;div&gt;&lt;br&gt;&lt;/div&gt;&lt;span id=&quot;docs-internal-guid-5b47f503-7fff-2f61-a643-0d3faabaed96&quot;&gt;&lt;/span&gt;" style="text;html=1;align=center;verticalAlign=middle;resizable=0;points=[];autosize=1;strokeColor=none;fillColor=none;" parent="1" vertex="1">
          <mxGeometry x="695" y="320" width="250" height="60" as="geometry" />
        </mxCell>
        <mxCell id="1432KbA3HsOirkNIjWRa-19" value="3.ตรวจสอบข้อมูล" style="text;html=1;align=center;verticalAlign=middle;resizable=0;points=[];autosize=1;strokeColor=none;fillColor=none;" parent="1" vertex="1">
          <mxGeometry x="347.76" y="415" width="110" height="30" as="geometry" />
        </mxCell>
        <mxCell id="1432KbA3HsOirkNIjWRa-20" value="" style="endArrow=classic;html=1;rounded=0;exitX=1.105;exitY=0.446;exitDx=0;exitDy=0;exitPerimeter=0;entryX=0.072;entryY=0.132;entryDx=0;entryDy=0;entryPerimeter=0;" parent="1" edge="1">
          <mxGeometry width="50" height="50" relative="1" as="geometry">
            <mxPoint x="308.0899999999999" y="449.6700000000001" as="sourcePoint" />
            <mxPoint x="502.76" y="449.77" as="targetPoint" />
          </mxGeometry>
        </mxCell>
        <mxCell id="1432KbA3HsOirkNIjWRa-21" value="A3.1 ชำระเงืนไม่สำเร็จในเวลาที่กำหนด" style="text;html=1;align=center;verticalAlign=middle;resizable=0;points=[];autosize=1;strokeColor=none;fillColor=none;" parent="1" vertex="1">
          <mxGeometry x="305" y="470" width="210" height="30" as="geometry" />
        </mxCell>
        <mxCell id="1432KbA3HsOirkNIjWRa-22" value="" style="endArrow=classic;html=1;rounded=0;entryX=0;entryY=0.25;entryDx=0;entryDy=0;" parent="1" edge="1">
          <mxGeometry width="50" height="50" relative="1" as="geometry">
            <mxPoint x="310" y="550" as="sourcePoint" />
            <mxPoint x="505" y="550.0000000000002" as="targetPoint" />
          </mxGeometry>
        </mxCell>
        <mxCell id="1432KbA3HsOirkNIjWRa-23" value="4. ใส่รูปสลิปการโอนเงิน" style="text;html=1;align=center;verticalAlign=middle;resizable=0;points=[];autosize=1;strokeColor=none;fillColor=none;" parent="1" vertex="1">
          <mxGeometry x="335" y="550" width="140" height="30" as="geometry" />
        </mxCell>
        <mxCell id="1432KbA3HsOirkNIjWRa-24" value="" style="endArrow=classic;html=1;rounded=0;exitX=0.844;exitY=0.457;exitDx=0;exitDy=0;exitPerimeter=0;entryX=-0.1;entryY=0.096;entryDx=0;entryDy=0;entryPerimeter=0;" parent="1" edge="1">
          <mxGeometry width="50" height="50" relative="1" as="geometry">
            <mxPoint x="517.22" y="569.9999999999999" as="sourcePoint" />
            <mxPoint x="782.78" y="571" as="targetPoint" />
          </mxGeometry>
        </mxCell>
        <mxCell id="1432KbA3HsOirkNIjWRa-25" value="A5.ส่งข้อมูลสลิป" style="text;html=1;align=center;verticalAlign=middle;resizable=0;points=[];autosize=1;strokeColor=none;fillColor=none;" parent="1" vertex="1">
          <mxGeometry x="595" y="550" width="110" height="30" as="geometry" />
        </mxCell>
        <mxCell id="1432KbA3HsOirkNIjWRa-26" value="A6.เจ้าหน้าที่ตรวจสอบข้อมูล" style="text;html=1;align=center;verticalAlign=middle;resizable=0;points=[];autosize=1;strokeColor=none;fillColor=none;" parent="1" vertex="1">
          <mxGeometry x="1300" y="630" width="160" height="30" as="geometry" />
        </mxCell>
        <mxCell id="1432KbA3HsOirkNIjWRa-27" value="" style="endArrow=none;dashed=1;html=1;rounded=0;entryX=0.5;entryY=1;entryDx=0;entryDy=0;" parent="1" target="1432KbA3HsOirkNIjWRa-28" edge="1">
          <mxGeometry width="50" height="50" relative="1" as="geometry">
            <mxPoint x="1510" y="1060" as="sourcePoint" />
            <mxPoint x="1510" y="270" as="targetPoint" />
          </mxGeometry>
        </mxCell>
        <mxCell id="1432KbA3HsOirkNIjWRa-28" value="" style="rounded=1;whiteSpace=wrap;html=1;fillColor=#eeeeee;strokeColor=#36393d;" parent="1" vertex="1">
          <mxGeometry x="1505" y="310" width="10" height="630" as="geometry" />
        </mxCell>
        <mxCell id="1432KbA3HsOirkNIjWRa-29" value="sc: staffcontroller" style="rounded=1;whiteSpace=wrap;html=1;fillColor=#f0a30a;strokeColor=#BD7000;fontColor=#000000;" parent="1" vertex="1">
          <mxGeometry x="950" y="220" width="120" height="60" as="geometry" />
        </mxCell>
        <mxCell id="1432KbA3HsOirkNIjWRa-30" value="" style="endArrow=none;dashed=1;html=1;rounded=0;entryX=0.5;entryY=1;entryDx=0;entryDy=0;" parent="1" target="1432KbA3HsOirkNIjWRa-29" edge="1">
          <mxGeometry width="50" height="50" relative="1" as="geometry">
            <mxPoint x="1010" y="1040" as="sourcePoint" />
            <mxPoint x="920" y="370" as="targetPoint" />
          </mxGeometry>
        </mxCell>
        <mxCell id="1432KbA3HsOirkNIjWRa-31" value="" style="rounded=1;whiteSpace=wrap;html=1;fillColor=#eeeeee;strokeColor=#36393d;" parent="1" vertex="1">
          <mxGeometry x="1005" y="570" width="10" height="210" as="geometry" />
        </mxCell>
        <mxCell id="1432KbA3HsOirkNIjWRa-32" value="sv: staffView" style="rounded=1;whiteSpace=wrap;html=1;fillColor=#f0a30a;strokeColor=#BD7000;fontColor=#000000;" parent="1" vertex="1">
          <mxGeometry x="1180" y="220" width="120" height="60" as="geometry" />
        </mxCell>
        <mxCell id="1432KbA3HsOirkNIjWRa-33" value="" style="endArrow=none;dashed=1;html=1;rounded=0;entryX=0.5;entryY=1;entryDx=0;entryDy=0;" parent="1" source="1432KbA3HsOirkNIjWRa-34" target="1432KbA3HsOirkNIjWRa-32" edge="1">
          <mxGeometry width="50" height="50" relative="1" as="geometry">
            <mxPoint x="1240" y="1070" as="sourcePoint" />
            <mxPoint x="1150" y="380" as="targetPoint" />
          </mxGeometry>
        </mxCell>
        <mxCell id="1432KbA3HsOirkNIjWRa-34" value="" style="rounded=1;whiteSpace=wrap;html=1;fillColor=#eeeeee;strokeColor=#36393d;" parent="1" vertex="1">
          <mxGeometry x="1235" y="570" width="10" height="170" as="geometry" />
        </mxCell>
        <mxCell id="1432KbA3HsOirkNIjWRa-35" value="" style="endArrow=classic;html=1;rounded=0;exitX=1;exitY=0.75;exitDx=0;exitDy=0;" parent="1" edge="1">
          <mxGeometry width="50" height="50" relative="1" as="geometry">
            <mxPoint x="795" y="590" as="sourcePoint" />
            <mxPoint x="1015" y="590.5" as="targetPoint" />
          </mxGeometry>
        </mxCell>
        <mxCell id="1432KbA3HsOirkNIjWRa-36" value="A5.1 ตรวจสอบความถูกต้องของสลิป" style="edgeLabel;html=1;align=center;verticalAlign=middle;resizable=0;points=[];" parent="1432KbA3HsOirkNIjWRa-35" connectable="0" vertex="1">
          <mxGeometry x="-0.6332" y="1" relative="1" as="geometry">
            <mxPoint x="65" y="-9" as="offset" />
          </mxGeometry>
        </mxCell>
        <mxCell id="1432KbA3HsOirkNIjWRa-37" value="" style="endArrow=classic;html=1;rounded=0;entryX=1;entryY=0;entryDx=0;entryDy=0;exitX=0;exitY=0;exitDx=0;exitDy=0;" parent="1" edge="1">
          <mxGeometry width="50" height="50" relative="1" as="geometry">
            <mxPoint x="505" y="380.0000000000016" as="sourcePoint" />
            <mxPoint x="310" y="380" as="targetPoint" />
          </mxGeometry>
        </mxCell>
        <mxCell id="1432KbA3HsOirkNIjWRa-38" value="2.แสดงข้อมูล" style="text;html=1;align=center;verticalAlign=middle;resizable=0;points=[];autosize=1;strokeColor=none;fillColor=none;" parent="1" vertex="1">
          <mxGeometry x="360" y="380" width="90" height="30" as="geometry" />
        </mxCell>
        <mxCell id="1432KbA3HsOirkNIjWRa-39" value="" style="endArrow=classic;html=1;rounded=0;exitX=1;exitY=0.75;exitDx=0;exitDy=0;" parent="1" edge="1">
          <mxGeometry width="50" height="50" relative="1" as="geometry">
            <mxPoint x="1015" y="610" as="sourcePoint" />
            <mxPoint x="1235" y="610.5" as="targetPoint" />
          </mxGeometry>
        </mxCell>
        <mxCell id="1432KbA3HsOirkNIjWRa-40" value="" style="endArrow=classic;html=1;rounded=0;" parent="1" edge="1">
          <mxGeometry width="50" height="50" relative="1" as="geometry">
            <mxPoint x="1245" y="620" as="sourcePoint" />
            <mxPoint x="1245" y="670" as="targetPoint" />
            <Array as="points">
              <mxPoint x="1300" y="620" />
              <mxPoint x="1300" y="670" />
            </Array>
          </mxGeometry>
        </mxCell>
        <mxCell id="1432KbA3HsOirkNIjWRa-47" value="" style="endArrow=classic;html=1;rounded=0;entryX=0;entryY=0.25;entryDx=0;entryDy=0;" parent="1" edge="1">
          <mxGeometry width="50" height="50" relative="1" as="geometry">
            <mxPoint x="310" y="510" as="sourcePoint" />
            <mxPoint x="505" y="510.0000000000002" as="targetPoint" />
          </mxGeometry>
        </mxCell>
        <mxCell id="1432KbA3HsOirkNIjWRa-49" value="3A.2 ยื่นเรื่องของ refund" style="text;html=1;align=center;verticalAlign=middle;resizable=0;points=[];autosize=1;strokeColor=none;fillColor=none;" parent="1" vertex="1">
          <mxGeometry x="330" y="510" width="150" height="30" as="geometry" />
        </mxCell>
        <mxCell id="1432KbA3HsOirkNIjWRa-50" value="" style="endArrow=classic;html=1;rounded=0;exitX=0.029;exitY=0.705;exitDx=0;exitDy=0;exitPerimeter=0;entryX=0.914;entryY=0.565;entryDx=0;entryDy=0;entryPerimeter=0;" parent="1" source="1432KbA3HsOirkNIjWRa-34" target="1432KbA3HsOirkNIjWRa-31" edge="1">
          <mxGeometry width="50" height="50" relative="1" as="geometry">
            <mxPoint x="1070" y="620" as="sourcePoint" />
            <mxPoint x="1120" y="570" as="targetPoint" />
          </mxGeometry>
        </mxCell>
        <mxCell id="1432KbA3HsOirkNIjWRa-51" value="6A.1 เจ้าหน้าที่ยอมรับการ refund" style="text;html=1;align=center;verticalAlign=middle;resizable=0;points=[];autosize=1;strokeColor=none;fillColor=none;" parent="1" vertex="1">
          <mxGeometry x="1030" y="660" width="190" height="30" as="geometry" />
        </mxCell>
      </root>
    </mxGraphModel>
  </diagram>
  <diagram id="BU4OfBNWr1BFPIGk916F" name="uc5">
    <mxGraphModel dx="1567" dy="1188" grid="1" gridSize="10" guides="1" tooltips="1" connect="1" arrows="1" fold="1" page="0" pageScale="1" pageWidth="850" pageHeight="1100" math="0" shadow="0">
      <root>
        <mxCell id="0" />
        <mxCell id="1" parent="0" />
        <mxCell id="j7HjAU8C0wumSIqg3g-e-1" style="edgeStyle=orthogonalEdgeStyle;rounded=0;orthogonalLoop=1;jettySize=auto;html=1;exitX=0.5;exitY=0.5;exitDx=0;exitDy=0;exitPerimeter=0;dashed=1;shape=link;strokeColor=none;" parent="1" edge="1">
          <mxGeometry relative="1" as="geometry">
            <mxPoint x="325" y="685" as="targetPoint" />
            <mxPoint x="305" y="450" as="sourcePoint" />
          </mxGeometry>
        </mxCell>
        <mxCell id="j7HjAU8C0wumSIqg3g-e-2" value="t:Teacher" style="shape=umlActor;verticalLabelPosition=bottom;verticalAlign=top;html=1;outlineConnect=0;" parent="1" vertex="1">
          <mxGeometry x="290" y="250" width="30" height="60" as="geometry" />
        </mxCell>
        <mxCell id="j7HjAU8C0wumSIqg3g-e-3" value="" style="endArrow=none;dashed=1;html=1;rounded=0;entryX=0.5;entryY=0.5;entryDx=0;entryDy=0;entryPerimeter=0;fillColor=#eeeeee;strokeColor=#36393d;" parent="1" source="j7HjAU8C0wumSIqg3g-e-10" edge="1">
          <mxGeometry width="50" height="50" relative="1" as="geometry">
            <mxPoint x="305" y="580" as="sourcePoint" />
            <mxPoint x="305" y="280" as="targetPoint" />
          </mxGeometry>
        </mxCell>
        <mxCell id="j7HjAU8C0wumSIqg3g-e-4" value="" style="endArrow=none;dashed=1;html=1;rounded=0;entryX=0.5;entryY=0.5;entryDx=0;entryDy=0;entryPerimeter=0;" parent="1" edge="1">
          <mxGeometry width="50" height="50" relative="1" as="geometry">
            <mxPoint x="305" y="640" as="sourcePoint" />
            <mxPoint x="305" y="450" as="targetPoint" />
          </mxGeometry>
        </mxCell>
        <mxCell id="j7HjAU8C0wumSIqg3g-e-5" value="tv: TeacherView" style="rounded=1;whiteSpace=wrap;html=1;fillColor=#f0a30a;strokeColor=#BD7000;fontColor=#000000;" parent="1" vertex="1">
          <mxGeometry x="450" y="220" width="120" height="60" as="geometry" />
        </mxCell>
        <mxCell id="j7HjAU8C0wumSIqg3g-e-8" value="" style="edgeStyle=orthogonalEdgeStyle;rounded=0;orthogonalLoop=1;jettySize=auto;html=1;dashed=1;shape=link;strokeColor=none;" parent="1" source="j7HjAU8C0wumSIqg3g-e-2" target="j7HjAU8C0wumSIqg3g-e-10" edge="1">
          <mxGeometry relative="1" as="geometry">
            <mxPoint x="305" y="650" as="targetPoint" />
            <mxPoint x="305" y="280" as="sourcePoint" />
          </mxGeometry>
        </mxCell>
        <mxCell id="j7HjAU8C0wumSIqg3g-e-10" value="" style="rounded=1;whiteSpace=wrap;html=1;fillColor=#eeeeee;strokeColor=#36393d;" parent="1" vertex="1">
          <mxGeometry x="300" y="350" width="10" height="240" as="geometry" />
        </mxCell>
        <mxCell id="j7HjAU8C0wumSIqg3g-e-11" value="" style="endArrow=none;dashed=1;html=1;rounded=0;entryX=0.5;entryY=1;entryDx=0;entryDy=0;" parent="1" source="j7HjAU8C0wumSIqg3g-e-14" target="j7HjAU8C0wumSIqg3g-e-5" edge="1">
          <mxGeometry width="50" height="50" relative="1" as="geometry">
            <mxPoint x="510" y="860" as="sourcePoint" />
            <mxPoint x="470" y="400" as="targetPoint" />
          </mxGeometry>
        </mxCell>
        <mxCell id="j7HjAU8C0wumSIqg3g-e-45" value="tc: TeacherController" style="rounded=1;whiteSpace=wrap;html=1;fillColor=#f0a30a;strokeColor=#BD7000;fontColor=#000000;" parent="1" vertex="1">
          <mxGeometry x="670" y="220" width="120" height="60" as="geometry" />
        </mxCell>
        <mxCell id="j7HjAU8C0wumSIqg3g-e-46" value="" style="endArrow=none;dashed=1;html=1;rounded=0;entryX=0.5;entryY=1;entryDx=0;entryDy=0;" parent="1" source="j7HjAU8C0wumSIqg3g-e-47" target="j7HjAU8C0wumSIqg3g-e-45" edge="1">
          <mxGeometry width="50" height="50" relative="1" as="geometry">
            <mxPoint x="730" y="860" as="sourcePoint" />
            <mxPoint x="690" y="400" as="targetPoint" />
          </mxGeometry>
        </mxCell>
        <mxCell id="3I3mKteQZMzdCcS3Y-IT-1" value="db : DBConnected" style="rounded=1;whiteSpace=wrap;html=1;fillColor=#f0a30a;strokeColor=#BD7000;fontColor=#000000;" parent="1" vertex="1">
          <mxGeometry x="890" y="220" width="120" height="60" as="geometry" />
        </mxCell>
        <mxCell id="3I3mKteQZMzdCcS3Y-IT-2" value="" style="endArrow=none;dashed=1;html=1;rounded=0;entryX=0.5;entryY=1;entryDx=0;entryDy=0;" parent="1" source="3I3mKteQZMzdCcS3Y-IT-4" target="3I3mKteQZMzdCcS3Y-IT-1" edge="1">
          <mxGeometry width="50" height="50" relative="1" as="geometry">
            <mxPoint x="950" y="1060" as="sourcePoint" />
            <mxPoint x="860" y="370" as="targetPoint" />
          </mxGeometry>
        </mxCell>
        <mxCell id="3I3mKteQZMzdCcS3Y-IT-3" value="" style="endArrow=none;dashed=1;html=1;rounded=0;entryX=0.5;entryY=1;entryDx=0;entryDy=0;" parent="1" target="3I3mKteQZMzdCcS3Y-IT-4" edge="1">
          <mxGeometry width="50" height="50" relative="1" as="geometry">
            <mxPoint x="950" y="660" as="sourcePoint" />
            <mxPoint x="950" y="270" as="targetPoint" />
          </mxGeometry>
        </mxCell>
        <mxCell id="3I3mKteQZMzdCcS3Y-IT-4" value="" style="rounded=1;whiteSpace=wrap;html=1;fillColor=#eeeeee;strokeColor=#36393d;" parent="1" vertex="1">
          <mxGeometry x="945" y="350" width="10" height="200" as="geometry" />
        </mxCell>
        <mxCell id="3I3mKteQZMzdCcS3Y-IT-5" value="" style="endArrow=classic;html=1;rounded=0;exitX=0.157;exitY=0.093;exitDx=0;exitDy=0;exitPerimeter=0;" parent="1" source="3I3mKteQZMzdCcS3Y-IT-4" edge="1">
          <mxGeometry width="50" height="50" relative="1" as="geometry">
            <mxPoint x="700" y="600" as="sourcePoint" />
            <mxPoint x="520" y="370" as="targetPoint" />
          </mxGeometry>
        </mxCell>
        <mxCell id="3I3mKteQZMzdCcS3Y-IT-6" value="&lt;div&gt;1.แสดงรายชื่อของผู้ที่อยู่ในคาบเรียนนี้&amp;nbsp;&lt;span style=&quot;background-color: initial;&quot;&gt;(Q5.1.1)&lt;/span&gt;&lt;/div&gt;&lt;div&gt;&lt;br&gt;&lt;/div&gt;" style="text;html=1;align=center;verticalAlign=middle;resizable=0;points=[];autosize=1;strokeColor=none;fillColor=none;" parent="1" vertex="1">
          <mxGeometry x="600" y="340" width="260" height="40" as="geometry" />
        </mxCell>
        <mxCell id="3I3mKteQZMzdCcS3Y-IT-8" value="" style="endArrow=none;dashed=1;html=1;rounded=0;entryX=0.5;entryY=1;entryDx=0;entryDy=0;" parent="1" target="j7HjAU8C0wumSIqg3g-e-14" edge="1">
          <mxGeometry width="50" height="50" relative="1" as="geometry">
            <mxPoint x="510" y="650" as="sourcePoint" />
            <mxPoint x="510" y="280" as="targetPoint" />
          </mxGeometry>
        </mxCell>
        <mxCell id="j7HjAU8C0wumSIqg3g-e-14" value="" style="rounded=1;whiteSpace=wrap;html=1;fillColor=#eeeeee;strokeColor=#36393d;" parent="1" vertex="1">
          <mxGeometry x="505" y="360" width="10" height="100" as="geometry" />
        </mxCell>
        <mxCell id="3I3mKteQZMzdCcS3Y-IT-9" value="" style="endArrow=classic;html=1;rounded=0;exitX=0.8;exitY=0.208;exitDx=0;exitDy=0;exitPerimeter=0;entryX=0.243;entryY=0.4;entryDx=0;entryDy=0;entryPerimeter=0;" parent="1" source="j7HjAU8C0wumSIqg3g-e-10" target="j7HjAU8C0wumSIqg3g-e-14" edge="1">
          <mxGeometry width="50" height="50" relative="1" as="geometry">
            <mxPoint x="430" y="610" as="sourcePoint" />
            <mxPoint x="480" y="560" as="targetPoint" />
          </mxGeometry>
        </mxCell>
        <mxCell id="3I3mKteQZMzdCcS3Y-IT-10" value="2.ครูทำการกดปุ่มเพื่อเช็คชื่อ&lt;span id=&quot;docs-internal-guid-245da058-7fff-2c63-2636-94bf8d00c299&quot;&gt;&lt;/span&gt;" style="text;html=1;align=center;verticalAlign=middle;resizable=0;points=[];autosize=1;strokeColor=none;fillColor=none;" parent="1" vertex="1">
          <mxGeometry x="320" y="370" width="160" height="30" as="geometry" />
        </mxCell>
        <mxCell id="3I3mKteQZMzdCcS3Y-IT-11" value="" style="endArrow=none;dashed=1;html=1;rounded=0;entryX=0.5;entryY=1;entryDx=0;entryDy=0;" parent="1" target="j7HjAU8C0wumSIqg3g-e-47" edge="1">
          <mxGeometry width="50" height="50" relative="1" as="geometry">
            <mxPoint x="730" y="640" as="sourcePoint" />
            <mxPoint x="730" y="280" as="targetPoint" />
          </mxGeometry>
        </mxCell>
        <mxCell id="j7HjAU8C0wumSIqg3g-e-47" value="" style="rounded=1;whiteSpace=wrap;html=1;fillColor=#eeeeee;strokeColor=#36393d;" parent="1" vertex="1">
          <mxGeometry x="725" y="420" width="10" height="100" as="geometry" />
        </mxCell>
        <mxCell id="3I3mKteQZMzdCcS3Y-IT-12" value="" style="endArrow=classic;html=1;rounded=0;exitX=1.018;exitY=0.692;exitDx=0;exitDy=0;exitPerimeter=0;" parent="1" source="j7HjAU8C0wumSIqg3g-e-14" edge="1">
          <mxGeometry width="50" height="50" relative="1" as="geometry">
            <mxPoint x="410" y="580" as="sourcePoint" />
            <mxPoint x="730" y="430" as="targetPoint" />
          </mxGeometry>
        </mxCell>
        <mxCell id="3I3mKteQZMzdCcS3Y-IT-13" value="3.ระบบทำการดึงข้อมูลของนักเรียน &#xa;                    (Q5.1.2)" style="text;whiteSpace=wrap;" parent="1" vertex="1">
          <mxGeometry x="530" y="390" width="225" height="50" as="geometry" />
        </mxCell>
        <mxCell id="3I3mKteQZMzdCcS3Y-IT-14" value="" style="endArrow=classic;html=1;rounded=0;exitX=1.068;exitY=0.315;exitDx=0;exitDy=0;exitPerimeter=0;" parent="1" source="j7HjAU8C0wumSIqg3g-e-47" edge="1">
          <mxGeometry width="50" height="50" relative="1" as="geometry">
            <mxPoint x="740" y="450" as="sourcePoint" />
            <mxPoint x="950" y="450" as="targetPoint" />
          </mxGeometry>
        </mxCell>
        <mxCell id="3I3mKteQZMzdCcS3Y-IT-15" value="&lt;div&gt;4.อัปเดตสถานะของการเช็คชื่อ&lt;/div&gt;&lt;div&gt;(Q5.1.3)&lt;/div&gt;&lt;div&gt;&lt;br&gt;&lt;/div&gt;" style="text;html=1;align=center;verticalAlign=middle;resizable=0;points=[];autosize=1;strokeColor=none;fillColor=none;" parent="1" vertex="1">
          <mxGeometry x="755" y="410" width="170" height="60" as="geometry" />
        </mxCell>
      </root>
    </mxGraphModel>
  </diagram>
  <diagram id="18dBy2Vv9mL4akC0xDiy" name="uc6">
    <mxGraphModel dx="940" dy="713" grid="1" gridSize="10" guides="1" tooltips="1" connect="1" arrows="1" fold="1" page="0" pageScale="1" pageWidth="850" pageHeight="1100" math="0" shadow="0">
      <root>
        <mxCell id="0" />
        <mxCell id="1" parent="0" />
        <mxCell id="AjIYsu6Uy49C0ki79Oq0-1" style="edgeStyle=orthogonalEdgeStyle;rounded=0;orthogonalLoop=1;jettySize=auto;html=1;exitX=0.5;exitY=0.5;exitDx=0;exitDy=0;exitPerimeter=0;dashed=1;shape=link;strokeColor=none;" parent="1" edge="1">
          <mxGeometry relative="1" as="geometry">
            <mxPoint x="215" y="645" as="targetPoint" />
            <mxPoint x="195" y="410" as="sourcePoint" />
          </mxGeometry>
        </mxCell>
        <mxCell id="AjIYsu6Uy49C0ki79Oq0-2" value="s :Student" style="shape=umlActor;verticalLabelPosition=bottom;verticalAlign=top;html=1;outlineConnect=0;" parent="1" vertex="1">
          <mxGeometry x="180" y="210" width="30" height="60" as="geometry" />
        </mxCell>
        <mxCell id="AjIYsu6Uy49C0ki79Oq0-3" value="" style="endArrow=none;dashed=1;html=1;rounded=0;entryX=0.5;entryY=0.5;entryDx=0;entryDy=0;entryPerimeter=0;fillColor=#eeeeee;strokeColor=#36393d;" parent="1" source="AjIYsu6Uy49C0ki79Oq0-7" edge="1">
          <mxGeometry width="50" height="50" relative="1" as="geometry">
            <mxPoint x="195" y="540" as="sourcePoint" />
            <mxPoint x="195" y="240" as="targetPoint" />
          </mxGeometry>
        </mxCell>
        <mxCell id="AjIYsu6Uy49C0ki79Oq0-4" value="" style="endArrow=none;dashed=1;html=1;rounded=0;entryX=0.5;entryY=0.5;entryDx=0;entryDy=0;entryPerimeter=0;" parent="1" edge="1">
          <mxGeometry width="50" height="50" relative="1" as="geometry">
            <mxPoint x="195" y="600" as="sourcePoint" />
            <mxPoint x="195" y="410" as="targetPoint" />
          </mxGeometry>
        </mxCell>
        <mxCell id="AjIYsu6Uy49C0ki79Oq0-5" value="sv: studentView" style="rounded=1;whiteSpace=wrap;html=1;fillColor=#f0a30a;strokeColor=#BD7000;fontColor=#000000;" parent="1" vertex="1">
          <mxGeometry x="340" y="180" width="120" height="60" as="geometry" />
        </mxCell>
        <mxCell id="AjIYsu6Uy49C0ki79Oq0-6" value="" style="edgeStyle=orthogonalEdgeStyle;rounded=0;orthogonalLoop=1;jettySize=auto;html=1;dashed=1;shape=link;strokeColor=none;" parent="1" source="AjIYsu6Uy49C0ki79Oq0-2" target="AjIYsu6Uy49C0ki79Oq0-7" edge="1">
          <mxGeometry relative="1" as="geometry">
            <mxPoint x="195" y="610" as="targetPoint" />
            <mxPoint x="195" y="240" as="sourcePoint" />
          </mxGeometry>
        </mxCell>
        <mxCell id="AjIYsu6Uy49C0ki79Oq0-7" value="" style="rounded=1;whiteSpace=wrap;html=1;fillColor=#eeeeee;strokeColor=#36393d;" parent="1" vertex="1">
          <mxGeometry x="190" y="310" width="10" height="240" as="geometry" />
        </mxCell>
        <mxCell id="AjIYsu6Uy49C0ki79Oq0-8" value="" style="endArrow=none;dashed=1;html=1;rounded=0;entryX=0.5;entryY=1;entryDx=0;entryDy=0;" parent="1" source="AjIYsu6Uy49C0ki79Oq0-18" target="AjIYsu6Uy49C0ki79Oq0-5" edge="1">
          <mxGeometry width="50" height="50" relative="1" as="geometry">
            <mxPoint x="400" y="820" as="sourcePoint" />
            <mxPoint x="360" y="360" as="targetPoint" />
          </mxGeometry>
        </mxCell>
        <mxCell id="AjIYsu6Uy49C0ki79Oq0-9" value="sc: studentController" style="rounded=1;whiteSpace=wrap;html=1;fillColor=#f0a30a;strokeColor=#BD7000;fontColor=#000000;" parent="1" vertex="1">
          <mxGeometry x="560" y="180" width="120" height="60" as="geometry" />
        </mxCell>
        <mxCell id="AjIYsu6Uy49C0ki79Oq0-10" value="" style="endArrow=none;dashed=1;html=1;rounded=0;entryX=0.5;entryY=1;entryDx=0;entryDy=0;" parent="1" source="AjIYsu6Uy49C0ki79Oq0-22" target="AjIYsu6Uy49C0ki79Oq0-9" edge="1">
          <mxGeometry width="50" height="50" relative="1" as="geometry">
            <mxPoint x="620" y="820" as="sourcePoint" />
            <mxPoint x="580" y="360" as="targetPoint" />
          </mxGeometry>
        </mxCell>
        <mxCell id="AjIYsu6Uy49C0ki79Oq0-11" value="db : DBConnected" style="rounded=1;whiteSpace=wrap;html=1;fillColor=#f0a30a;strokeColor=#BD7000;fontColor=#000000;" parent="1" vertex="1">
          <mxGeometry x="780" y="180" width="120" height="60" as="geometry" />
        </mxCell>
        <mxCell id="AjIYsu6Uy49C0ki79Oq0-12" value="" style="endArrow=none;dashed=1;html=1;rounded=0;entryX=0.5;entryY=1;entryDx=0;entryDy=0;" parent="1" source="AjIYsu6Uy49C0ki79Oq0-14" target="AjIYsu6Uy49C0ki79Oq0-11" edge="1">
          <mxGeometry width="50" height="50" relative="1" as="geometry">
            <mxPoint x="840" y="1020" as="sourcePoint" />
            <mxPoint x="750" y="330" as="targetPoint" />
          </mxGeometry>
        </mxCell>
        <mxCell id="AjIYsu6Uy49C0ki79Oq0-13" value="" style="endArrow=none;dashed=1;html=1;rounded=0;entryX=0.5;entryY=1;entryDx=0;entryDy=0;" parent="1" target="AjIYsu6Uy49C0ki79Oq0-14" edge="1">
          <mxGeometry width="50" height="50" relative="1" as="geometry">
            <mxPoint x="840" y="620" as="sourcePoint" />
            <mxPoint x="840" y="230" as="targetPoint" />
          </mxGeometry>
        </mxCell>
        <mxCell id="AjIYsu6Uy49C0ki79Oq0-35" style="edgeStyle=orthogonalEdgeStyle;rounded=0;orthogonalLoop=1;jettySize=auto;html=1;exitX=1;exitY=0.25;exitDx=0;exitDy=0;entryX=1.033;entryY=0.646;entryDx=0;entryDy=0;entryPerimeter=0;" parent="1" source="AjIYsu6Uy49C0ki79Oq0-14" target="AjIYsu6Uy49C0ki79Oq0-14" edge="1">
          <mxGeometry relative="1" as="geometry">
            <mxPoint x="920" y="390" as="targetPoint" />
            <Array as="points">
              <mxPoint x="870" y="353" />
              <mxPoint x="870" y="388" />
            </Array>
          </mxGeometry>
        </mxCell>
        <mxCell id="AjIYsu6Uy49C0ki79Oq0-14" value="" style="rounded=1;whiteSpace=wrap;html=1;fillColor=#eeeeee;strokeColor=#36393d;" parent="1" vertex="1">
          <mxGeometry x="835" y="330" width="10" height="90" as="geometry" />
        </mxCell>
        <mxCell id="AjIYsu6Uy49C0ki79Oq0-17" value="" style="endArrow=none;dashed=1;html=1;rounded=0;entryX=0.5;entryY=1;entryDx=0;entryDy=0;" parent="1" target="AjIYsu6Uy49C0ki79Oq0-18" edge="1">
          <mxGeometry width="50" height="50" relative="1" as="geometry">
            <mxPoint x="400" y="610" as="sourcePoint" />
            <mxPoint x="400" y="240" as="targetPoint" />
          </mxGeometry>
        </mxCell>
        <mxCell id="AjIYsu6Uy49C0ki79Oq0-18" value="" style="rounded=1;whiteSpace=wrap;html=1;fillColor=#eeeeee;strokeColor=#36393d;" parent="1" vertex="1">
          <mxGeometry x="395" y="400" width="10" height="100" as="geometry" />
        </mxCell>
        <mxCell id="AjIYsu6Uy49C0ki79Oq0-21" value="" style="endArrow=none;dashed=1;html=1;rounded=0;entryX=0.5;entryY=1;entryDx=0;entryDy=0;" parent="1" target="AjIYsu6Uy49C0ki79Oq0-22" edge="1">
          <mxGeometry width="50" height="50" relative="1" as="geometry">
            <mxPoint x="620" y="600" as="sourcePoint" />
            <mxPoint x="620" y="240" as="targetPoint" />
          </mxGeometry>
        </mxCell>
        <mxCell id="AjIYsu6Uy49C0ki79Oq0-22" value="" style="rounded=1;whiteSpace=wrap;html=1;fillColor=#eeeeee;strokeColor=#36393d;" parent="1" vertex="1">
          <mxGeometry x="615" y="310" width="10" height="100" as="geometry" />
        </mxCell>
        <mxCell id="AjIYsu6Uy49C0ki79Oq0-30" value="" style="endArrow=classic;html=1;rounded=0;exitX=1.2;exitY=0.086;exitDx=0;exitDy=0;exitPerimeter=0;entryX=-0.05;entryY=0.198;entryDx=0;entryDy=0;entryPerimeter=0;" parent="1" source="AjIYsu6Uy49C0ki79Oq0-7" target="AjIYsu6Uy49C0ki79Oq0-22" edge="1">
          <mxGeometry width="50" height="50" relative="1" as="geometry">
            <mxPoint x="570" y="440" as="sourcePoint" />
            <mxPoint x="620" y="390" as="targetPoint" />
          </mxGeometry>
        </mxCell>
        <mxCell id="AjIYsu6Uy49C0ki79Oq0-31" value="1.ทำการเลือก timeslot ที่จะเรียนชดเชย" style="text;html=1;align=center;verticalAlign=middle;resizable=0;points=[];autosize=1;strokeColor=none;fillColor=none;" parent="1" vertex="1">
          <mxGeometry x="290" y="310" width="220" height="30" as="geometry" />
        </mxCell>
        <mxCell id="AjIYsu6Uy49C0ki79Oq0-32" value="" style="endArrow=classic;html=1;rounded=0;exitX=1.033;exitY=0.34;exitDx=0;exitDy=0;exitPerimeter=0;entryX=0.2;entryY=0.156;entryDx=0;entryDy=0;entryPerimeter=0;" parent="1" source="AjIYsu6Uy49C0ki79Oq0-22" target="AjIYsu6Uy49C0ki79Oq0-14" edge="1">
          <mxGeometry width="50" height="50" relative="1" as="geometry">
            <mxPoint x="570" y="440" as="sourcePoint" />
            <mxPoint x="836" y="335" as="targetPoint" />
          </mxGeometry>
        </mxCell>
        <mxCell id="AjIYsu6Uy49C0ki79Oq0-33" style="edgeStyle=orthogonalEdgeStyle;rounded=0;orthogonalLoop=1;jettySize=auto;html=1;exitX=0.5;exitY=1;exitDx=0;exitDy=0;" parent="1" source="AjIYsu6Uy49C0ki79Oq0-14" target="AjIYsu6Uy49C0ki79Oq0-14" edge="1">
          <mxGeometry relative="1" as="geometry" />
        </mxCell>
        <mxCell id="AjIYsu6Uy49C0ki79Oq0-34" value="&lt;div&gt;2.ระบบทำการดึงข้อมูลของนักเรียน&lt;/div&gt;&lt;div&gt;(Q5.1.2)&lt;/div&gt;&lt;div&gt;&lt;br&gt;&lt;/div&gt;" style="text;html=1;align=center;verticalAlign=middle;resizable=0;points=[];autosize=1;strokeColor=none;fillColor=none;" parent="1" vertex="1">
          <mxGeometry x="640" y="340" width="190" height="60" as="geometry" />
        </mxCell>
        <mxCell id="AjIYsu6Uy49C0ki79Oq0-36" value="3.ระบบทำการใส่ชื่อของนักเรียน&#xa;เข้าใน timeslot ที่เลือก &#xa;(Q6.1.1)" style="text;whiteSpace=wrap;" parent="1" vertex="1">
          <mxGeometry x="870" y="340" width="180" height="50" as="geometry" />
        </mxCell>
        <mxCell id="AjIYsu6Uy49C0ki79Oq0-38" value="" style="endArrow=classic;html=1;rounded=0;exitX=-0.05;exitY=0.915;exitDx=0;exitDy=0;exitPerimeter=0;entryX=1.617;entryY=0.132;entryDx=0;entryDy=0;entryPerimeter=0;" parent="1" source="AjIYsu6Uy49C0ki79Oq0-14" target="AjIYsu6Uy49C0ki79Oq0-18" edge="1">
          <mxGeometry width="50" height="50" relative="1" as="geometry">
            <mxPoint x="570" y="440" as="sourcePoint" />
            <mxPoint x="620" y="390" as="targetPoint" />
          </mxGeometry>
        </mxCell>
        <mxCell id="AjIYsu6Uy49C0ki79Oq0-39" value="4.ระบบทำการแสดงข้อมูลของคอร์สที่ลงเรียนชดเชย&lt;span id=&quot;docs-internal-guid-e5dd5313-7fff-e1ea-81eb-89f57034b1dc&quot;&gt;&lt;/span&gt;" style="text;html=1;align=center;verticalAlign=middle;resizable=0;points=[];autosize=1;strokeColor=none;fillColor=none;" parent="1" vertex="1">
          <mxGeometry x="485" y="410" width="270" height="30" as="geometry" />
        </mxCell>
      </root>
    </mxGraphModel>
  </diagram>
  <diagram id="axaSSkLmA0cUPVgTjiC4" name="uc7">
    <mxGraphModel dx="940" dy="713" grid="1" gridSize="10" guides="1" tooltips="1" connect="1" arrows="1" fold="1" page="0" pageScale="1" pageWidth="850" pageHeight="1100" math="0" shadow="0">
      <root>
        <mxCell id="0" />
        <mxCell id="1" parent="0" />
        <mxCell id="bmnD93jB9IELIYVL4Ipj-1" style="edgeStyle=orthogonalEdgeStyle;rounded=0;orthogonalLoop=1;jettySize=auto;html=1;exitX=0.5;exitY=0.5;exitDx=0;exitDy=0;exitPerimeter=0;dashed=1;shape=link;strokeColor=none;" parent="1" edge="1">
          <mxGeometry relative="1" as="geometry">
            <mxPoint x="215" y="645" as="targetPoint" />
            <mxPoint x="195" y="410" as="sourcePoint" />
          </mxGeometry>
        </mxCell>
        <mxCell id="bmnD93jB9IELIYVL4Ipj-2" value="s :Student" style="shape=umlActor;verticalLabelPosition=bottom;verticalAlign=top;html=1;outlineConnect=0;" parent="1" vertex="1">
          <mxGeometry x="180" y="210" width="30" height="60" as="geometry" />
        </mxCell>
        <mxCell id="bmnD93jB9IELIYVL4Ipj-3" value="" style="endArrow=none;dashed=1;html=1;rounded=0;entryX=0.5;entryY=0.5;entryDx=0;entryDy=0;entryPerimeter=0;fillColor=#eeeeee;strokeColor=#36393d;" parent="1" source="bmnD93jB9IELIYVL4Ipj-7" edge="1">
          <mxGeometry width="50" height="50" relative="1" as="geometry">
            <mxPoint x="195" y="540" as="sourcePoint" />
            <mxPoint x="195" y="240" as="targetPoint" />
          </mxGeometry>
        </mxCell>
        <mxCell id="bmnD93jB9IELIYVL4Ipj-4" value="" style="endArrow=none;dashed=1;html=1;rounded=0;entryX=0.5;entryY=0.5;entryDx=0;entryDy=0;entryPerimeter=0;" parent="1" edge="1">
          <mxGeometry width="50" height="50" relative="1" as="geometry">
            <mxPoint x="195" y="600" as="sourcePoint" />
            <mxPoint x="195" y="410" as="targetPoint" />
          </mxGeometry>
        </mxCell>
        <mxCell id="bmnD93jB9IELIYVL4Ipj-5" value="sv: studentView" style="rounded=1;whiteSpace=wrap;html=1;fillColor=#f0a30a;strokeColor=#BD7000;fontColor=#000000;" parent="1" vertex="1">
          <mxGeometry x="340" y="180" width="120" height="60" as="geometry" />
        </mxCell>
        <mxCell id="bmnD93jB9IELIYVL4Ipj-6" value="" style="edgeStyle=orthogonalEdgeStyle;rounded=0;orthogonalLoop=1;jettySize=auto;html=1;dashed=1;shape=link;strokeColor=none;" parent="1" source="bmnD93jB9IELIYVL4Ipj-2" target="bmnD93jB9IELIYVL4Ipj-7" edge="1">
          <mxGeometry relative="1" as="geometry">
            <mxPoint x="195" y="610" as="targetPoint" />
            <mxPoint x="195" y="240" as="sourcePoint" />
          </mxGeometry>
        </mxCell>
        <mxCell id="bmnD93jB9IELIYVL4Ipj-7" value="" style="rounded=1;whiteSpace=wrap;html=1;fillColor=#eeeeee;strokeColor=#36393d;" parent="1" vertex="1">
          <mxGeometry x="190" y="310" width="10" height="240" as="geometry" />
        </mxCell>
        <mxCell id="bmnD93jB9IELIYVL4Ipj-8" value="" style="endArrow=none;dashed=1;html=1;rounded=0;entryX=0.5;entryY=1;entryDx=0;entryDy=0;" parent="1" source="bmnD93jB9IELIYVL4Ipj-17" target="bmnD93jB9IELIYVL4Ipj-5" edge="1">
          <mxGeometry width="50" height="50" relative="1" as="geometry">
            <mxPoint x="400" y="820" as="sourcePoint" />
            <mxPoint x="360" y="360" as="targetPoint" />
          </mxGeometry>
        </mxCell>
        <mxCell id="bmnD93jB9IELIYVL4Ipj-9" value="sc: studentController" style="rounded=1;whiteSpace=wrap;html=1;fillColor=#f0a30a;strokeColor=#BD7000;fontColor=#000000;" parent="1" vertex="1">
          <mxGeometry x="560" y="180" width="120" height="60" as="geometry" />
        </mxCell>
        <mxCell id="bmnD93jB9IELIYVL4Ipj-10" value="" style="endArrow=none;dashed=1;html=1;rounded=0;entryX=0.5;entryY=1;entryDx=0;entryDy=0;" parent="1" source="bmnD93jB9IELIYVL4Ipj-19" target="bmnD93jB9IELIYVL4Ipj-9" edge="1">
          <mxGeometry width="50" height="50" relative="1" as="geometry">
            <mxPoint x="620" y="820" as="sourcePoint" />
            <mxPoint x="580" y="360" as="targetPoint" />
          </mxGeometry>
        </mxCell>
        <mxCell id="bmnD93jB9IELIYVL4Ipj-11" value="db : DBConnected" style="rounded=1;whiteSpace=wrap;html=1;fillColor=#f0a30a;strokeColor=#BD7000;fontColor=#000000;" parent="1" vertex="1">
          <mxGeometry x="780" y="180" width="120" height="60" as="geometry" />
        </mxCell>
        <mxCell id="bmnD93jB9IELIYVL4Ipj-12" value="" style="endArrow=none;dashed=1;html=1;rounded=0;entryX=0.5;entryY=1;entryDx=0;entryDy=0;" parent="1" source="bmnD93jB9IELIYVL4Ipj-15" target="bmnD93jB9IELIYVL4Ipj-11" edge="1">
          <mxGeometry width="50" height="50" relative="1" as="geometry">
            <mxPoint x="840" y="1020" as="sourcePoint" />
            <mxPoint x="750" y="330" as="targetPoint" />
          </mxGeometry>
        </mxCell>
        <mxCell id="bmnD93jB9IELIYVL4Ipj-13" value="" style="endArrow=none;dashed=1;html=1;rounded=0;entryX=0.5;entryY=1;entryDx=0;entryDy=0;" parent="1" target="bmnD93jB9IELIYVL4Ipj-15" edge="1">
          <mxGeometry width="50" height="50" relative="1" as="geometry">
            <mxPoint x="840" y="620" as="sourcePoint" />
            <mxPoint x="840" y="230" as="targetPoint" />
          </mxGeometry>
        </mxCell>
        <mxCell id="bmnD93jB9IELIYVL4Ipj-15" value="" style="rounded=1;whiteSpace=wrap;html=1;fillColor=#eeeeee;strokeColor=#36393d;" parent="1" vertex="1">
          <mxGeometry x="835" y="330" width="10" height="90" as="geometry" />
        </mxCell>
        <mxCell id="bmnD93jB9IELIYVL4Ipj-16" value="" style="endArrow=none;dashed=1;html=1;rounded=0;entryX=0.5;entryY=1;entryDx=0;entryDy=0;" parent="1" target="bmnD93jB9IELIYVL4Ipj-17" edge="1">
          <mxGeometry width="50" height="50" relative="1" as="geometry">
            <mxPoint x="400" y="610" as="sourcePoint" />
            <mxPoint x="400" y="240" as="targetPoint" />
          </mxGeometry>
        </mxCell>
        <mxCell id="bmnD93jB9IELIYVL4Ipj-17" value="" style="rounded=1;whiteSpace=wrap;html=1;fillColor=#eeeeee;strokeColor=#36393d;" parent="1" vertex="1">
          <mxGeometry x="395" y="360" width="10" height="100" as="geometry" />
        </mxCell>
        <mxCell id="bmnD93jB9IELIYVL4Ipj-18" value="" style="endArrow=none;dashed=1;html=1;rounded=0;entryX=0.5;entryY=1;entryDx=0;entryDy=0;" parent="1" target="bmnD93jB9IELIYVL4Ipj-19" edge="1">
          <mxGeometry width="50" height="50" relative="1" as="geometry">
            <mxPoint x="620" y="600" as="sourcePoint" />
            <mxPoint x="620" y="240" as="targetPoint" />
          </mxGeometry>
        </mxCell>
        <mxCell id="bmnD93jB9IELIYVL4Ipj-19" value="" style="rounded=1;whiteSpace=wrap;html=1;fillColor=#eeeeee;strokeColor=#36393d;" parent="1" vertex="1">
          <mxGeometry x="615" y="340" width="10" height="40" as="geometry" />
        </mxCell>
        <mxCell id="bmnD93jB9IELIYVL4Ipj-23" style="edgeStyle=orthogonalEdgeStyle;rounded=0;orthogonalLoop=1;jettySize=auto;html=1;exitX=0.5;exitY=1;exitDx=0;exitDy=0;" parent="1" source="bmnD93jB9IELIYVL4Ipj-15" target="bmnD93jB9IELIYVL4Ipj-15" edge="1">
          <mxGeometry relative="1" as="geometry" />
        </mxCell>
        <mxCell id="bmnD93jB9IELIYVL4Ipj-29" style="edgeStyle=orthogonalEdgeStyle;rounded=0;orthogonalLoop=1;jettySize=auto;html=1;exitX=1;exitY=0.25;exitDx=0;exitDy=0;entryX=1;entryY=0.75;entryDx=0;entryDy=0;" parent="1" source="bmnD93jB9IELIYVL4Ipj-15" target="bmnD93jB9IELIYVL4Ipj-15" edge="1">
          <mxGeometry relative="1" as="geometry" />
        </mxCell>
        <mxCell id="bmnD93jB9IELIYVL4Ipj-30" value="1.ระบบเช็คจำนวนการเข้าเรียนว่าครบแล้ว(Q7.1.1)&lt;span id=&quot;docs-internal-guid-bbc53461-7fff-18e7-ddcb-beef0aa72a4e&quot;&gt;&lt;/span&gt;" style="edgeLabel;html=1;align=center;verticalAlign=middle;resizable=0;points=[];" parent="bmnD93jB9IELIYVL4Ipj-29" connectable="0" vertex="1">
          <mxGeometry x="-0.1882" y="1" relative="1" as="geometry">
            <mxPoint x="94" y="8" as="offset" />
          </mxGeometry>
        </mxCell>
        <mxCell id="bmnD93jB9IELIYVL4Ipj-31" value="" style="endArrow=classic;html=1;rounded=0;exitX=0;exitY=0.25;exitDx=0;exitDy=0;entryX=1;entryY=0.25;entryDx=0;entryDy=0;" parent="1" source="bmnD93jB9IELIYVL4Ipj-15" target="bmnD93jB9IELIYVL4Ipj-19" edge="1">
          <mxGeometry width="50" height="50" relative="1" as="geometry">
            <mxPoint x="400" y="390" as="sourcePoint" />
            <mxPoint x="630" y="350" as="targetPoint" />
          </mxGeometry>
        </mxCell>
        <mxCell id="bmnD93jB9IELIYVL4Ipj-35" value="2.ทำการส่งใบ Certificate&lt;span id=&quot;docs-internal-guid-e6f9fa3f-7fff-b668-6979-d65d6de46f17&quot;&gt;&lt;/span&gt;" style="edgeLabel;html=1;align=center;verticalAlign=middle;resizable=0;points=[];" parent="bmnD93jB9IELIYVL4Ipj-31" connectable="0" vertex="1">
          <mxGeometry x="0.36" y="2" relative="1" as="geometry">
            <mxPoint x="28" as="offset" />
          </mxGeometry>
        </mxCell>
        <mxCell id="bmnD93jB9IELIYVL4Ipj-34" value="" style="endArrow=classic;html=1;rounded=0;exitX=0.269;exitY=0.653;exitDx=0;exitDy=0;exitPerimeter=0;entryX=0.89;entryY=0.054;entryDx=0;entryDy=0;entryPerimeter=0;" parent="1" source="bmnD93jB9IELIYVL4Ipj-19" target="bmnD93jB9IELIYVL4Ipj-17" edge="1">
          <mxGeometry width="50" height="50" relative="1" as="geometry">
            <mxPoint x="470" y="400" as="sourcePoint" />
            <mxPoint x="520" y="350" as="targetPoint" />
          </mxGeometry>
        </mxCell>
        <mxCell id="bmnD93jB9IELIYVL4Ipj-38" value="3.แสดงใบ Certificate" style="edgeLabel;html=1;align=center;verticalAlign=middle;resizable=0;points=[];" parent="bmnD93jB9IELIYVL4Ipj-34" connectable="0" vertex="1">
          <mxGeometry x="0.1477" y="3" relative="1" as="geometry">
            <mxPoint as="offset" />
          </mxGeometry>
        </mxCell>
        <mxCell id="bmnD93jB9IELIYVL4Ipj-36" value="" style="endArrow=classic;html=1;rounded=0;exitX=0.907;exitY=0.326;exitDx=0;exitDy=0;exitPerimeter=0;entryX=0;entryY=0.282;entryDx=0;entryDy=0;entryPerimeter=0;" parent="1" source="bmnD93jB9IELIYVL4Ipj-7" target="bmnD93jB9IELIYVL4Ipj-17" edge="1">
          <mxGeometry width="50" height="50" relative="1" as="geometry">
            <mxPoint x="470" y="400" as="sourcePoint" />
            <mxPoint x="520" y="350" as="targetPoint" />
          </mxGeometry>
        </mxCell>
        <mxCell id="bmnD93jB9IELIYVL4Ipj-37" value="4.กดรับใบ Certificate&lt;span id=&quot;docs-internal-guid-2b96b809-7fff-8d51-49b3-d99d39525bd2&quot;&gt;&lt;/span&gt;" style="edgeLabel;html=1;align=center;verticalAlign=middle;resizable=0;points=[];" parent="bmnD93jB9IELIYVL4Ipj-36" connectable="0" vertex="1">
          <mxGeometry x="0.1616" y="-2" relative="1" as="geometry">
            <mxPoint x="-23" as="offset" />
          </mxGeometry>
        </mxCell>
      </root>
    </mxGraphModel>
  </diagram>
</mxfile>
